{
.appVersion = "926";
copyright = "Copyright 2010 The Indie Flower Authors (kimberlygeswein.com)";
customParameters = (
{
name = licenseURL;
value = "http://scripts.sil.org/OFL";
},
{
name = license;
value = "This Font Software is licensed under the SIL Open Font License, Version 1.1. This license is available with a FAQ at: http://scripts.sil.org/OFL";
},
{
name = fsType;
value = (
);
},
{
name = "Use Typo Metrics";
value = 1;
}
);
date = "2016-08-24 09:53:31 +0000";
designer = "Kimberly Geswein";
designerURL = "http://www.kimberlygeswein.com";
familyName = "Indie Flower";
featurePrefixes = (
{
automatic = 1;
code = "languagesystem DFLT dflt;\012languagesystem latn dflt;\012languagesystem latn CAT;\012languagesystem latn ROM;\012languagesystem latn MOL;\012languagesystem latn KAZ;\012languagesystem latn TAT;\012languagesystem latn TRK;\012languagesystem latn CRT;\012languagesystem latn AZE;\012";
name = Languagesystems;
}
);
features = (
{
automatic = 1;
code = "feature ccmp;\012feature locl;\012feature sups;\012feature frac;\012feature ordn;\012";
name = aalt;
},
{
automatic = 1;

glyphs = (
{
color = 3;
glyphname = A;
lastChange = "2016-09-07 20:13:06 +0000";
layers = (
{
anchors = (
{
name = bottom;
position = "{313, 0}";
},
{
name = ogonek;
position = "{491, 10}";
},
{
name = top;
position = "{293, 693}";
}
);
layerId = UUID0;
paths = (
{
closed = 1;
nodes = (
"529 -1 OFFCURVE",
"545 14 OFFCURVE",
"556 28 CURVE",
"564 81 OFFCURVE",
"566 108 OFFCURVE",
"566 156 CURVE SMOOTH",
"566 287 OFFCURVE",
"532 760 OFFCURVE",
"301 760 CURVE SMOOTH",
"84 760 OFFCURVE",
"91 521 OFFCURVE",
"79 355 CURVE",
"80 328 LINE",
"58 325 OFFCURVE",
"49 322 OFFCURVE",
"50 305 CURVE SMOOTH",
"51 289 OFFCURVE",
"58 281 OFFCURVE",
"88 279 CURVE",
"76 129 OFFCURVE",
"104 -44 OFFCURVE",
"162 10 CURVE",
"162 19 LINE SMOOTH",
"162 91 OFFCURVE",
"133 165 OFFCURVE",
"133 242 CURVE",
"131 281 LINE",
"143 281 OFFCURVE",
"175 281 OFFCURVE",
"266 281 CURVE SMOOTH",
"344 281 OFFCURVE",
"402 277 OFFCURVE",
"498 278 CURVE",
"509 240 OFFCURVE",
"510 195 OFFCURVE",
"510 159 CURVE SMOOTH",
"510 113 OFFCURVE",
"489 67 OFFCURVE",
"489 22 CURVE SMOOTH",
"489 8 OFFCURVE",
"493 -1 OFFCURVE",
"510 -1 CURVE SMOOTH"
);
},
{
closed = 1;
nodes = (
"123 328 LINE",
"123 434 OFFCURVE",
"118 713 OFFCURVE",
"279 713 CURVE SMOOTH",
"419 713 OFFCURVE",
"472 536 OFFCURVE",
"494 317 CURVE"
);
}
);
width = 616;
}
);
leftKerningGroup = A;
rightKerningGroup = A;
unicode = 0041;
},
{
color = 3;
glyphname = B;
lastChange = "2016-09-07 20:13:16 +0000";
layers = (
{
anchors = (
{
name = bottom;
position = "{378, 0}";
},
{
name = top;
position = "{122, 690}";
}
);
layerId = UUID0;
paths = (
{
closed = 1;
nodes = (
"537 -1 OFFCURVE",
"643 32 OFFCURVE",
"643 142 CURVE SMOOTH",
"643 277 OFFCURVE",
"484 383 OFFCURVE",
"311 412 CURVE",
"388 433 OFFCURVE",
"446 484 OFFCURVE",
"446 552 CURVE SMOOTH",
"446 645 OFFCURVE",
"281 690 OFFCURVE",
"200 690 CURVE SMOOTH",
"122 690 OFFCURVE",
"-21 664 OFFCURVE",
"-20 627 CURVE SMOOTH",
"-19 593 LINE",
"27 611 OFFCURVE",
"51 614 OFFCURVE",
"104 626 CURVE",
"121 545 OFFCURVE",
"140 262 OFFCURVE",
"153 20 CURVE",
"238 3 OFFCURVE",
"351 -1 OFFCURVE",
"449 -1 CURVE SMOOTH"
);
},
{
closed = 1;
nodes = (
"315 57 OFFCURVE",
"229 66 OFFCURVE",
"210 85 CURVE",
"205 271 OFFCURVE",
"197 396 OFFCURVE",
"160 633 CURVE",
"245 647 OFFCURVE",
"393 621 OFFCURVE",
"393 539 CURVE SMOOTH",
"393 456 OFFCURVE",
"238 461 OFFCURVE",
"238 417 CURVE SMOOTH",
"238 344 OFFCURVE",
"577 344 OFFCURVE",
"577 144 CURVE SMOOTH",
"577 63 OFFCURVE",
"502 56 OFFCURVE",
"423 56 CURVE SMOOTH"
);
}
);
width = 673;
}
);
leftKerningGroup = H;
rightKerningGroup = B;
unicode = 0042;
},
{
color = 3;
glyphname = C;
lastChange = "2016-09-07 20:13:22 +0000";
layers = (
{
anchors = (
{
name = bottom;
position = "{290, 0}";
},
{
name = top;
position = "{356, 626}";
}
);
layerId = UUID0;
paths = (
{
closed = 1;
nodes = (
"377 -11 OFFCURVE",
"519 58 OFFCURVE",
"508 108 CURVE SMOOTH",
"504 122 OFFCURVE",
"492 124 OFFCURVE",
"482 117 CURVE SMOOTH",
"427 74 OFFCURVE",
"373 48 OFFCURVE",
"274 48 CURVE SMOOTH",
"161 48 OFFCURVE",
"101 169 OFFCURVE",
"101 289 CURVE SMOOTH",
"101 437 OFFCURVE",
"217 579 OFFCURVE",
"324 594 CURVE SMOOTH",
"392 604 OFFCURVE",
"428 590 OFFCURVE",
"440 562 CURVE SMOOTH",
"450 537 OFFCURVE",
"430 506 OFFCURVE",
"441 479 CURVE",
"528 511 OFFCURVE",
"509 647 OFFCURVE",
"358 647 CURVE SMOOTH",
"201 647 OFFCURVE",
"50 474 OFFCURVE",
"50 281 CURVE SMOOTH",
"50 115 OFFCURVE",
"127 -11 OFFCURVE",
"268 -11 CURVE SMOOTH"
);
}
);
width = 549;
}
);
leftKerningGroup = O;
rightKerningGroup = C;
unicode = 0043;
},
{
color = 3;
glyphname = D;
lastChange = "2016-09-07 20:15:21 +0000";
layers = (
{
anchors = (
{
name = bottom;
position = "{332, 0}";
},
{
name = center;
position = "{332, 347}";
},
{
name = top;
position = "{332, 593}";
}
);
layerId = UUID0;
paths = (
{
closed = 1;
nodes = (
"291 -11 OFFCURVE",
"370 -11 CURVE SMOOTH",
"523 -11 OFFCURVE",
"674 79 OFFCURVE",
"674 258 CURVE SMOOTH",
"674 504 OFFCURVE",
"377 628 OFFCURVE",
"177 628 CURVE SMOOTH",
"172 628 OFFCURVE",
"-20 620 OFFCURVE",
"-20 566 CURVE SMOOTH",
"-15 542 OFFCURVE",
"-15 537 OFFCURVE",
"-7 533 CURVE",
"-6 533 OFFCURVE",
"47 572 OFFCURVE",
"233 572 CURVE",
"253 547 OFFCURVE",
"318 87 OFFCURVE",
"331 94 CURVE",
"356 94 OFFCURVE",
"356 118 OFFCURVE",
"356 133 CURVE",
"299 556 LINE",
"442 542 OFFCURVE",
"618 441 OFFCURVE",
"618 261 CURVE SMOOTH",
"618 142 OFFCURVE",
"542 48 OFFCURVE",
"369 48 CURVE SMOOTH",
"283 48 OFFCURVE",
"255 85 OFFCURVE",
"219 85 CURVE SMOOTH",
"204 85 OFFCURVE",
"204 71 OFFCURVE",
"204 60 CURVE SMOOTH",
"204 16 OFFCURVE"
);
}
);
width = 734;
}
);
leftKerningGroup = D;
rightKerningGroup = O;
unicode = 0044;
},
{
color = 3;
glyphname = E;
lastChange = "2016-09-07 20:15:27 +0000";
layers = (
{
anchors = (
{
name = bottom;
position = "{344, 0}";
},
{
name = ogonek;
position = "{474, 25}";
},
{
name = top;
position = "{344, 593}";
},
{
name = topleft;
position = "{101, 593}";
}
);
layerId = UUID0;
paths = (
{
closed = 1;
nodes = (
"313 -1 OFFCURVE",
"560 -7 OFFCURVE",
"560 65 CURVE SMOOTH",
"560 79 OFFCURVE",
"549 85 OFFCURVE",
"517 85 CURVE SMOOTH",
"429 85 OFFCURVE",
"351 64 OFFCURVE",
"252 64 CURVE SMOOTH",
"194 64 OFFCURVE",
"176 68 OFFCURVE",
"155 85 CURVE",
"155 150 LINE SMOOTH",
"155 193 OFFCURVE",
"150 264 OFFCURVE",
"166 305 CURVE",
"226 310 OFFCURVE",
"489 304 OFFCURVE",
"483 347 CURVE SMOOTH",
"482 360 OFFCURVE",
"476 366 OFFCURVE",
"470 372 CURVE",
"461 377 OFFCURVE",
"326 356 OFFCURVE",
"170 366 CURVE",
"170 543 LINE SMOOTH",
"170 546 OFFCURVE",
"169 551 OFFCURVE",
"166 557 CURVE",
"167 556 OFFCURVE",
"170 556 OFFCURVE",
"173 556 CURVE SMOOTH",
"486 564 LINE",
"533 546 LINE SMOOTH",
"539 544 OFFCURVE",
"543 549 OFFCURVE",
"543 556 CURVE SMOOTH",
"543 591 OFFCURVE",
"521 612 OFFCURVE",
"486 612 CURVE SMOOTH",
"142 612 OFFCURVE",
"114 646 OFFCURVE",
"114 581 CURVE SMOOTH",
"114 366 LINE",
"100 142 LINE",
"100 31 OFFCURVE",
"151 -1 OFFCURVE",
"258 -1 CURVE SMOOTH"
);
}
);
width = 606;
}
);
leftKerningGroup = H;
rightKerningGroup = E;
unicode = 0045;
},
{
color = 3;
glyphname = F;
lastChange = "2016-09-07 20:15:51 +0000";
layers = (
{
anchors = (
{
name = bottom;
position = "{272, 0}";
},
{
name = top;
position = "{272, 572}";
}
);
layerId = UUID0;
paths = (
{
closed = 1;
nodes = (
"249 97 OFFCURVE",
"232 144 OFFCURVE",
"219 260 CURVE",
"372 266 OFFCURVE",
"461 277 OFFCURVE",
"460 320 CURVE",
"450 330 OFFCURVE",
"440 329 OFFCURVE",
"212 310 CURVE",
"209 395 OFFCURVE",
"207 460 OFFCURVE",
"207 545 CURVE",
"418 574 OFFCURVE",
"509 484 OFFCURVE",
"628 484 CURVE",
"608 642 OFFCURVE",
"50 615 OFFCURVE",
"-20 540 CURVE",
"-18 530 OFFCURVE",
"-12 522 OFFCURVE",
"-5 517 CURVE",
"-1 517 OFFCURVE",
"6 519 OFFCURVE",
"17 526 CURVE",
"142 537 LINE",
"150 470 OFFCURVE",
"150 418 OFFCURVE",
"159 303 CURVE",
"117 297 OFFCURVE",
"111 297 OFFCURVE",
"65 292 CURVE",
"57 292 OFFCURVE",
"54 289 OFFCURVE",
"54 282 CURVE SMOOTH",
"54 240 OFFCURVE",
"97 248 OFFCURVE",
"169 259 CURVE",
"199 123 OFFCURVE",
"179 123 OFFCURVE",
"202 19 CURVE",
"201 12 OFFCURVE",
"216 17 OFFCURVE",
"254 12 CURVE"
);
}
);
width = 648;
}
);
leftKerningGroup = F;
rightKerningGroup = F;
unicode = 0046;
},
{
color = 3;
glyphname = G;
lastChange = "2016-09-07 20:15:58 +0000";
layers = (
{
anchors = (
{
name = bottom;
position = "{304, 0}";
},
{
name = top;
position = "{351, 511}";
}
);
layerId = UUID0;
paths = (
{
closed = 1;
nodes = (
"554 -69 OFFCURVE",
"583 -47 OFFCURVE",
"576 -31 CURVE",
"573 -15 OFFCURVE",
"551 -15 OFFCURVE",
"537 10 CURVE",
"543 241 LINE SMOOTH",
"544 266 OFFCURVE",
"516 288 OFFCURVE",
"494 288 CURVE SMOOTH",
"448 288 OFFCURVE",
"405 277 OFFCURVE",
"359 277 CURVE SMOOTH",
"331 277 OFFCURVE",
"306 298 OFFCURVE",
"280 298 CURVE SMOOTH",
"267 298 OFFCURVE",
"265 284 OFFCURVE",
"265 273 CURVE SMOOTH",
"265 255 OFFCURVE",
"285 231 OFFCURVE",
"304 231 CURVE SMOOTH",
"482 231 LINE",
"493 221 OFFCURVE",
"494 200 OFFCURVE",
"494 192 CURVE SMOOTH",
"494 64 OFFCURVE",
"354 63 OFFCURVE",
"239 63 CURVE SMOOTH",
"176 63 OFFCURVE",
"98 102 OFFCURVE",
"98 176 CURVE SMOOTH",
"98 332 OFFCURVE",
"294 467 OFFCURVE",
"435 467 CURVE SMOOTH",
"475 467 OFFCURVE",
"505 445 OFFCURVE",
"541 445 CURVE",
"541 496 OFFCURVE",
"497 527 OFFCURVE",
"445 522 CURVE SMOOTH",
"291 511 OFFCURVE",
"50 369 OFFCURVE",
"50 194 CURVE SMOOTH",
"50 86 OFFCURVE",
"121 6 OFFCURVE",
"230 6 CURVE SMOOTH",
"329 6 OFFCURVE",
"422 33 OFFCURVE",
"485 73 CURVE",
"482 44 LINE",
"482 10 OFFCURVE",
"486 -69 OFFCURVE",
"539 -69 CURVE SMOOTH"
);
}
);
width = 627;
}
);
leftKerningGroup = O;
rightKerningGroup = C;
unicode = 0047;
},
{
color = 3;
glyphname = H;
lastChange = "2016-09-07 20:16:10 +0000";
layers = (
{
anchors = (
{
name = bottom;
position = "{298, 0}";
},
{
name = center;
position = "{298, 347}";
},
{
name = top;
position = "{298, 657}";
},
{
name = topleft;
position = "{72, 637}";
}
);
layerId = UUID0;
paths = (
{
closed = 1;
nodes = (
"518 3 OFFCURVE",
"527 10 OFFCURVE",
"531 25 CURVE",
"520 49 OFFCURVE",
"522 57 OFFCURVE",
"504 235 CURVE SMOOTH",
"491 418 OFFCURVE",
"495 427 OFFCURVE",
"495 637 CURVE SMOOTH",
"497 665 OFFCURVE",
"492 676 OFFCURVE",
"476 676 CURVE SMOOTH",
"452 676 OFFCURVE",
"447 654 OFFCURVE",
"447 637 CURVE SMOOTH",
"443 415 LINE",
"266 329 OFFCURVE",
"188 294 OFFCURVE",
"150 285 CURVE",
"109 637 LINE",
"109 648 OFFCURVE",
"98 648 OFFCURVE",
"92 648 CURVE SMOOTH",
"84 648 OFFCURVE",
"76 648 OFFCURVE",
"72 637 CURVE",
"71 591 LINE SMOOTH",
"71 488 OFFCURVE",
"92 384 OFFCURVE",
"92 282 CURVE SMOOTH",
"92 259 OFFCURVE",
"73 259 OFFCURVE",
"50 249 CURVE",
"50 225 OFFCURVE",
"52 220 OFFCURVE",
"54 216 CURVE",
"70 215 OFFCURVE",
"86 221 OFFCURVE",
"102 229 CURVE",
"115 138 OFFCURVE",
"98 -1 OFFCURVE",
"150 10 CURVE SMOOTH",
"164 13 OFFCURVE",
"168 20 OFFCURVE",
"168 29 CURVE SMOOTH",
"166 242 LINE",
"166 242 OFFCURVE",
"292 288 OFFCURVE",
"440 358 CURVE",
"452 293 OFFCURVE",
"456 218 OFFCURVE",
"458 112 CURVE SMOOTH",
"459 42 OFFCURVE",
"469 -7 OFFCURVE",
"504 0 CURVE SMOOTH"
);
}
);
width = 581;
}
);
unicode = 0048;
},
{
color = 9;
glyphname = Hbar;
lastChange = "2016-09-07 20:13:06 +0000";
layers = (
{
components = (
{
name = H;
}
);
layerId = UUID0;
paths = (
{
closed = 1;
nodes = (
"50 513 OFFCURVE",
"312 541 OFFCURVE",
"399 545 CURVE SMOOTH",
"443 548 OFFCURVE",
"492 542 OFFCURVE",
"519 546 CURVE SMOOTH",
"532 548 OFFCURVE",
"536 555 OFFCURVE",
"535 569 CURVE SMOOTH",
"532 600 OFFCURVE",
"493 594 OFFCURVE",
"381 585 CURVE SMOOTH",
"317 581 OFFCURVE",
"62 563 OFFCURVE",
"-10 535 CURVE SMOOTH",
"-28 528 OFFCURVE",
"-29 519 OFFCURVE",
"-24 495 CURVE"
);
}
);
width = 525;
}
);
leftKerningGroup = Hbar;
rightKerningGroup = Hbar;
unicode = 0126;
},
{
color = 3;
glyphname = I;
lastChange = "2016-09-07 20:16:17 +0000";
layers = (
{
anchors = (
{
name = bottom;
position = "{166, 0}";
},
{
name = ogonek;
position = "{126, 2}";
},
{
name = top;
position = "{59, 537}";
},
{
name = topleft;
position = "{55, 562}";
}
);
layerId = UUID0;
paths = (
{
closed = 1;
nodes = (
"188 5 OFFCURVE",
"185 24 OFFCURVE",
"185 39 CURVE SMOOTH",
"185 131 OFFCURVE",
"110 631 OFFCURVE",
"50 546 CURVE",
"50 484 OFFCURVE",
"84 388 OFFCURVE",
"92 347 CURVE",
"107 252 OFFCURVE",
"116 133 OFFCURVE",
"129 37 CURVE SMOOTH",
"131 10 OFFCURVE",
"149 -6 OFFCURVE",
"166 0 CURVE"
);
}
);
width = 235;
}
);
leftKerningGroup = H;
rightKerningGroup = H;
unicode = 0049;
},
{
color = 3;
glyphname = J;
lastChange = "2016-09-07 20:16:21 +0000";
layers = (
{
anchors = (
{
name = bottom;
position = "{317, -1}";
},
{
name = top;
position = "{342, 693}";
}
);
layerId = UUID0;
paths = (
{
closed = 1;
nodes = (
"399 -1 OFFCURVE",
"446 104 OFFCURVE",
"421 293 CURVE SMOOTH",
"392 515 OFFCURVE",
"365 754 OFFCURVE",
"313 676 CURVE",
"367 310 LINE SMOOTH",
"394 130 OFFCURVE",
"352 56 OFFCURVE",
"283 56 CURVE SMOOTH",
"146 56 OFFCURVE",
"38 174 OFFCURVE",
"68 271 CURVE SMOOTH",
"75 290 OFFCURVE",
"83 298 OFFCURVE",
"68 304 CURVE",
"41 304 OFFCURVE",
"21 281 OFFCURVE",
"21 218 CURVE SMOOTH",
"21 102 OFFCURVE",
"90 0 OFFCURVE",
"287 -1 CURVE SMOOTH"
);
}
);
width = 488;
},
{
anchors = (
{
name = bottom;
position = "{317, -1}";
},
{
name = top;
position = "{342, 693}";
}
);
associatedMasterId = UUID0;
layerId = "C6CCE5FB-10AC-4E05-89C1-FE56918CFC3F";
name = "Sep 7 16, 22:44";
paths = (
{
closed = 1;
nodes = (
"419 -1 OFFCURVE",
"425 192 OFFCURVE",
"421 293 CURVE SMOOTH",
"413 495 OFFCURVE",
"365 754 OFFCURVE",
"313 676 CURVE",
"367 310 LINE SMOOTH",
"385 191 OFFCURVE",
"359 56 OFFCURVE",
"323 56 CURVE SMOOTH",
"208 56 OFFCURVE",
"32 174 OFFCURVE",
"68 271 CURVE SMOOTH",
"75 290 OFFCURVE",
"83 298 OFFCURVE",
"68 304 CURVE",
"41 304 OFFCURVE",
"21 281 OFFCURVE",
"21 218 CURVE SMOOTH",
"21 102 OFFCURVE",
"170 13 OFFCURVE",
"317 -1 CURVE"
);
}
);
width = 440;
}
);
leftKerningGroup = J;
rightKerningGroup = U;
unicode = 004A;
},
{
color = 3;
glyphname = K;
lastChange = "2016-09-07 20:16:31 +0000";
layers = (
{
anchors = (
{
name = bottom;
position = "{276, 0}";
},
{
name = top;
position = "{190, 564}";
}
);
layerId = UUID0;
paths = (
{
closed = 1;
nodes = (
"157 -2 OFFCURVE",
"155 18 OFFCURVE",
"136 251 CURVE",
"183 163 OFFCURVE",
"361 58 OFFCURVE",
"426 10 CURVE",
"462 -9 OFFCURVE",
"474 -7 OFFCURVE",
"482 8 CURVE SMOOTH",
"491 26 OFFCURVE",
"478 51 OFFCURVE",
"446 62 CURVE",
"343 129 OFFCURVE",
"227 198 OFFCURVE",
"153 300 CURVE",
"185 357 OFFCURVE",
"269 433 OFFCURVE",
"322 497 CURVE",
"357 535 OFFCURVE",
"395 567 OFFCURVE",
"379 586 CURVE",
"288 590 OFFCURVE",
"180 403 OFFCURVE",
"128 332 CURVE",
"118 415 OFFCURVE",
"120 494 OFFCURVE",
"106 534 CURVE",
"104 547 OFFCURVE",
"104 584 OFFCURVE",
"81 584 CURVE SMOOTH",
"68 584 OFFCURVE",
"60 564 OFFCURVE",
"60 559 CURVE SMOOTH",
"60 479 OFFCURVE",
"84 374 OFFCURVE",
"89 291 CURVE",
"98 112 OFFCURVE",
"97 -2 OFFCURVE",
"133 -2 CURVE SMOOTH"
);
}
);
width = 485;
}
);
leftKerningGroup = H;
rightKerningGroup = K;
unicode = 004B;
},
{
color = 3;
glyphname = L;
lastChange = "2016-09-07 22:17:01 +0000";
layers = (
{
anchors = (
{
name = bottom;
position = "{215, 0}";
},
{
name = center;
position = "{115, 309}";
},
{
name = top;
position = "{204, 485}";
},
{
name = topright;
position = "{213, 307}";
}
);
layerId = UUID0;
paths = (
{
closed = 1;
nodes = (
"270 -2 OFFCURVE",
"321 0 OFFCURVE",
"332 0 CURVE",
"355 5 OFFCURVE",
"370 10 OFFCURVE",
"370 33 CURVE SMOOTH",
"370 40 OFFCURVE",
"371 56 OFFCURVE",
"359 57 CURVE SMOOTH",
"163 74 LINE SMOOTH",
"133 77 OFFCURVE",
"115 116 OFFCURVE",
"115 142 CURVE",
"107 315 OFFCURVE",
"181 631 OFFCURVE",
"124 635 CURVE",
"83 656 OFFCURVE",
"67 335 OFFCURVE",
"60 158 CURVE",
"60 29 OFFCURVE",
"141 -2 OFFCURVE",
"262 -2 CURVE SMOOTH"
);
}
);
width = 370;
}
);
leftKerningGroup = H;
rightKerningGroup = L;
unicode = 004C;
},
{
color = 3;
glyphname = M;
lastChange = "2016-09-07 20:16:42 +0000";
layers = (
{
anchors = (
{
name = bottom;
position = "{308, 0}";
},
{
name = top;
position = "{308, 591}";
}
);
layerId = UUID0;
paths = (
{
closed = 1;
nodes = (
"535 -2 OFFCURVE",
"547 -3 OFFCURVE",
"547 19 CURVE SMOOTH",
"547 150 OFFCURVE",
"509 280 OFFCURVE",
"509 412 CURVE SMOOTH",
"509 463 OFFCURVE",
"511 505 OFFCURVE",
"511 555 CURVE SMOOTH",
"511 567 OFFCURVE",
"511 612 OFFCURVE",
"481 610 CURVE",
"427 622 OFFCURVE",
"448 412 OFFCURVE",
"291 420 CURVE",
"165 420 OFFCURVE",
"176 610 OFFCURVE",
"79 610 CURVE SMOOTH",
"66 610 OFFCURVE",
"60 604 OFFCURVE",
"60 591 CURVE SMOOTH",
"60 542 OFFCURVE",
"107 513 OFFCURVE",
"107 461 CURVE SMOOTH",
"107 375 OFFCURVE",
"97 292 OFFCURVE",
"97 206 CURVE SMOOTH",
"97 66 LINE",
"100 50 OFFCURVE",
"104 27 OFFCURVE",
"125 27 CURVE SMOOTH",
"137 27 OFFCURVE",
"157 33 OFFCURVE",
"157 48 CURVE SMOOTH",
"158 375 LINE SMOOTH",
"158 400 OFFCURVE",
"161 456 OFFCURVE",
"147 456 CURVE",
"191 389 OFFCURVE",
"237 355 OFFCURVE",
"281 355 CURVE SMOOTH",
"342 355 OFFCURVE",
"396 391 OFFCURVE",
"452 456 CURVE",
"453 430 OFFCURVE",
"457 329 OFFCURVE",
"460 291 CURVE SMOOTH",
"481 19 LINE",
"488 -2 OFFCURVE",
"503 -2 OFFCURVE",
"520 -2 CURVE SMOOTH"
);
}
);
width = 607;
}
);
leftKerningGroup = H;
rightKerningGroup = H;
unicode = 004D;
},
{
color = 3;
glyphname = N;
lastChange = "2016-09-07 20:16:51 +0000";
layers = (
{
anchors = (
{
name = bottom;
position = "{337, 0}";
},
{
name = top;
position = "{280, 515}";
}
);
layerId = UUID0;
paths = (
{
closed = 1;
nodes = (
"123 -1 OFFCURVE",
"127 47 OFFCURVE",
"127 64 CURVE SMOOTH",
"127 32 OFFCURVE",
"125 304 OFFCURVE",
"125 304 CURVE",
"173 204 OFFCURVE",
"244 10 OFFCURVE",
"427 10 CURVE SMOOTH",
"539 10 OFFCURVE",
"615 89 OFFCURVE",
"615 201 CURVE SMOOTH",
"615 268 OFFCURVE",
"545 498 OFFCURVE",
"482 498 CURVE SMOOTH",
"464 498 OFFCURVE",
"456 483 OFFCURVE",
"463 469 CURVE SMOOTH",
"503 386 OFFCURVE",
"558 311 OFFCURVE",
"558 209 CURVE SMOOTH",
"558 131 OFFCURVE",
"519 74 OFFCURVE",
"438 74 CURVE SMOOTH",
"236 70 OFFCURVE",
"148 393 OFFCURVE",
"117 534 CURVE",
"107 534 LINE SMOOTH",
"101 534 OFFCURVE",
"76 525 OFFCURVE",
"70 525 CURVE",
"70 521 LINE SMOOTH",
"70 488 OFFCURVE",
"80 458 OFFCURVE",
"80 423 CURVE SMOOTH",
"80 304 OFFCURVE",
"60 183 OFFCURVE",
"60 60 CURVE SMOOTH",
"60 41 OFFCURVE",
"67 -1 OFFCURVE",
"94 -1 CURVE SMOOTH"
);
}
);
width = 675;
}
);
leftKerningGroup = H;
rightKerningGroup = H;
unicode = 004E;
},
{
color = 8;
glyphname = Eng;
lastChange = "2016-09-07 20:13:06 +0000";
layers = (
{
background = {
paths = (
{
closed = 1;
nodes = (
"550 218 LINE",
"504 54 LINE",
"528 85 OFFCURVE",
"551 -156 OFFCURVE",
"551 -188 CURVE SMOOTH",
"551 -257 OFFCURVE",
"540 -424 OFFCURVE",
"443 -424 CURVE SMOOTH",
"400 -424 OFFCURVE",
"156 -361 OFFCURVE",
"156 -271 CURVE",
"188 -188 OFFCURVE",
"94 -220 OFFCURVE",
"109 -271 CURVE",
"109 -413 OFFCURVE",
"355 -488 OFFCURVE",
"457 -488 CURVE SMOOTH",
"585 -488 OFFCURVE",
"606 -287 OFFCURVE",
"606 -196 CURVE",
"592 -78 OFFCURVE",
"600 95 OFFCURVE",
"580 227 CURVE"
);
}
);
};
components = (
{
name = N;
}
);
layerId = UUID0;
paths = (
{
closed = 1;
nodes = (
"550 218 LINE",
"534 84 LINE",
"553 -1 OFFCURVE",
"551 -66 OFFCURVE",
"551 -188 CURVE SMOOTH",
"551 -322 OFFCURVE",
"540 -384 OFFCURVE",
"423 -384 CURVE SMOOTH",
"306 -384 OFFCURVE",
"246 -364 OFFCURVE",
"246 -284 CURVE",
"248 -251 OFFCURVE",
"194 -233 OFFCURVE",
"199 -284 CURVE SMOOTH",
"209 -384 OFFCURVE",
"311 -438 OFFCURVE",
"437 -438 CURVE SMOOTH",
"585 -438 OFFCURVE",
"617 -310 OFFCURVE",
"604 -166 CURVE SMOOTH",
"594 -37 OFFCURVE",
"600 95 OFFCURVE",
"580 227 CURVE"
);
}
);
width = 610;
}
);
leftKerningGroup = H;
rightKerningGroup = H;
unicode = 014A;
},
{
color = 3;
glyphname = O;
lastChange = "2016-09-07 20:26:14 +0000";
layers = (
{
anchors = (
{
name = bottom;
position = "{336, 0}";
},
{
name = center;
position = "{306, 217}";
},
{
name = ogonek;
position = "{464, 37}";
},
{
name = top;
position = "{248, 445}";
},
{
name = topleft;
position = "{101, 406}";
},
{
name = topright;
position = "{464, 445}";
}
);
layerId = UUID0;
paths = (
{
closed = 1;
nodes = (
"440 -1 OFFCURVE",
"607 48 OFFCURVE",
"607 176 CURVE SMOOTH",
"607 358 OFFCURVE",
"452 474 OFFCURVE",
"235 474 CURVE SMOOTH",
"118 474 OFFCURVE",
"50 381 OFFCURVE",
"50 272 CURVE SMOOTH",
"50 108 OFFCURVE",
"170 -1 OFFCURVE",
"338 -1 CURVE SMOOTH"
);
},
{
closed = 1;
nodes = (
"185 51 OFFCURVE",
"93 157 OFFCURVE",
"95 276 CURVE SMOOTH",
"96 358 OFFCURVE",
"124 426 OFFCURVE",
"222 426 CURVE SMOOTH",
"403 426 OFFCURVE",
"556 353 OFFCURVE",
"556 181 CURVE SMOOTH",
"556 79 OFFCURVE",
"432 51 OFFCURVE",
"319 51 CURVE SMOOTH"
);
}
);
width = 657;
}
);
leftKerningGroup = O;
rightKerningGroup = O;
unicode = 004F;
},
{
color = 3;
glyphname = OE;
lastChange = "2016-09-07 20:13:06 +0000";
layers = (
{
layerId = UUID0;
paths = (
{
closed = 1;
nodes = (
"561 1 LINE SMOOTH",
"641 1 OFFCURVE",
"833 4 OFFCURVE",
"833 52 CURVE SMOOTH",
"833 61 OFFCURVE",
"821 65 OFFCURVE",
"789 65 CURVE SMOOTH",
"700 65 OFFCURVE",
"612 51 OFFCURVE",
"523 51 CURVE SMOOTH",
"505 51 OFFCURVE",
"438 44 OFFCURVE",
"427 65 CURVE",
"427 229 LINE",
"476 234 OFFCURVE",
"796 230 OFFCURVE",
"796 305 CURVE",
"754 324 OFFCURVE",
"533 290 OFFCURVE",
"430 280 CURVE",
"430 415 LINE SMOOTH",
"430 416 OFFCURVE",
"429 420 OFFCURVE",
"427 426 CURVE",
"428 425 OFFCURVE",
"430 425 OFFCURVE",
"433 425 CURVE SMOOTH",
"760 432 LINE",
"807 417 LINE",
"810 417 OFFCURVE",
"815 422 OFFCURVE",
"815 425 CURVE SMOOTH",
"815 451 OFFCURVE",
"785 459 OFFCURVE",
"760 468 CURVE",
"411 464 OFFCURVE",
"384 491 OFFCURVE",
"384 443 CURVE SMOOTH",
"384 382 LINE",
"354 438 OFFCURVE",
"306 487 OFFCURVE",
"204 487 CURVE SMOOTH",
"93 487 OFFCURVE",
"11 389 OFFCURVE",
"19 275 CURVE",
"19 112 OFFCURVE",
"122 2 OFFCURVE",
"267 2 CURVE SMOOTH",
"335 11 OFFCURVE",
"368 23 OFFCURVE",
"388 52 CURVE",
"412 13 OFFCURVE",
"459 1 OFFCURVE",
"528 1 CURVE SMOOTH"
);
},
{
closed = 1;
nodes = (
"153 54 OFFCURVE",
"62 160 OFFCURVE",
"64 279 CURVE SMOOTH",
"64 335 OFFCURVE",
"85 436 OFFCURVE",
"214 436 CURVE SMOOTH",
"294 436 OFFCURVE",
"370 411 OFFCURVE",
"375 210 CURVE SMOOTH",
"378 117 OFFCURVE",
"342 54 OFFCURVE",
"248 54 CURVE SMOOTH"
);
}
);
width = 849;
},
{
associatedMasterId = UUID0;
layerId = "2C8C0EFF-23DF-47DF-B69F-3DD254AFD750";
name = "Sep 7 16, 22:49";
paths = (
{
closed = 1;
nodes = (
"561 1 LINE SMOOTH",
"641 1 OFFCURVE",
"833 4 OFFCURVE",
"833 52 CURVE SMOOTH",
"833 55 OFFCURVE",
"825 58 OFFCURVE",
"822 59 CURVE SMOOTH",
"819 60 OFFCURVE",
"800 65 OFFCURVE",
"795 65 CURVE SMOOTH",
"789 65 LINE SMOOTH",
"700 65 OFFCURVE",
"612 51 OFFCURVE",
"523 51 CURVE SMOOTH",
"505 51 OFFCURVE",
"438 44 OFFCURVE",
"427 65 CURVE",
"427 74 LINE SMOOTH",
"427 85 OFFCURVE",
"426 95 OFFCURVE",
"426 105 CURVE SMOOTH",
"426 115 LINE SMOOTH",
"426 149 OFFCURVE",
"424 198 OFFCURVE",
"437 229 CURVE",
"446 254 OFFCURVE",
"796 230 OFFCURVE",
"796 305 CURVE",
"788 305 OFFCURVE",
"746 302 OFFCURVE",
"738 302 CURVE",
"729 307 OFFCURVE",
"464 261 OFFCURVE",
"440 280 CURVE",
"440 415 LINE SMOOTH",
"440 416 OFFCURVE",
"439 420 OFFCURVE",
"437 426 CURVE",
"438 425 OFFCURVE",
"440 425 OFFCURVE",
"443 425 CURVE SMOOTH",
"760 432 LINE",
"807 417 LINE",
"810 417 OFFCURVE",
"815 422 OFFCURVE",
"815 425 CURVE SMOOTH",
"815 451 OFFCURVE",
"785 459 OFFCURVE",
"760 468 CURVE",
"411 464 OFFCURVE",
"384 491 OFFCURVE",
"384 443 CURVE SMOOTH",
"384 382 LINE",
"354 438 OFFCURVE",
"306 472 OFFCURVE",
"204 487 CURVE",
"93 479 OFFCURVE",
"11 389 OFFCURVE",
"19 275 CURVE",
"19 112 OFFCURVE",
"135 2 OFFCURVE",
"297 2 CURVE",
"348 9 OFFCURVE",
"373 19 OFFCURVE",
"388 42 CURVE",
"412 11 OFFCURVE",
"459 1 OFFCURVE",
"528 1 CURVE SMOOTH"
);
},
{
closed = 1;
nodes = (
"183 69 OFFCURVE",
"62 160 OFFCURVE",
"64 279 CURVE SMOOTH",
"64 331 OFFCURVE",
"83 397 OFFCURVE",
"164 426 CURVE",
"250 441 OFFCURVE",
"349 402 OFFCURVE",
"375 210 CURVE",
"375 117 OFFCURVE",
"340 54 OFFCURVE",
"288 54 CURVE"
);
}
);
width = 849;
}
);
leftKerningGroup = O;
rightKerningGroup = E;
unicode = 0152;
},
{
color = 3;
glyphname = P;
lastChange = "2016-09-07 20:13:06 +0000";
layers = (
{
anchors = (
{
name = bottom;
position = "{205, 0}";
},
{
name = top;
position = "{205, 563}";
}
);
layerId = UUID0;
paths = (
{
closed = 1;
nodes = (
"218 -6 OFFCURVE",
"220 23 OFFCURVE",
"220 44 CURVE SMOOTH",
"220 86 OFFCURVE",
"209 131 OFFCURVE",
"199 188 CURVE",
"313 188 OFFCURVE",
"501 239 OFFCURVE",
"501 370 CURVE SMOOTH",
"501 523 OFFCURVE",
"388 594 OFFCURVE",
"156 594 CURVE SMOOTH",
"79 594 OFFCURVE",
"20 573 OFFCURVE",
"20 534 CURVE SMOOTH",
"20 467 OFFCURVE",
"23 458 OFFCURVE",
"34 458 CURVE SMOOTH",
"58 458 OFFCURVE",
"43 523 OFFCURVE",
"65 533 CURVE",
"93 548 OFFCURVE",
"128 555 OFFCURVE",
"165 555 CURVE SMOOTH",
"363 555 OFFCURVE",
"446 475 OFFCURVE",
"446 376 CURVE SMOOTH",
"446 287 OFFCURVE",
"333 247 OFFCURVE",
"191 234 CURVE",
"175 316 OFFCURVE",
"183 405 OFFCURVE",
"172 479 CURVE",
"163 479 LINE SMOOTH",
"149 479 OFFCURVE",
"135 465 OFFCURVE",
"135 449 CURVE SMOOTH",
"149 146 OFFCURVE",
"167 107 OFFCURVE",
"191 0 CURVE"
);
}
);
width = 519;
}
);
leftKerningGroup = H;
rightKerningGroup = P;
unicode = 0050;
},
{
color = 3;
glyphname = Thorn;
lastChange = "2016-09-07 20:13:06 +0000";
layers = (
{
layerId = UUID0;
paths = (
{
closed = 1;
nodes = (
"120 78 LINE",
"166 26 OFFCURVE",
"237 2 OFFCURVE",
"305 2 CURVE SMOOTH",
"396 2 OFFCURVE",
"479 47 OFFCURVE",
"479 133 CURVE SMOOTH",
"479 261 OFFCURVE",
"344 347 OFFCURVE",
"229 347 CURVE SMOOTH",
"183 347 OFFCURVE",
"140 333 OFFCURVE",
"111 303 CURVE",
"114 597 LINE",
"102 605 OFFCURVE",
"66 623 OFFCURVE",
"57 608 CURVE",
"57 300 LINE",
"77 -135 LINE",
"85 -158 OFFCURVE",
"103 -161 OFFCURVE",
"132 -156 CURVE"
);
},
{
closed = 1;
nodes = (
"423 79 OFFCURVE",
"375 57 OFFCURVE",
"317 57 CURVE SMOOTH",
"227 57 OFFCURVE",
"112 111 OFFCURVE",
"112 192 CURVE SMOOTH",
"112 276 OFFCURVE",
"168 302 OFFCURVE",
"238 302 CURVE SMOOTH",
"302 302 OFFCURVE",
"423 249 OFFCURVE",
"423 131 CURVE SMOOTH"
);
}
);
width = 497;
}
);
leftKerningGroup = H;
rightKerningGroup = P;
unicode = 00DE;
},
{
color = 3;
glyphname = Q;
lastChange = "2016-09-07 20:13:06 +0000";
layers = (
{
anchors = (
{
name = bottom;
position = "{322, 0}";
},
{
name = top;
position = "{322, 493}";
}
);
layerId = UUID0;
paths = (
{
closed = 1;
nodes = (
"639 -50 OFFCURVE",
"574 -27 OFFCURVE",
"494 42 CURVE",
"561 78 OFFCURVE",
"616 128 OFFCURVE",
"616 189 CURVE SMOOTH",
"616 341 OFFCURVE",
"433 517 OFFCURVE",
"222 517 CURVE SMOOTH",
"115 517 OFFCURVE",
"24 414 OFFCURVE",
"24 273 CURVE SMOOTH",
"24 120 OFFCURVE",
"158 -13 OFFCURVE",
"324 1 CURVE SMOOTH",
"317 1 OFFCURVE",
"428 16 OFFCURVE",
"440 19 CURVE",
"550 -82 OFFCURVE",
"609 -136 OFFCURVE",
"654 -93 CURVE"
);
},
{
closed = 1;
nodes = (
"177 63 OFFCURVE",
"72 151 OFFCURVE",
"80 273 CURVE SMOOTH",
"80 380 OFFCURVE",
"135 463 OFFCURVE",
"234 463 CURVE SMOOTH",
"438 462 OFFCURVE",
"568 313 OFFCURVE",
"568 195 CURVE SMOOTH",
"568 144 OFFCURVE",
"512 108 OFFCURVE",
"439 89 CURVE",
"404 125 OFFCURVE",
"353 232 OFFCURVE",
"313 232 CURVE",
"275 206 OFFCURVE",
"312 153 OFFCURVE",
"384 74 CURVE",
"344 67 OFFCURVE",
"326 65 OFFCURVE",
"297 65 CURVE SMOOTH"
);
}
);
width = 643;
},
{
anchors = (
{
name = bottom;
position = "{322, 0}";
},
{
name = top;
position = "{322, 493}";
}
);
associatedMasterId = UUID0;
layerId = "51710588-9095-4CF4-89EA-AAB50FDB0A96";
name = "Sep 7 16, 22:53";
paths = (
{
closed = 1;
nodes = (
"639 -50 OFFCURVE",
"574 -27 OFFCURVE",
"494 42 CURVE",
"561 78 OFFCURVE",
"616 128 OFFCURVE",
"616 199 CURVE SMOOTH",
"616 330 OFFCURVE",
"382 537 OFFCURVE",
"252 537 CURVE SMOOTH",
"123 537 OFFCURVE",
"24 412 OFFCURVE",
"24 287 CURVE SMOOTH",
"24 273 LINE SMOOTH",
"24 120 OFFCURVE",
"158 -13 OFFCURVE",
"324 1 CURVE SMOOTH",
"317 1 OFFCURVE",
"428 16 OFFCURVE",
"440 19 CURVE",
"550 -82 OFFCURVE",
"609 -136 OFFCURVE",
"654 -93 CURVE"
);
},
{
closed = 1;
nodes = (
"177 63 OFFCURVE",
"72 151 OFFCURVE",
"80 273 CURVE",
"80 355 OFFCURVE",
"96 438 OFFCURVE",
"185 470 CURVE",
"271 491 OFFCURVE",
"416 471 OFFCURVE",
"346 335 CURVE",
"359 328 OFFCURVE",
"366 317 OFFCURVE",
"381 320 CURVE",
"397 345 OFFCURVE",
"408 374 OFFCURVE",
"409 405 CURVE",
"422 405 OFFCURVE",
"472 352 OFFCURVE",
"493 330 CURVE SMOOTH",
"528 292 OFFCURVE",
"568 239 OFFCURVE",
"568 185 CURVE SMOOTH",
"568 144 OFFCURVE",
"512 108 OFFCURVE",
"439 89 CURVE",
"404 125 OFFCURVE",
"353 232 OFFCURVE",
"313 232 CURVE",
"275 206 OFFCURVE",
"312 153 OFFCURVE",
"384 74 CURVE",
"344 67 OFFCURVE",
"326 65 OFFCURVE",
"297 65 CURVE SMOOTH"
);
}
);
width = 643;
}
);
leftKerningGroup = O;
rightKerningGroup = O;
unicode = 0051;
},
{
color = 3;
glyphname = R;
lastChange = "2016-09-07 20:17:13 +0000";
layers = (
{
anchors = (
{
name = bottom;
position = "{290, 0}";
},
{
name = top;
position = "{232, 593}";
}
);
layerId = UUID0;
paths = (
{
closed = 1;
nodes = (
"598 4 OFFCURVE",
"404 17 OFFCURVE",
"206 285 CURVE",
"287 313 OFFCURVE",
"525 330 OFFCURVE",
"525 445 CURVE SMOOTH",
"525 575 OFFCURVE",
"356 624 OFFCURVE",
"250 624 CURVE SMOOTH",
"128 624 OFFCURVE",
"19 615 OFFCURVE",
"19 524 CURVE SMOOTH",
"19 506 OFFCURVE",
"36 470 OFFCURVE",
"58 470 CURVE",
"58 577 OFFCURVE",
"146 567 OFFCURVE",
"211 567 CURVE SMOOTH",
"394 567 OFFCURVE",
"470 500 OFFCURVE",
"470 464 CURVE SMOOTH",
"470 383 OFFCURVE",
"245 345 OFFCURVE",
"189 342 CURVE",
"180 434 OFFCURVE",
"178 520 OFFCURVE",
"127 481 CURVE",
"96 372 OFFCURVE",
"196 -22 OFFCURVE",
"206 7 CURVE",
"251 20 OFFCURVE",
"212 100 OFFCURVE",
"193 217 CURVE",
"280 122 OFFCURVE",
"500 -86 OFFCURVE",
"544 -34 CURVE"
);
}
);
width = 553;
}
);
leftKerningGroup = R;
rightKerningGroup = R;
unicode = 0052;
},
{
color = 3;
glyphname = S;
lastChange = "2016-09-07 20:17:33 +0000";
layers = (
{
anchors = (
{
name = bottom;
position = "{285, 30}";
},
{
name = top;
position = "{325, 575}";
}
);
layerId = UUID0;
paths = (
{
closed = 1;
nodes = (
"217 38 OFFCURVE",
"92 105 OFFCURVE",
"92 240 CURVE",
"63 240 OFFCURVE",
"40 210 OFFCURVE",
"40 174 CURVE SMOOTH",
"69 45 OFFCURVE",
"235 -18 OFFCURVE",
"379 -18 CURVE SMOOTH",
"498 -18 OFFCURVE",
"602 29 OFFCURVE",
"602 122 CURVE SMOOTH",
"602 245 OFFCURVE",
"466 300 OFFCURVE",
"345 347 CURVE SMOOTH",
"247 385 OFFCURVE",
"159 419 OFFCURVE",
"158 479 CURVE SMOOTH",
"157 530 OFFCURVE",
"213 557 OFFCURVE",
"292 556 CURVE SMOOTH",
"422 554 OFFCURVE",
"471 462 OFFCURVE",
"525 492 CURVE",
"525 562 OFFCURVE",
"422 611 OFFCURVE",
"300 611 CURVE SMOOTH",
"197 611 OFFCURVE",
"111 570 OFFCURVE",
"111 476 CURVE SMOOTH",
"111 387 OFFCURVE",
"206 342 OFFCURVE",
"306 302 CURVE SMOOTH",
"417 258 OFFCURVE",
"534 220 OFFCURVE",
"538 132 CURVE SMOOTH",
"541 69 OFFCURVE",
"476 38 OFFCURVE",
"366 38 CURVE SMOOTH"
);
}
);
width = 642;
},
{
anchors = (
{
name = bottom;
position = "{314, 0}";
},
{
name = top;
position = "{304, 575}";
}
);
associatedMasterId = UUID0;
layerId = "8874D64A-C9E0-43D3-AA2E-C86DEDBA7E88";
name = "Sep 7 16, 22:54";
paths = (
{
closed = 1;
nodes = (
"201 56 OFFCURVE",
"71 112 OFFCURVE",
"71 240 CURVE",
"42 240 OFFCURVE",
"19 198 OFFCURVE",
"19 174 CURVE",
"74 -63 OFFCURVE",
"573 -76 OFFCURVE",
"601 112 CURVE SMOOTH",
"624 299 OFFCURVE",
"178 338 OFFCURVE",
"177 479 CURVE SMOOTH",
"176 550 OFFCURVE",
"262 557 OFFCURVE",
"351 555 CURVE SMOOTH",
"431 553 OFFCURVE",
"490 462 OFFCURVE",
"544 492 CURVE",
"544 556 OFFCURVE",
"446 601 OFFCURVE",
"329 601 CURVE SMOOTH",
"252 601 OFFCURVE",
"130 573 OFFCURVE",
"130 476 CURVE SMOOTH",
"130 376 OFFCURVE",
"195 361 OFFCURVE",
"497 197 CURVE",
"536 174 OFFCURVE",
"537 160 OFFCURVE",
"537 122 CURVE",
"540 44 OFFCURVE",
"410 48 OFFCURVE",
"355 48 CURVE"
);
}
);
width = 628;
}
);
leftKerningGroup = S;
rightKerningGroup = S;
unicode = 0053;
},
{
color = 4;
glyphname = Germandbls;
lastChange = "2016-09-07 22:09:49 +0000";
layers = (
{
background = {
paths = (
{
closed = 1;
nodes = (
"432 0 OFFCURVE",
"485 46 OFFCURVE",
"485 117 CURVE SMOOTH",
"485 213 OFFCURVE",
"436 268 OFFCURVE",
"359 292 CURVE SMOOTH",
"293 313 OFFCURVE",
"288 355 OFFCURVE",
"289 430 CURVE SMOOTH",
"290 479 OFFCURVE",
"339 548 OFFCURVE",
"389 548 CURVE",
"381 599 LINE",
"314 599 OFFCURVE",
"234 526 OFFCURVE",
"232 425 CURVE SMOOTH",
"231 332 OFFCURVE",
"256 277 OFFCURVE",
"319 254 CURVE SMOOTH",
"391 227 OFFCURVE",
"419 186 OFFCURVE",
"419 123 CURVE SMOOTH",
"419 75 OFFCURVE",
"403 56 OFFCURVE",
"370 56 CURVE SMOOTH",
"341 56 OFFCURVE",
"323 87 OFFCURVE",
"304 87 CURVE SMOOTH",
"292 87 OFFCURVE",
"286 86 OFFCURVE",
"276 78 CURVE",
"295 -3 OFFCURVE",
"356 0 OFFCURVE",
"394 0 CURVE SMOOTH"
);
}
);
};
layerId = UUID0;
paths = (
{
closed = 1;
nodes = (
"298 322 OFFCURVE",
"280 369 OFFCURVE",
"281 420 CURVE SMOOTH",
"282 487 OFFCURVE",
"332 534 OFFCURVE",
"380 543 CURVE SMOOTH",
"394 545 OFFCURVE",
"399 552 OFFCURVE",
"398 563 CURVE SMOOTH",
"390 648 OFFCURVE",
"327 704 OFFCURVE",
"246 704 CURVE SMOOTH",
"48 704 OFFCURVE",
"41 436 OFFCURVE",
"54 318 CURVE SMOOTH",
"68 161 OFFCURVE",
"146 -1 OFFCURVE",
"215 -1 CURVE SMOOTH",
"225 -1 OFFCURVE",
"232 3 OFFCURVE",
"232 19 CURVE SMOOTH",
"232 56 OFFCURVE",
"102 147 OFFCURVE",
"102 374 CURVE SMOOTH",
"102 535 OFFCURVE",
"145 653 OFFCURVE",
"241 653 CURVE SMOOTH",
"290 653 OFFCURVE",
"315 634 OFFCURVE",
"343 579 CURVE",
"271 559 OFFCURVE",
"231 484 OFFCURVE",
"231 411 CURVE SMOOTH",
"231 348 OFFCURVE",
"258 286 OFFCURVE",
"334 261 CURVE SMOOTH",
"393 238 OFFCURVE",
"416 186 OFFCURVE",
"416 123 CURVE SMOOTH",
"416 68 OFFCURVE",
"397 46 OFFCURVE",
"350 46 CURVE SMOOTH",
"302 46 OFFCURVE",
"303 87 OFFCURVE",
"284 87 CURVE SMOOTH",
"272 87 OFFCURVE",
"266 86 OFFCURVE",
"256 78 CURVE",
"269 16 OFFCURVE",
"309 0 OFFCURVE",
"352 0 CURVE SMOOTH",
"415 0 OFFCURVE",
"465 46 OFFCURVE",
"465 137 CURVE SMOOTH",
"465 208 OFFCURVE",
"424 276 OFFCURVE",
"367 300 CURVE SMOOTH"
);
}
);
width = 515;
}
);
leftKerningGroup = H;
leftMetricsKey = O;
rightKerningGroup = Germandbls;
rightMetricsKey = O;
unicode = 1E9E;
},
{
color = 4;
glyphname = Schwa;
lastChange = "2016-09-07 22:09:49 +0000";
layers = (
{
background = {
paths = (
{
closed = 1;
nodes = (
"491 -381 OFFCURVE",
"507 -366 OFFCURVE",
"518 -352 CURVE",
"526 -299 OFFCURVE",
"528 -272 OFFCURVE",
"528 -224 CURVE SMOOTH",
"528 -93 OFFCURVE",
"494 380 OFFCURVE",
"263 380 CURVE SMOOTH",
"46 380 OFFCURVE",
"53 141 OFFCURVE",
"41 -25 CURVE",
"42 -52 LINE",
"20 -55 OFFCURVE",
"10 -58 OFFCURVE",
"12 -75 CURVE SMOOTH",
"14 -91 OFFCURVE",
"20 -99 OFFCURVE",
"50 -101 CURVE",
"38 -251 OFFCURVE",
"66 -424 OFFCURVE",
"124 -370 CURVE",
"124 -361 LINE SMOOTH",
"124 -289 OFFCURVE",
"95 -215 OFFCURVE",
"95 -138 CURVE",
"93 -99 LINE",
"105 -99 OFFCURVE",
"137 -99 OFFCURVE",
"228 -99 CURVE SMOOTH",
"306 -99 OFFCURVE",
"364 -103 OFFCURVE",
"460 -102 CURVE",
"471 -140 OFFCURVE",
"472 -185 OFFCURVE",
"472 -221 CURVE SMOOTH",
"472 -267 OFFCURVE",
"451 -313 OFFCURVE",
"451 -358 CURVE SMOOTH",
"451 -372 OFFCURVE",
"455 -381 OFFCURVE",
"472 -381 CURVE SMOOTH"
);
},
{
closed = 1;
nodes = (
"85 -52 LINE",
"85 54 OFFCURVE",
"80 333 OFFCURVE",
"241 333 CURVE SMOOTH",
"381 333 OFFCURVE",
"434 156 OFFCURVE",
"456 -63 CURVE"
);
}
);
};
layerId = UUID0;
paths = (
{
closed = 1;
nodes = (
"228 693 OFFCURVE",
"125 670 OFFCURVE",
"70 595 CURVE",
"152 610 OFFCURVE",
"194 640 OFFCURVE",
"284 640 CURVE SMOOTH",
"400 640 OFFCURVE",
"476 518 OFFCURVE",
"476 341 CURVE SMOOTH",
"476 184 OFFCURVE",
"378 50 OFFCURVE",
"253 42 CURVE SMOOTH",
"177 37 OFFCURVE",
"116 82 OFFCURVE",
"116 180 CURVE SMOOTH",
"116 289 OFFCURVE",
"222 350 OFFCURVE",
"340 350 CURVE SMOOTH",
"426 350 OFFCURVE",
"429 345 OFFCURVE",
"429 361 CURVE SMOOTH",
"429 396 OFFCURVE",
"393 404 OFFCURVE",
"341 404 CURVE SMOOTH",
"211 404 OFFCURVE",
"71 320 OFFCURVE",
"71 183 CURVE",
"67 57 OFFCURVE",
"137 -3 OFFCURVE",
"247 -3 CURVE SMOOTH",
"431 -3 OFFCURVE",
"530 159 OFFCURVE",
"530 340 CURVE SMOOTH",
"530 557 OFFCURVE",
"424 693 OFFCURVE",
"298 693 CURVE SMOOTH"
);
}
);
width = 580;
}
);
leftKerningGroup = O;
rightKerningGroup = O;
rightMetricsKey = O;
unicode = 018F;
},
{
color = 3;
glyphname = T;
lastChange = "2016-09-07 20:18:01 +0000";
layers = (
{
anchors = (
{
name = bottom;
position = "{349, 19}";
},
{
name = center;
position = "{296, 310}";
},
{
name = top;
position = "{271, 571}";
}
);
layerId = UUID0;
paths = (
{
closed = 1;
nodes = (
"360 -1 OFFCURVE",
"370 -4 OFFCURVE",
"370 19 CURVE SMOOTH",
"370 50 OFFCURVE",
"346 80 OFFCURVE",
"342 112 CURVE SMOOTH",
"323 245 OFFCURVE",
"299 427 OFFCURVE",
"299 558 CURVE",
"377 550 OFFCURVE",
"457 531 OFFCURVE",
"530 526 CURVE",
"546 526 OFFCURVE",
"548 532 OFFCURVE",
"548 545 CURVE SMOOTH",
"548 619 OFFCURVE",
"94 611 OFFCURVE",
"25 611 CURVE",
"25 586 OFFCURVE",
"29 565 OFFCURVE",
"50 563 CURVE",
"110 560 OFFCURVE",
"178 556 OFFCURVE",
"241 557 CURVE",
"254 407 OFFCURVE",
"262 273 OFFCURVE",
"289 131 CURVE",
"296 95 OFFCURVE",
"296 -1 OFFCURVE",
"349 -1 CURVE SMOOTH"
);
}
);
width = 573;
}
);
leftKerningGroup = T;
rightKerningGroup = T;
unicode = 0054;
},
{
color = 3;
glyphname = U;
lastChange = "2016-09-07 20:18:08 +0000";
layers = (
{
anchors = (
{
name = bottom;
position = "{281, 0}";
},
{
name = ogonek;
position = "{535, 31}";
},
{
name = top;
position = "{266, 517}";
},
{
name = topright;
position = "{506, 534}";
}
);
layerId = UUID0;
paths = (
{
closed = 1;
nodes = (
"385 -1 OFFCURVE",
"486 58 OFFCURVE",
"509 151 CURVE",
"538 81 OFFCURVE",
"561 28 OFFCURVE",
"568 28 CURVE SMOOTH",
"642 28 OFFCURVE",
"522 180 OFFCURVE",
"506 347 CURVE SMOOTH",
"491 510 OFFCURVE",
"486 535 OFFCURVE",
"465 535 CURVE SMOOTH",
"434 535 OFFCURVE",
"420 518 OFFCURVE",
"436 443 CURVE SMOOTH",
"454 359 OFFCURVE",
"459 340 OFFCURVE",
"474 221 CURVE SMOOTH",
"474 127 OFFCURVE",
"401 45 OFFCURVE",
"299 45 CURVE SMOOTH",
"181 45 OFFCURVE",
"116 173 OFFCURVE",
"108 367 CURVE SMOOTH",
"105 439 OFFCURVE",
"105 487 OFFCURVE",
"129 487 CURVE SMOOTH",
"160 511 OFFCURVE",
"158 544 OFFCURVE",
"129 544 CURVE SMOOTH",
"59 544 OFFCURVE",
"57 465 OFFCURVE",
"61 381 CURVE SMOOTH",
"70 191 OFFCURVE",
"114 -1 OFFCURVE",
"286 -1 CURVE SMOOTH"
);
}
);
width = 632;
},
{
anchors = (
{
name = bottom;
position = "{247, 0}";
},
{
name = ogonek;
position = "{501, 31}";
},
{
name = top;
position = "{232, 517}";
},
{
name = topright;
position = "{472, 534}";
}
);
associatedMasterId = UUID0;
layerId = "E4D1B2B5-1165-41AE-AFB3-C048C734C9B5";
name = "Sep 7 16, 22:59";
paths = (
{
closed = 1;
nodes = (
"324 -1 OFFCURVE",
"418 104 OFFCURVE",
"455 104 CURVE SMOOTH",
"488 104 OFFCURVE",
"485 28 OFFCURVE",
"534 28 CURVE SMOOTH",
"608 28 OFFCURVE",
"476 229 OFFCURVE",
"472 347 CURVE",
"479 508 OFFCURVE",
"416 625 OFFCURVE",
"402 443 CURVE",
"402 356 OFFCURVE",
"425 335 OFFCURVE",
"440 225 CURVE",
"440 221 LINE SMOOTH",
"440 138 OFFCURVE",
"311 61 OFFCURVE",
"235 65 CURVE SMOOTH",
"92 77 OFFCURVE",
"74 301 OFFCURVE",
"74 398 CURVE SMOOTH",
"74 407 OFFCURVE",
"71 487 OFFCURVE",
"95 487 CURVE",
"126 511 OFFCURVE",
"124 544 OFFCURVE",
"95 544 CURVE SMOOTH",
"25 544 OFFCURVE",
"27 415 OFFCURVE",
"27 381 CURVE SMOOTH",
"27 261 OFFCURVE",
"66 -1 OFFCURVE",
"232 -1 CURVE SMOOTH"
);
}
);
width = 572;
}
);
leftKerningGroup = U;
rightKerningGroup = U;
unicode = 0055;
},
{
color = 3;
glyphname = V;
lastChange = "2016-09-07 20:18:39 +0000";
layers = (
{
anchors = (
{
name = bottom;
position = "{242, 0}";
},
{
name = top;
position = "{261, 469}";
}
);
layerId = UUID0;
paths = (
{
closed = 1;
nodes = (
"350 40 OFFCURVE",
"474 458 OFFCURVE",
"474 583 CURVE SMOOTH",
"474 618 OFFCURVE",
"446 619 OFFCURVE",
"430 618 CURVE",
"417 430 OFFCURVE",
"299 92 OFFCURVE",
"255 50 CURVE",
"167 239 OFFCURVE",
"54 588 OFFCURVE",
"21 608 CURVE SMOOTH",
"11 614 OFFCURVE",
"-1 608 OFFCURVE",
"-1 592 CURVE SMOOTH",
"-1 539 OFFCURVE",
"119 234 OFFCURVE",
"147 168 CURVE SMOOTH",
"188 79 OFFCURVE",
"199 56 OFFCURVE",
"235 0 CURVE",
"242 -4 OFFCURVE",
"249 -3 OFFCURVE",
"256 -1 CURVE"
);
}
);
width = 470;
}
);
leftKerningGroup = V;
rightKerningGroup = V;
unicode = 0056;
},
{
color = 3;
glyphname = W;
lastChange = "2016-09-07 20:19:02 +0000";
layers = (
{
anchors = (
{
name = bottom;
position = "{364, 0}";
},
{
name = top;
position = "{336, 424}";
}
);
layerId = UUID0;
paths = (
{
closed = 1;
nodes = (
"643 0 OFFCURVE",
"725 70 OFFCURVE",
"725 188 CURVE SMOOTH",
"725 445 OFFCURVE",
"627 634 OFFCURVE",
"593 560 CURVE",
"593 493 OFFCURVE",
"669 437 OFFCURVE",
"669 177 CURVE SMOOTH",
"669 114 OFFCURVE",
"641 64 OFFCURVE",
"542 64 CURVE SMOOTH",
"435 64 OFFCURVE",
"382 209 OFFCURVE",
"369 301 CURVE",
"360 325 OFFCURVE",
"328 325 OFFCURVE",
"322 311 CURVE",
"322 281 OFFCURVE",
"329 200 OFFCURVE",
"312 159 CURVE SMOOTH",
"283 100 OFFCURVE",
"252 74 OFFCURVE",
"204 74 CURVE SMOOTH",
"129 74 OFFCURVE",
"108 244 OFFCURVE",
"108 448 CURVE SMOOTH",
"108 516 OFFCURVE",
"100 568 OFFCURVE",
"88 568 CURVE SMOOTH",
"55 568 OFFCURVE",
"50 513 OFFCURVE",
"50 455 CURVE SMOOTH",
"50 246 OFFCURVE",
"87 17 OFFCURVE",
"196 17 CURVE SMOOTH",
"261 17 OFFCURVE",
"329 61 OFFCURVE",
"357 173 CURVE",
"400 74 OFFCURVE",
"464 0 OFFCURVE",
"553 0 CURVE SMOOTH"
);
}
);
width = 775;
}
);
leftKerningGroup = V;
rightKerningGroup = V;
unicode = 0057;
},
{
color = 3;
glyphname = X;
lastChange = "2016-09-07 20:26:01 +0000";
layers = (
{
anchors = (
{
name = bottom;
position = "{251, 0}";
},
{
name = top;
position = "{282, 484}";
}
);
layerId = UUID0;
paths = (
{
closed = 1;
nodes = (
"85 -55 OFFCURVE",
"104 18 OFFCURVE",
"129 54 CURVE SMOOTH",
"159 97 OFFCURVE",
"198 160 OFFCURVE",
"251 221 CURVE",
"310 153 OFFCURVE",
"359 55 OFFCURVE",
"427 2 CURVE",
"544 -29 OFFCURVE",
"334 162 OFFCURVE",
"298 260 CURVE",
"358 335 OFFCURVE",
"470 421 OFFCURVE",
"551 471 CURVE",
"541 522 OFFCURVE",
"454 466 OFFCURVE",
"435 454 CURVE SMOOTH",
"352 402 OFFCURVE",
"326 383 OFFCURVE",
"263 325 CURVE",
"243 344 OFFCURVE",
"153 525 OFFCURVE",
"129 525 CURVE SMOOTH",
"112 525 OFFCURVE",
"108 518 OFFCURVE",
"108 502 CURVE SMOOTH",
"108 434 OFFCURVE",
"172 354 OFFCURVE",
"222 271 CURVE",
"160 192 OFFCURVE",
"45 64 OFFCURVE",
"45 -30 CURVE SMOOTH",
"45 -49 OFFCURVE",
"47 -61 OFFCURVE",
"63 -61 CURVE"
);
}
);
width = 576;
}
);
leftKerningGroup = X;
rightKerningGroup = X;
unicode = 0058;
},
{
color = 3;
glyphname = Y;
lastChange = "2016-09-07 20:25:55 +0000";
layers = (
{
anchors = (
{
name = bottom;
position = "{415, 77}";
},
{
name = top;
position = "{279, 517}";
},
{
name = topleft;
position = "{112, 536}";
}
);
layerId = UUID0;
paths = (
{
closed = 1;
nodes = (
"293 231 LINE",
"191 336 OFFCURVE",
"150 423 OFFCURVE",
"55 603 CURVE",
"54 603 OFFCURVE",
"17 599 OFFCURVE",
"15 600 CURVE",
"81 410 OFFCURVE",
"154 321 OFFCURVE",
"270 179 CURVE"
);
},
{
closed = 1;
nodes = (
"333 462 OFFCURVE",
"210 270 OFFCURVE",
"234 -16 CURVE SMOOTH",
"235 -29 OFFCURVE",
"231 -37 OFFCURVE",
"249 -37 CURVE SMOOTH",
"265 -37 OFFCURVE",
"280 -32 OFFCURVE",
"279 -16 CURVE SMOOTH",
"265 300 OFFCURVE",
"369 429 OFFCURVE",
"442 575 CURVE SMOOTH",
"454 599 OFFCURVE",
"395 586 OFFCURVE",
"395 575 CURVE"
);
}
);
width = 459;
},
{
anchors = (
{
name = bottom;
position = "{338, 77}";
},
{
name = top;
position = "{202, 517}";
},
{
name = topleft;
position = "{35, 536}";
}
);
associatedMasterId = UUID0;
layerId = "50F8E9B4-7C64-4788-B1FA-5321B8ACEC9A";
name = "Sep 7 16, 23:05";
paths = (
{
closed = 1;
nodes = (
"294 331 LINE",
"148 359 OFFCURVE",
"72 427 OFFCURVE",
"48 573 CURVE",
"47 573 OFFCURVE",
"20 569 OFFCURVE",
"18 570 CURVE",
"-3 371 OFFCURVE",
"161 316 OFFCURVE",
"267 272 CURVE"
);
},
{
closed = 1;
nodes = (
"325 454 OFFCURVE",
"197 96 OFFCURVE",
"197 -14 CURVE SMOOTH",
"197 -66 LINE",
"205 -82 OFFCURVE",
"212 -87 OFFCURVE",
"227 -87 CURVE SMOOTH",
"239 -87 OFFCURVE",
"246 -82 OFFCURVE",
"254 -66 CURVE",
"219 167 OFFCURVE",
"385 341 OFFCURVE",
"385 525 CURVE SMOOTH",
"385 549 OFFCURVE",
"338 536 OFFCURVE",
"338 525 CURVE"
);
}
);
width = 403;
}
);
leftKerningGroup = Y;
rightKerningGroup = Y;
unicode = 0059;
},
{
color = 3;
glyphname = Z;
lastChange = "2016-09-07 20:26:12 +0000";
layers = (
{
anchors = (
{
name = bottom;
position = "{274, 0}";
},
{
name = top;
position = "{223, 598}";
}
);
layerId = UUID0;
paths = (
{
closed = 1;
nodes = (
"349 -1 OFFCURVE",
"461 17 OFFCURVE",
"502 28 CURVE SMOOTH",
"523 34 OFFCURVE",
"523 43 OFFCURVE",
"523 59 CURVE SMOOTH",
"523 74 OFFCURVE",
"519 84 OFFCURVE",
"502 84 CURVE SMOOTH",
"422 84 OFFCURVE",
"365 56 OFFCURVE",
"249 56 CURVE SMOOTH",
"229 56 OFFCURVE",
"215 60 OFFCURVE",
"215 72 CURVE SMOOTH",
"215 92 OFFCURVE",
"285 186 OFFCURVE",
"339 278 CURVE",
"404 278 OFFCURVE",
"425 272 OFFCURVE",
"433 272 CURVE SMOOTH",
"464 272 OFFCURVE",
"487 272 OFFCURVE",
"505 300 CURVE",
"495 330 OFFCURVE",
"448 335 OFFCURVE",
"366 332 CURVE",
"494 506 OFFCURVE",
"391 619 OFFCURVE",
"209 619 CURVE SMOOTH",
"109 619 OFFCURVE",
"45 585 OFFCURVE",
"45 549 CURVE SMOOTH",
"45 541 OFFCURVE",
"49 534 OFFCURVE",
"54 534 CURVE SMOOTH",
"85 534 OFFCURVE",
"122 572 OFFCURVE",
"225 572 CURVE SMOOTH",
"373 572 OFFCURVE",
"433 487 OFFCURVE",
"315 330 CURVE",
"227 321 OFFCURVE",
"204 318 OFFCURVE",
"119 300 CURVE",
"99 292 OFFCURVE",
"94 270 OFFCURVE",
"94 251 CURVE",
"164 259 OFFCURVE",
"226 269 OFFCURVE",
"285 277 CURVE",
"251 227 OFFCURVE",
"156 91 OFFCURVE",
"156 50 CURVE SMOOTH",
"156 28 OFFCURVE",
"172 9 OFFCURVE",
"204 0 CURVE",
"269 -1 LINE SMOOTH"
);
}
);
width = 568;
}
);
leftKerningGroup = Z;
rightKerningGroup = Z;
unicode = 005A;
},
{
color = 3;
glyphname = R.alt;
lastChange = "2016-09-07 20:13:06 +0000";
layers = (
{
layerId = UUID0;
paths = (
{
closed = 1;
nodes = (
"598 4 OFFCURVE",
"394 26 OFFCURVE",
"196 294 CURVE",
"383 294 OFFCURVE",
"525 340 OFFCURVE",
"525 445 CURVE SMOOTH",
"525 571 OFFCURVE",
"353 637 OFFCURVE",
"202 637 CURVE SMOOTH",
"83 637 OFFCURVE",
"-23 596 OFFCURVE",
"-23 512 CURVE SMOOTH",
"-23 484 OFFCURVE",
"-4 461 OFFCURVE",
"28 470 CURVE",
"19 551 OFFCURVE",
"111 584 OFFCURVE",
"213 584 CURVE SMOOTH",
"334 584 OFFCURVE",
"470 537 OFFCURVE",
"470 464 CURVE SMOOTH",
"470 383 OFFCURVE",
"394 354 OFFCURVE",
"188 342 CURVE",
"181 442 OFFCURVE",
"177 523 OFFCURVE",
"127 481 CURVE",
"126 372 OFFCURVE",
"176 -22 OFFCURVE",
"186 7 CURVE",
"251 20 OFFCURVE",
"202 90 OFFCURVE",
"193 217 CURVE",
"280 122 OFFCURVE",
"500 -86 OFFCURVE",
"544 -34 CURVE"
);
}
);
width = 579;
}
);
leftKerningGroup = R.alt;
rightKerningGroup = R.alt;
},
{
color = 3;
glyphname = a;
lastChange = "2016-09-07 22:45:06 +0000";
layers = (
{
anchors = (
{
name = bottom;
position = "{274, 0}";
},
{
name = ogonek;
position = "{430, 45}";
},
{
name = top;
position = "{254, 454}";
}
);
hints = (
{
horizontal = 1;
origin = "{0, 14}";
target = "{0, 36}";
}
);
layerId = UUID0;
paths = (
{
closed = 1;
nodes = (
"334 0 OFFCURVE",
"500 42 OFFCURVE",
"500 64 CURVE SMOOTH",
"500 82 OFFCURVE",
"496 86 OFFCURVE",
"457 86 CURVE SMOOTH",
"377 86 OFFCURVE",
"378 56 OFFCURVE",
"265 56 CURVE SMOOTH",
"171 56 OFFCURVE",
"101 96 OFFCURVE",
"101 158 CURVE SMOOTH",
"101 214 OFFCURVE",
"137 248 OFFCURVE",
"244 248 CURVE SMOOTH",
"310 248 OFFCURVE",
"405 220 OFFCURVE",
"461 106 CURVE",
"493 104 LINE",
"512 265 OFFCURVE",
"401 489 OFFCURVE",
"242 499 CURVE SMOOTH",
"177 502 OFFCURVE",
"120 473 OFFCURVE",
"120 417 CURVE SMOOTH",
"120 410 OFFCURVE",
"126 405 OFFCURVE",
"132 405 CURVE SMOOTH",
"156 405 OFFCURVE",
"194 446 OFFCURVE",
"240 446 CURVE SMOOTH",
"315 446 OFFCURVE",
"404 358 OFFCURVE",
"437 216 CURVE",
"347 301 OFFCURVE",
"273 299 OFFCURVE",
"214 299 CURVE SMOOTH",
"97 299 OFFCURVE",
"40 228 OFFCURVE",
"40 165 CURVE SMOOTH",
"40 29 OFFCURVE",
"188 0 OFFCURVE",
"297 0 CURVE SMOOTH"
);
}
);
width = 540;
}
);
leftKerningGroup = a;
rightKerningGroup = n;
unicode = 0061;
},
{
color = 3;
glyphname = b;
lastChange = "2016-09-07 22:12:15 +0000";
layers = (
{
anchors = (
{
name = bottom;
position = "{278, 0}";
},
{
name = top;
position = "{278, 344}";
}
);
layerId = UUID0;
paths = (
{
closed = 1;
nodes = (
"396 -1 OFFCURVE",
"508 32 OFFCURVE",
"508 133 CURVE SMOOTH",
"508 295 OFFCURVE",
"343 396 OFFCURVE",
"140 306 CURVE",
"115 417 OFFCURVE",
"107 527 OFFCURVE",
"94 637 CURVE",
"10 626 OFFCURVE",
"45 584 OFFCURVE",
"57 469 CURVE",
"86 300 LINE SMOOTH",
"100 93 OFFCURVE",
"146 -1 OFFCURVE",
"309 -1 CURVE SMOOTH"
);
},
{
closed = 1;
nodes = (
"447 76 OFFCURVE",
"398 49 OFFCURVE",
"340 49 CURVE SMOOTH",
"214 49 OFFCURVE",
"151 97 OFFCURVE",
"151 212 CURVE SMOOTH",
"151 261 OFFCURVE",
"193 292 OFFCURVE",
"267 292 CURVE SMOOTH",
"391 292 OFFCURVE",
"462 242 OFFCURVE",
"452 131 CURVE SMOOTH"
);
}
);
width = 528;
}
);
leftKerningGroup = h;
rightKerningGroup = o;
unicode = 0062;
},
{
color = 3;
glyphname = c;
lastChange = "2016-09-07 20:27:25 +0000";
layers = (
{
anchors = (
{
name = bottom;
position = "{216, 20}";
},
{
name = top;
position = "{255, 425}";
}
);
layerId = UUID0;
paths = (
{
closed = 1;
nodes = (
"308 -1 OFFCURVE",
"444 -4 OFFCURVE",
"444 42 CURVE SMOOTH",
"444 45 LINE",
"444 48 LINE",
"440 49 OFFCURVE",
"428 57 OFFCURVE",
"424 57 CURVE",
"288 49 OFFCURVE",
"95 39 OFFCURVE",
"95 216 CURVE SMOOTH",
"95 304 OFFCURVE",
"150 395 OFFCURVE",
"250 395 CURVE SMOOTH",
"316 395 OFFCURVE",
"350 349 OFFCURVE",
"350 287 CURVE",
"363 287 OFFCURVE",
"387 297 OFFCURVE",
"387 346 CURVE SMOOTH",
"387 411 OFFCURVE",
"320 441 OFFCURVE",
"250 441 CURVE SMOOTH",
"135 441 OFFCURVE",
"40 333 OFFCURVE",
"40 218 CURVE SMOOTH",
"40 64 OFFCURVE",
"135 -1 OFFCURVE",
"286 -1 CURVE SMOOTH"
);
}
);
width = 444;
}
);
leftKerningGroup = o;
rightKerningGroup = c;
unicode = 0063;
},
{
color = 3;
glyphname = d;
lastChange = "2016-09-07 22:15:51 +0000";
layers = (
{
anchors = (
{
name = bottom;
position = "{302, 1}";
},
{
name = center;
position = "{389, 561}";
},
{
name = top;
position = "{274, 454}";
},
{
name = topright;
position = "{463, 513}";
}
);
layerId = UUID0;
paths = (
{
closed = 1;
nodes = (
"301 1 OFFCURVE",
"398 76 OFFCURVE",
"453 175 CURVE",
"461 175 LINE",
"464 80 OFFCURVE",
"472 40 OFFCURVE",
"508 40 CURVE SMOOTH",
"523 40 OFFCURVE",
"542 43 OFFCURVE",
"542 63 CURVE",
"507 128 OFFCURVE",
"439 653 OFFCURVE",
"406 729 CURVE",
"335 729 OFFCURVE",
"410 513 OFFCURVE",
"436 356 CURVE",
"357 409 OFFCURVE",
"308 450 OFFCURVE",
"224 450 CURVE SMOOTH",
"106 450 OFFCURVE",
"60 337 OFFCURVE",
"60 222 CURVE SMOOTH",
"60 116 OFFCURVE",
"112 1 OFFCURVE",
"211 1 CURVE SMOOTH"
);
},
{
closed = 1;
nodes = (
"151 50 OFFCURVE",
"117 119 OFFCURVE",
"110 214 CURVE SMOOTH",
"103 317 OFFCURVE",
"147 396 OFFCURVE",
"236 396 CURVE SMOOTH",
"284 396 OFFCURVE",
"348 370 OFFCURVE",
"426 288 CURVE",
"426 258 LINE SMOOTH",
"426 176 OFFCURVE",
"309 50 OFFCURVE",
"224 50 CURVE SMOOTH"
);
}
);
width = 562;
}
);
leftKerningGroup = o;
rightKerningGroup = d;
unicode = 0064;
},
{
color = 3;
glyphname = eth;
lastChange = "2016-09-07 22:52:13 +0000";
layers = (
{
layerId = UUID0;
paths = (
{
closed = 1;
nodes = (
"343 -3 OFFCURVE",
"394 86 OFFCURVE",
"394 175 CURVE SMOOTH",
"394 344 OFFCURVE",
"277 528 OFFCURVE",
"94 528 CURVE SMOOTH",
"51 528 OFFCURVE",
"18 509 OFFCURVE",
"18 477 CURVE SMOOTH",
"18 460 OFFCURVE",
"26 451 OFFCURVE",
"45 451 CURVE SMOOTH",
"63 451 OFFCURVE",
"74 484 OFFCURVE",
"104 485 CURVE SMOOTH",
"184 489 OFFCURVE",
"312 391 OFFCURVE",
"343 243 CURVE",
"299 284 OFFCURVE",
"246 292 OFFCURVE",
"199 292 CURVE SMOOTH",
"93 292 OFFCURVE",
"23 238 OFFCURVE",
"23 146 CURVE SMOOTH",
"23 53 OFFCURVE",
"107 -3 OFFCURVE",
"215 -3 CURVE SMOOTH"
);
},
{
closed = 1;
nodes = (
"136 40 OFFCURVE",
"75 65 OFFCURVE",
"75 146 CURVE SMOOTH",
"75 209 OFFCURVE",
"126 251 OFFCURVE",
"209 251 CURVE SMOOTH",
"272 251 OFFCURVE",
"352 221 OFFCURVE",
"348 156 CURVE SMOOTH",
"344 85 OFFCURVE",
"287 51 OFFCURVE",
"221 46 CURVE SMOOTH"
);
},
{
closed = 1;
nodes = (
"185 354 OFFCURVE",
"206 377 OFFCURVE",
"248 406 CURVE SMOOTH",
"274 424 OFFCURVE",
"333 455 OFFCURVE",
"355 484 CURVE",
"340 519 OFFCURVE",
"315 507 OFFCURVE",
"274 479 CURVE SMOOTH",
"231 448 OFFCURVE",
"199 419 OFFCURVE",
"145 392 CURVE",
"149 372 OFFCURVE",
"156 365 OFFCURVE",
"168 361 CURVE SMOOTH"
);
}
);
width = 408;
},
{
associatedMasterId = UUID0;
layerId = "11B3C55D-32C5-4D7D-8353-6FDD431E0CA2";
name = "Sep 7 16, 21:59";
paths = (
{
closed = 1;
nodes = (
"349 -13 OFFCURVE",
"394 81 OFFCURVE",
"394 175 CURVE SMOOTH",
"394 239 OFFCURVE",
"364 325 OFFCURVE",
"323 384 CURVE",
"358 384 OFFCURVE",
"405 424 OFFCURVE",
"402 435 CURVE",
"364 530 OFFCURVE",
"352 434 OFFCURVE",
"270 438 CURVE",
"214 504 OFFCURVE",
"168 521 OFFCURVE",
"94 528 CURVE",
"70 528 OFFCURVE",
"23 520 OFFCURVE",
"23 487 CURVE SMOOTH",
"23 473 OFFCURVE",
"30 451 OFFCURVE",
"45 451 CURVE SMOOTH",
"53 451 OFFCURVE",
"83 474 OFFCURVE",
"94 477 CURVE",
"98 477 LINE SMOOTH",
"127 477 OFFCURVE",
"188 438 OFFCURVE",
"225 411 CURVE",
"201 416 OFFCURVE",
"143 375 OFFCURVE",
"126 381 CURVE",
"122 271 OFFCURVE",
"194 347 OFFCURVE",
"268 370 CURVE",
"294 339 OFFCURVE",
"313 306 OFFCURVE",
"313 279 CURVE SMOOTH",
"313 274 LINE",
"264 293 OFFCURVE",
"238 292 OFFCURVE",
"189 292 CURVE SMOOTH",
"93 292 OFFCURVE",
"23 228 OFFCURVE",
"23 136 CURVE SMOOTH",
"23 26 OFFCURVE",
"138 -13 OFFCURVE",
"235 -13 CURVE SMOOTH"
);
},
{
closed = 1;
nodes = (
"155 46 OFFCURVE",
"75 65 OFFCURVE",
"75 146 CURVE SMOOTH",
"75 189 OFFCURVE",
"140 251 OFFCURVE",
"183 251 CURVE SMOOTH",
"270 251 OFFCURVE",
"355 221 OFFCURVE",
"348 156 CURVE",
"335 85 OFFCURVE",
"287 51 OFFCURVE",
"221 46 CURVE"
);
}
);
width = 408;
}
);
leftKerningGroup = o;
rightKerningGroup = o;
unicode = 00F0;
},
{
color = 3;
glyphname = dcroat;
lastChange = "2016-09-07 21:50:47 +0000";
layers = (
{
components = (
{
name = d;
},
{
name = strokeshortcomb;
transform = "{1, 0, 0, 1, 177, 281}";
}
);
layerId = UUID0;
width = 562;
},
{
associatedMasterId = UUID0;
layerId = "A26FA32B-82F4-4014-A6B2-B8AECA7A7AE5";
name = "Sep 7 16, 22:05";
paths = (
{
closed = 1;
nodes = (
"283 20 OFFCURVE",
"389 116 OFFCURVE",
"418 178 CURVE",
"431 99 OFFCURVE",
"445 40 OFFCURVE",
"467 40 CURVE SMOOTH",
"482 40 OFFCURVE",
"491 43 OFFCURVE",
"491 63 CURVE",
"465 104 OFFCURVE",
"469 316 OFFCURVE",
"430 490 CURVE SMOOTH",
"420 535 LINE",
"444 535 OFFCURVE",
"460 535 OFFCURVE",
"487 535 CURVE SMOOTH",
"499 535 OFFCURVE",
"505 542 OFFCURVE",
"505 556 CURVE SMOOTH",
"505 592 OFFCURVE",
"456 583 OFFCURVE",
"420 583 CURVE SMOOTH",
"411 583 LINE",
"403 617 OFFCURVE",
"401 646 OFFCURVE",
"389 674 CURVE SMOOTH",
"377 698 OFFCURVE",
"369 716 OFFCURVE",
"352 729 CURVE",
"313 719 OFFCURVE",
"323 665 OFFCURVE",
"334 630 CURVE SMOOTH",
"352 578 LINE",
"246 572 OFFCURVE",
"197 561 OFFCURVE",
"205 514 CURVE",
"243 514 OFFCURVE",
"279 519 OFFCURVE",
"317 525 CURVE SMOOTH",
"363 531 LINE",
"367 518 LINE SMOOTH",
"382 466 OFFCURVE",
"392 408 OFFCURVE",
"388 356 CURVE",
"306 409 OFFCURVE",
"247 450 OFFCURVE",
"183 450 CURVE SMOOTH",
"65 450 OFFCURVE",
"19 317 OFFCURVE",
"19 222 CURVE SMOOTH",
"19 123 OFFCURVE",
"72 20 OFFCURVE",
"178 20 CURVE SMOOTH"
);
},
{
closed = 1;
nodes = (
"116 75 OFFCURVE",
"79 117 OFFCURVE",
"79 204 CURVE SMOOTH",
"79 378 OFFCURVE",
"154 468 OFFCURVE",
"385 307 CURVE",
"385 258 LINE SMOOTH",
"385 180 OFFCURVE",
"268 75 OFFCURVE",
"183 75 CURVE SMOOTH"
);
}
);
width = 525;
}
);
leftKerningGroup = o;
rightKerningGroup = d;
unicode = 0111;
},
{
color = 3;
glyphname = e;
lastChange = "2016-09-07 22:11:44 +0000";
layers = (
{
anchors = (
{
name = bottom;
position = "{270, 20}";
},
{
name = ogonek;
position = "{351, 27}";
},
{
name = top;
position = "{246, 441}";
}
);
layerId = UUID0;
paths = (
{
closed = 1;
nodes = (
"329 0 OFFCURVE",
"411 17 OFFCURVE",
"448 73 CURVE",
"425 96 OFFCURVE",
"357 60 OFFCURVE",
"312 53 CURVE SMOOTH",
"153 36 OFFCURVE",
"95 126 OFFCURVE",
"95 231 CURVE SMOOTH",
"95 318 OFFCURVE",
"154 401 OFFCURVE",
"246 409 CURVE SMOOTH",
"322 416 OFFCURVE",
"339 367 OFFCURVE",
"339 306 CURVE SMOOTH",
"339 235 OFFCURVE",
"283 214 OFFCURVE",
"190 232 CURVE SMOOTH",
"128 244 OFFCURVE",
"124 236 OFFCURVE",
"124 224 CURVE SMOOTH",
"124 193 OFFCURVE",
"149 189 OFFCURVE",
"190 185 CURVE SMOOTH",
"295 175 OFFCURVE",
"388 211 OFFCURVE",
"388 304 CURVE SMOOTH",
"391 383 OFFCURVE",
"351 452 OFFCURVE",
"265 457 CURVE SMOOTH",
"121 465 OFFCURVE",
"40 337 OFFCURVE",
"40 202 CURVE SMOOTH",
"40 78 OFFCURVE",
"148 0 OFFCURVE",
"276 0 CURVE SMOOTH"
);
}
);
width = 448;
}
);
leftKerningGroup = e;
rightKerningGroup = e;
unicode = 0065;
},
{
color = 3;
glyphname = f;
lastChange = "2016-09-07 21:51:49 +0000";
layers = (
{
anchors = (
{
name = bottom;
position = "{285, -1}";
},
{
name = top;
position = "{258, 693}";
}
);
layerId = UUID0;
paths = (
{
closed = 1;
nodes = (
"98 704 OFFCURVE",
"96 436 OFFCURVE",
"104 318 CURVE",
"72 315 OFFCURVE",
"0 315 OFFCURVE",
"0 272 CURVE SMOOTH",
"0 262 OFFCURVE",
"3 253 OFFCURVE",
"14 253 CURVE SMOOTH",
"44 252 OFFCURVE",
"80 270 OFFCURVE",
"123 275 CURVE",
"156 171 OFFCURVE",
"197 -1 OFFCURVE",
"245 -1 CURVE SMOOTH",
"261 -1 OFFCURVE",
"272 3 OFFCURVE",
"272 19 CURVE SMOOTH",
"272 65 OFFCURVE",
"195 158 OFFCURVE",
"163 283 CURVE",
"283 255 OFFCURVE",
"357 258 OFFCURVE",
"357 291 CURVE SMOOTH",
"357 305 OFFCURVE",
"352 311 OFFCURVE",
"338 311 CURVE",
"234 317 OFFCURVE",
"176 320 OFFCURVE",
"155 323 CURVE",
"147 375 OFFCURVE",
"145 427 OFFCURVE",
"151 479 CURVE SMOOTH",
"160 562 OFFCURVE",
"209 648 OFFCURVE",
"287 648 CURVE SMOOTH",
"373 648 OFFCURVE",
"391 554 OFFCURVE",
"442 554 CURVE SMOOTH",
"464 554 LINE",
"464 625 OFFCURVE",
"378 704 OFFCURVE",
"286 704 CURVE SMOOTH"
);
}
);
width = 464;
}
);
leftKerningGroup = f;
rightKerningGroup = f;
unicode = 0066;
},
{
color = 3;
glyphname = g;
lastChange = "2016-09-07 22:13:48 +0000";
layers = (
{
anchors = (
{
name = bottom;
position = "{224, 0}";
},
{
name = top;
position = "{224, 405}";
}
);
layerId = UUID0;
paths = (
{
closed = 1;
nodes = (
"368 -488 OFFCURVE",
"407 -287 OFFCURVE",
"407 -196 CURVE SMOOTH",
"407 6 OFFCURVE",
"436 384 OFFCURVE",
"302 412 CURVE SMOOTH",
"157 442 OFFCURVE",
"60 292 OFFCURVE",
"60 188 CURVE SMOOTH",
"60 75 OFFCURVE",
"106 19 OFFCURVE",
"210 19 CURVE SMOOTH",
"273 19 OFFCURVE",
"310 49 OFFCURVE",
"356 98 CURVE",
"354 -3 OFFCURVE",
"352 -75 OFFCURVE",
"352 -188 CURVE SMOOTH",
"352 -327 OFFCURVE",
"298 -424 OFFCURVE",
"214 -424 CURVE SMOOTH",
"121 -424 OFFCURVE",
"52 -371 OFFCURVE",
"52 -281 CURVE",
"54 -238 OFFCURVE",
"-5 -230 OFFCURVE",
"0 -281 CURVE SMOOTH",
"16 -442 OFFCURVE",
"109 -488 OFFCURVE",
"208 -488 CURVE SMOOTH"
);
},
{
closed = 1;
nodes = (
"145 85 OFFCURVE",
"115 128 OFFCURVE",
"115 175 CURVE SMOOTH",
"115 247 OFFCURVE",
"174 355 OFFCURVE",
"262 355 CURVE SMOOTH",
"317 355 OFFCURVE",
"337 312 OFFCURVE",
"343 256 CURVE SMOOTH",
"355 144 OFFCURVE",
"305 85 OFFCURVE",
"195 85 CURVE SMOOTH"
);
}
);
width = 450;
},
{
anchors = (
{
name = bottom;
position = "{183, 0}";
},
{
name = top;
position = "{183, 454}";
}
);
associatedMasterId = UUID0;
layerId = "6A8D0E64-B2FC-4990-804A-9270D61FEC19";
name = "Sep 7 16, 22:06";
paths = (
{
closed = 1;
nodes = (
"335 -488 OFFCURVE",
"366 -287 OFFCURVE",
"366 -196 CURVE SMOOTH",
"343 6 OFFCURVE",
"381 373 OFFCURVE",
"239 412 CURVE",
"116 412 OFFCURVE",
"19 272 OFFCURVE",
"19 158 CURVE SMOOTH",
"19 85 OFFCURVE",
"85 19 OFFCURVE",
"159 19 CURVE SMOOTH",
"200 19 OFFCURVE",
"236 37 OFFCURVE",
"279 67 CURVE",
"299 -23 OFFCURVE",
"311 -87 OFFCURVE",
"311 -188 CURVE SMOOTH",
"311 -257 OFFCURVE",
"300 -424 OFFCURVE",
"203 -424 CURVE SMOOTH",
"93 -424 OFFCURVE",
"6 -371 OFFCURVE",
"6 -281 CURVE",
"38 -198 OFFCURVE",
"-47 -220 OFFCURVE",
"-41 -281 CURVE SMOOTH",
"-23 -462 OFFCURVE",
"101 -488 OFFCURVE",
"207 -488 CURVE SMOOTH"
);
},
{
closed = 1;
nodes = (
"104 85 OFFCURVE",
"74 128 OFFCURVE",
"74 175 CURVE SMOOTH",
"74 247 OFFCURVE",
"133 355 OFFCURVE",
"221 355 CURVE SMOOTH",
"262 355 OFFCURVE",
"278 316 OFFCURVE",
"282 266 CURVE SMOOTH",
"292 137 OFFCURVE",
"249 85 OFFCURVE",
"154 85 CURVE SMOOTH"
);
}
);
width = 366;
}
);
leftKerningGroup = g;
rightKerningGroup = g;
unicode = 0067;
},
{
color = 3;
glyphname = h;
lastChange = "2016-09-07 22:18:37 +0000";
layers = (
{
anchors = (
{
name = bottom;
position = "{278, 0}";
},
{
name = center;
position = "{147, 565}";
},
{
name = top;
position = "{269, 454}";
}
);
layerId = UUID0;
paths = (
{
closed = 1;
nodes = (
"165 2 OFFCURVE",
"176 4 OFFCURVE",
"184 22 CURVE",
"184 163 OFFCURVE",
"157 244 OFFCURVE",
"158 361 CURVE",
"185 384 OFFCURVE",
"215 395 OFFCURVE",
"244 395 CURVE SMOOTH",
"342 395 OFFCURVE",
"369 333 OFFCURVE",
"373 237 CURVE SMOOTH",
"376 173 OFFCURVE",
"373 86 OFFCURVE",
"374 18 CURVE",
"385 5 OFFCURVE",
"394 -1 OFFCURVE",
"403 -1 CURVE SMOOTH",
"417 -1 OFFCURVE",
"427 56 OFFCURVE",
"427 129 CURVE SMOOTH",
"428 323 OFFCURVE",
"388 453 OFFCURVE",
"259 453 CURVE SMOOTH",
"227 453 OFFCURVE",
"191 442 OFFCURVE",
"149 417 CURVE",
"137 512 OFFCURVE",
"133 587 OFFCURVE",
"89 704 CURVE",
"63 708 OFFCURVE",
"47 697 OFFCURVE",
"50 685 CURVE SMOOTH",
"116 446 OFFCURVE",
"131 -2 OFFCURVE",
"150 2 CURVE"
);
}
);
width = 475;
},
{
anchors = (
{
name = bottom;
position = "{215, 0}";
},
{
name = center;
position = "{215, 227}";
},
{
name = top;
position = "{215, 454}";
}
);
associatedMasterId = UUID0;
layerId = "BBCC7866-CEC5-4B72-A55A-8FA6962EE83E";
name = "Sep 7 16, 22:08";
paths = (
{
closed = 1;
nodes = (
"111 2 OFFCURVE",
"122 4 OFFCURVE",
"130 22 CURVE",
"130 64 LINE SMOOTH",
"130 125 OFFCURVE",
"103 270 OFFCURVE",
"103 329 CURVE",
"104 343 LINE",
"147 371 OFFCURVE",
"159 381 OFFCURVE",
"195 381 CURVE SMOOTH",
"285 381 OFFCURVE",
"329 312 OFFCURVE",
"329 227 CURVE SMOOTH",
"329 169 OFFCURVE",
"328 83 OFFCURVE",
"320 18 CURVE",
"440 -125 OFFCURVE",
"436 621 OFFCURVE",
"95 417 CURVE",
"83 512 OFFCURVE",
"99 507 OFFCURVE",
"25 704 CURVE",
"16 704 OFFCURVE",
"-14 695 OFFCURVE",
"-14 685 CURVE SMOOTH",
"-14 681 LINE",
"-4 619 OFFCURVE",
"-1 604 OFFCURVE",
"21 530 CURVE",
"83 248 OFFCURVE",
"49 -6 OFFCURVE",
"96 2 CURVE"
);
}
);
width = 429;
}
);
leftKerningGroup = h;
rightKerningGroup = n;
unicode = 0068;
},
{
color = 3;
glyphname = idotless;
lastChange = "2016-09-07 20:42:50 +0000";
layers = (
{
anchors = (
{
name = bottom;
position = "{104, 0}";
},
{
name = ogonek;
position = "{76, 3}";
},
{
name = top;
position = "{72, 444}";
}
);
layerId = UUID0;
paths = (
{
closed = 1;
nodes = (
"123 -1 OFFCURVE",
"132 23 OFFCURVE",
"130 40 CURVE SMOOTH",
"110 176 OFFCURVE",
"88 284 OFFCURVE",
"93 423 CURVE",
"86 436 OFFCURVE",
"79 442 OFFCURVE",
"64 442 CURVE SMOOTH",
"41 442 OFFCURVE",
"37 417 OFFCURVE",
"41 338 CURVE SMOOTH",
"44 292 OFFCURVE",
"56 -1 OFFCURVE",
"107 -1 CURVE SMOOTH"
);
}
);
width = 180;
}
);
leftKerningGroup = idotless;
rightKerningGroup = idotless;
unicode = 0131;
},
{
color = 4;
glyphname = jdotless;
lastChange = "2016-09-07 20:43:55 +0000";
layers = (
{
anchors = (
{
name = bottom;
position = "{100, -460}";
},
{
name = top;
position = "{99, 382}";
}
);
layerId = UUID0;
paths = (
{
closed = 1;
nodes = (
"165 -418 OFFCURVE",
"218 -380 OFFCURVE",
"218 -265 CURVE SMOOTH",
"218 -35 OFFCURVE",
"152 366 OFFCURVE",
"106 394 CURVE",
"79 394 OFFCURVE",
"82 386 OFFCURVE",
"79 367 CURVE",
"128 156 OFFCURVE",
"175 -65 OFFCURVE",
"168 -272 CURVE SMOOTH",
"166 -336 OFFCURVE",
"149 -368 OFFCURVE",
"91 -368 CURVE SMOOTH",
"-69 -368 OFFCURVE",
"-65 -111 OFFCURVE",
"-92 -107 CURVE",
"-114 -112 OFFCURVE",
"-110 -134 OFFCURVE",
"-110 -149 CURVE",
"-92 -325 OFFCURVE",
"-9 -418 OFFCURVE",
"103 -418 CURVE SMOOTH"
);
}
);
width = 200;
}
);
leftKerningGroup = jdotless;
rightKerningGroup = jdotless;
unicode = 0237;
},
{
color = 3;
glyphname = k;
lastChange = "2016-09-07 22:11:48 +0000";
layers = (
{
anchors = (
{
name = bottom;
position = "{214, 0}";
},
{
name = top;
position = "{214, 454}";
}
);
background = {
anchors = (
{
name = bottom;
position = "{214, 0}";
},
{
name = top;
position = "{214, 454}";
}
);
paths = (
{
closed = 1;
nodes = (
"154 -1 OFFCURVE",
"147 65 OFFCURVE",
"158 135 CURVE",
"197 95 OFFCURVE",
"296 8 OFFCURVE",
"374 8 CURVE SMOOTH",
"421 8 OFFCURVE",
"438 22 OFFCURVE",
"438 42 CURVE SMOOTH",
"438 56 OFFCURVE",
"432 63 OFFCURVE",
"419 65 CURVE",
"318 72 OFFCURVE",
"182 148 OFFCURVE",
"182 195 CURVE SMOOTH",
"182 253 OFFCURVE",
"310 378 OFFCURVE",
"361 423 CURVE",
"362 438 OFFCURVE",
"361 450 OFFCURVE",
"343 450 CURVE SMOOTH",
"282 450 OFFCURVE",
"185 328 OFFCURVE",
"146 229 CURVE",
"109 532 OFFCURVE",
"75 614 OFFCURVE",
"56 614 CURVE SMOOTH",
"47 614 OFFCURVE",
"42 608 OFFCURVE",
"40 597 CURVE",
"62 413 OFFCURVE",
"92 335 OFFCURVE",
"99 216 CURVE",
"100 130 OFFCURVE",
"99 84 OFFCURVE",
"99 95 CURVE SMOOTH",
"99 58 OFFCURVE",
"90 43 OFFCURVE",
"90 28 CURVE SMOOTH",
"90 8 OFFCURVE",
"98 -1 OFFCURVE",
"115 -1 CURVE SMOOTH"
);
}
);
};
layerId = UUID0;
paths = (
{
closed = 1;
nodes = (
"154 -1 OFFCURVE",
"147 65 OFFCURVE",
"158 135 CURVE",
"197 95 OFFCURVE",
"296 8 OFFCURVE",
"374 8 CURVE SMOOTH",
"421 8 OFFCURVE",
"438 22 OFFCURVE",
"438 42 CURVE SMOOTH",
"438 56 OFFCURVE",
"432 63 OFFCURVE",
"419 65 CURVE",
"318 72 OFFCURVE",
"182 148 OFFCURVE",
"182 195 CURVE SMOOTH",
"182 253 OFFCURVE",
"310 378 OFFCURVE",
"361 423 CURVE",
"362 438 OFFCURVE",
"361 450 OFFCURVE",
"343 450 CURVE SMOOTH",
"282 450 OFFCURVE",
"185 328 OFFCURVE",
"146 229 CURVE",
"109 532 OFFCURVE",
"75 614 OFFCURVE",
"56 614 CURVE SMOOTH",
"47 614 OFFCURVE",
"42 608 OFFCURVE",
"40 597 CURVE",
"62 413 OFFCURVE",
"92 335 OFFCURVE",
"99 216 CURVE",
"100 130 OFFCURVE",
"99 84 OFFCURVE",
"99 95 CURVE SMOOTH",
"99 58 OFFCURVE",
"90 43 OFFCURVE",
"90 28 CURVE SMOOTH",
"90 8 OFFCURVE",
"98 -1 OFFCURVE",
"115 -1 CURVE SMOOTH"
);
}
);
width = 438;
}
);
leftKerningGroup = h;
rightKerningGroup = k;
unicode = 006B;
},
{
color = 4;
glyphname = kgreenlandic;
lastChange = "2016-09-07 20:13:06 +0000";
layers = (
{
anchors = (
{
name = bottom;
position = "{172, 0}";
},
{
name = top;
position = "{172, 454}";
}
);
layerId = UUID0;
paths = (
{
closed = 1;
nodes = (
"112 -1 OFFCURVE",
"105 65 OFFCURVE",
"116 135 CURVE",
"155 95 OFFCURVE",
"254 8 OFFCURVE",
"332 8 CURVE SMOOTH",
"379 8 OFFCURVE",
"396 22 OFFCURVE",
"396 42 CURVE SMOOTH",
"396 56 OFFCURVE",
"390 63 OFFCURVE",
"377 65 CURVE",
"276 72 OFFCURVE",
"140 148 OFFCURVE",
"140 195 CURVE SMOOTH",
"140 253 OFFCURVE",
"268 378 OFFCURVE",
"319 423 CURVE",
"320 438 OFFCURVE",
"319 450 OFFCURVE",
"301 450 CURVE SMOOTH",
"240 450 OFFCURVE",
"123 257 OFFCURVE",
"104 249 CURVE",
"99 455 OFFCURVE",
"62 484 OFFCURVE",
"41 439 CURVE",
"49 331 OFFCURVE",
"55 286 OFFCURVE",
"57 216 CURVE",
"58 130 OFFCURVE",
"57 84 OFFCURVE",
"57 95 CURVE SMOOTH",
"57 58 OFFCURVE",
"48 43 OFFCURVE",
"48 28 CURVE SMOOTH",
"48 8 OFFCURVE",
"56 -1 OFFCURVE",
"73 -1 CURVE SMOOTH"
);
}
);
width = 403;
}
);
leftKerningGroup = n;
rightKerningGroup = k;
unicode = 0138;
},
{
color = 3;
glyphname = l;
lastChange = "2016-09-07 22:17:25 +0000";
layers = (
{
anchors = (
{
name = bottom;
position = "{95, 0}";
},
{
name = center;
position = "{75, 507}";
},
{
name = top;
position = "{95, 749}";
},
{
name = topright;
position = "{145, 454}";
}
);
layerId = UUID0;
paths = (
{
closed = 1;
nodes = (
"110 4 OFFCURVE",
"129 2 OFFCURVE",
"128 21 CURVE SMOOTH",
"119 171 OFFCURVE",
"98 336 OFFCURVE",
"98 659 CURVE",
"98 679 OFFCURVE",
"96 692 OFFCURVE",
"73 692 CURVE SMOOTH",
"62 692 OFFCURVE",
"53 689 OFFCURVE",
"53 679 CURVE",
"44 504 OFFCURVE",
"56 200 OFFCURVE",
"95 7 CURVE"
);
}
);
width = 168;
}
);
leftKerningGroup = h;
rightKerningGroup = l;
unicode = 006C;
},
{
color = 3;
glyphname = m;
lastChange = "2016-09-07 22:17:57 +0000";
layers = (
{
anchors = (
{
name = bottom;
position = "{398, 0}";
},
{
name = top;
position = "{358, 384}";
}
);
layerId = UUID0;
paths = (
{
closed = 1;
nodes = (
"737 -1 OFFCURVE",
"736 118 OFFCURVE",
"736 145 CURVE SMOOTH",
"736 244 OFFCURVE",
"683 423 OFFCURVE",
"552 423 CURVE SMOOTH",
"469 423 OFFCURVE",
"387 365 OFFCURVE",
"351 300 CURVE",
"312 365 OFFCURVE",
"267 395 OFFCURVE",
"193 395 CURVE SMOOTH",
"147 395 OFFCURVE",
"106 358 OFFCURVE",
"88 327 CURVE",
"88 378 OFFCURVE",
"65 389 OFFCURVE",
"48 375 CURVE",
"47 342 LINE SMOOTH",
"44 247 OFFCURVE",
"58 184 OFFCURVE",
"58 74 CURVE SMOOTH",
"58 38 OFFCURVE",
"66 19 OFFCURVE",
"94 19 CURVE SMOOTH",
"117 19 OFFCURVE",
"117 36 OFFCURVE",
"117 55 CURVE SMOOTH",
"117 105 OFFCURVE",
"106 155 OFFCURVE",
"106 217 CURVE SMOOTH",
"106 282 OFFCURVE",
"143 338 OFFCURVE",
"214 338 CURVE SMOOTH",
"350 338 OFFCURVE",
"331 57 OFFCURVE",
"402 57 CURVE SMOOTH",
"424 57 OFFCURVE",
"417 76 OFFCURVE",
"417 92 CURVE SMOOTH",
"417 133 OFFCURVE",
"393 183 OFFCURVE",
"383 241 CURVE",
"383 288 OFFCURVE",
"463 358 OFFCURVE",
"543 358 CURVE SMOOTH",
"662 358 OFFCURVE",
"690 233 OFFCURVE",
"670 65 CURVE",
"669 63 OFFCURVE",
"669 41 OFFCURVE",
"668 34 CURVE",
"668 18 OFFCURVE",
"666 -1 OFFCURVE",
"689 -1 CURVE SMOOTH"
);
}
);
width = 776;
}
);
leftKerningGroup = n;
rightKerningGroup = n;
unicode = 006D;
},
{
color = 3;
glyphname = n;
lastChange = "2016-09-07 21:47:19 +0000";
layers = (
{
anchors = (
{
name = bottom;
position = "{262, 0}";
},
{
name = top;
position = "{222, 454}";
}
);
layerId = UUID0;
paths = (
{
closed = 1;
nodes = (
"125 80 OFFCURVE",
"97 131 OFFCURVE",
"97 244 CURVE SMOOTH",
"97 329 OFFCURVE",
"170 385 OFFCURVE",
"241 385 CURVE SMOOTH",
"352 385 OFFCURVE",
"429 268 OFFCURVE",
"398 19 CURVE",
"398 11 OFFCURVE",
"406 8 OFFCURVE",
"416 8 CURVE SMOOTH",
"439 8 OFFCURVE",
"453 50 OFFCURVE",
"453 113 CURVE SMOOTH",
"453 277 OFFCURVE",
"403 442 OFFCURVE",
"248 442 CURVE SMOOTH",
"176 442 OFFCURVE",
"107 387 OFFCURVE",
"89 347 CURVE",
"94 377 OFFCURVE",
"86 395 OFFCURVE",
"60 395 CURVE SMOOTH",
"51 395 OFFCURVE",
"40 393 OFFCURVE",
"40 381 CURVE SMOOTH",
"40 309 OFFCURVE",
"52 75 OFFCURVE",
"102 0 CURVE",
"115 -11 OFFCURVE",
"121 -8 OFFCURVE",
"135 -4 CURVE"
);
}
);
width = 493;
}
);
leftKerningGroup = n;
rightKerningGroup = n;
unicode = 006E;
},
{
color = 8;
glyphname = eng;
lastChange = "2016-09-07 22:06:15 +0000";
layers = (
{
background = {
paths = (
{
closed = 1;
nodes = (
"124 80 OFFCURVE",
"96 131 OFFCURVE",
"96 244 CURVE SMOOTH",
"96 329 OFFCURVE",
"169 385 OFFCURVE",
"240 385 CURVE SMOOTH",
"351 385 OFFCURVE",
"428 268 OFFCURVE",
"397 19 CURVE",
"397 11 OFFCURVE",
"405 8 OFFCURVE",
"415 8 CURVE SMOOTH",
"438 8 OFFCURVE",
"452 50 OFFCURVE",
"452 113 CURVE SMOOTH",
"452 277 OFFCURVE",
"402 442 OFFCURVE",
"247 442 CURVE SMOOTH",
"175 442 OFFCURVE",
"106 387 OFFCURVE",
"88 347 CURVE",
"93 377 OFFCURVE",
"85 395 OFFCURVE",
"59 395 CURVE SMOOTH",
"50 395 OFFCURVE",
"39 393 OFFCURVE",
"39 381 CURVE SMOOTH",
"39 309 OFFCURVE",
"51 75 OFFCURVE",
"101 0 CURVE",
"114 -11 OFFCURVE",
"120 -8 OFFCURVE",
"134 -4 CURVE"
);
}
);
};
layerId = UUID0;
paths = (
{
closed = 1;
nodes = (
"435 63 CURVE SMOOTH",
"447 308 OFFCURVE",
"381 442 OFFCURVE",
"246 442 CURVE SMOOTH",
"154 442 OFFCURVE",
"115 387 OFFCURVE",
"87 327 CURVE",
"95 375 OFFCURVE",
"84 395 OFFCURVE",
"58 395 CURVE SMOOTH",
"49 395 OFFCURVE",
"37 393 OFFCURVE",
"38 381 CURVE SMOOTH",
"68 22 OFFCURVE",
"69 -14 OFFCURVE",
"133 -4 CURVE",
"133 60 OFFCURVE",
"95 161 OFFCURVE",
"95 244 CURVE SMOOTH",
"95 329 OFFCURVE",
"158 385 OFFCURVE",
"239 385 CURVE SMOOTH",
"399 385 OFFCURVE",
"381 136 OFFCURVE",
"375 -42 CURVE SMOOTH",
"367 -244 OFFCURVE",
"314 -369 OFFCURVE",
"224 -369 CURVE SMOOTH",
"130 -369 OFFCURVE",
"99 -317 OFFCURVE",
"104 -259 CURVE SMOOTH",
"107 -222 OFFCURVE",
"110 -208 OFFCURVE",
"91 -208 CURVE SMOOTH",
"74 -208 OFFCURVE",
"60 -231 OFFCURVE",
"60 -259 CURVE SMOOTH",
"62 -375 OFFCURVE",
"137 -413 OFFCURVE",
"218 -413 CURVE SMOOTH",
"370 -413 OFFCURVE",
"417 -292 OFFCURVE"
);
}
);
width = 460;
}
);
leftKerningGroup = n;
rightKerningGroup = j;
unicode = 014B;
},
{
color = 3;
glyphname = o;
lastChange = "2016-09-07 22:18:49 +0000";
layers = (
{
anchors = (
{
name = bottom;
position = "{265, 0}";
},
{
name = center;
position = "{265, 187}";
},
{
name = ogonek;
position = "{351, 47}";
},
{
name = top;
position = "{259, 394}";
},
{
name = topright;
position = "{416, 389}";
}
);
layerId = UUID0;
paths = (
{
closed = 1;
nodes = (
"365 -1 OFFCURVE",
"480 76 OFFCURVE",
"480 209 CURVE SMOOTH",
"480 332 OFFCURVE",
"391 406 OFFCURVE",
"294 406 CURVE SMOOTH",
"166 406 OFFCURVE",
"40 351 OFFCURVE",
"40 208 CURVE SMOOTH",
"40 84 OFFCURVE",
"127 -1 OFFCURVE",
"247 -1 CURVE SMOOTH"
);
},
{
closed = 1;
nodes = (
"152 56 OFFCURVE",
"86 126 OFFCURVE",
"86 206 CURVE SMOOTH",
"86 307 OFFCURVE",
"198 356 OFFCURVE",
"283 356 CURVE SMOOTH",
"378 356 OFFCURVE",
"425 289 OFFCURVE",
"425 221 CURVE SMOOTH",
"425 112 OFFCURVE",
"359 56 OFFCURVE",
"236 56 CURVE SMOOTH"
);
}
);
width = 520;
}
);
leftKerningGroup = o;
rightKerningGroup = o;
unicode = 006F;
},
{
color = 3;
glyphname = oslash;
lastChange = "2016-09-07 21:50:47 +0000";
layers = (
{
background = {
components = (
{
name = o;
},
{
name = slashlongcomb;
}
);
};
components = (
{
name = o;
},
{
name = slashlongcomb;
transform = "{1, 0, 0, 1, 86, -155}";
}
);
layerId = UUID0;
width = 520;
},
{
associatedMasterId = UUID0;
background = {
components = (
{
name = o;
},
{
name = slashlongcomb;
}
);
};
layerId = "ECA8D602-2BFF-4E22-A4BD-AEF8D76668D8";
name = "Sep 7 16, 22:14";
paths = (
{
closed = 1;
nodes = (
"344 -1 OFFCURVE",
"459 76 OFFCURVE",
"459 209 CURVE SMOOTH",
"459 263 OFFCURVE",
"427 338 OFFCURVE",
"373 379 CURVE",
"364 387 LINE",
"370 400 LINE SMOOTH",
"378 417 OFFCURVE",
"382 428 OFFCURVE",
"382 434 CURVE SMOOTH",
"382 444 OFFCURVE",
"386 458 OFFCURVE",
"359 461 CURVE",
"340 457 OFFCURVE",
"328 442 OFFCURVE",
"320 426 CURVE",
"314 411 LINE",
"305 413 OFFCURVE",
"295 414 OFFCURVE",
"284 414 CURVE SMOOTH",
"156 414 OFFCURVE",
"19 342 OFFCURVE",
"19 199 CURVE SMOOTH",
"19 169 OFFCURVE",
"23 141 OFFCURVE",
"33 115 CURVE",
"43 92 OFFCURVE",
"57 72 OFFCURVE",
"73 57 CURVE",
"70 51 OFFCURVE",
"66 46 OFFCURVE",
"63 41 CURVE SMOOTH",
"58 32 OFFCURVE",
"56 25 OFFCURVE",
"56 21 CURVE SMOOTH",
"56 12 OFFCURVE",
"69 0 OFFCURVE",
"89 0 CURVE SMOOTH",
"95 0 OFFCURVE",
"104 6 OFFCURVE",
"115 17 CURVE",
"121 21 LINE",
"143 13 LINE SMOOTH",
"168 4 OFFCURVE",
"195 -1 OFFCURVE",
"226 -1 CURVE SMOOTH"
);
},
{
closed = 1;
nodes = (
"108 101 LINE",
"82 128 OFFCURVE",
"65 167 OFFCURVE",
"65 206 CURVE SMOOTH",
"65 307 OFFCURVE",
"177 356 OFFCURVE",
"262 356 CURVE",
"283 349 LINE",
"121 109 LINE",
"109 99 LINE"
);
},
{
closed = 1;
nodes = (
"195 56 OFFCURVE",
"177 59 OFFCURVE",
"159 65 CURVE",
"203 124 LINE SMOOTH",
"238 171 OFFCURVE",
"271 224 OFFCURVE",
"302 274 CURVE SMOOTH",
"332 324 LINE",
"339 320 OFFCURVE",
"345 316 OFFCURVE",
"350 312 CURVE",
"503 200 OFFCURVE",
"294 47 OFFCURVE",
"215 56 CURVE"
);
}
);
width = 487;
}
);
leftKerningGroup = o;
rightKerningGroup = o;
unicode = 00F8;
},
{
color = 3;
glyphname = oe;
lastChange = "2016-09-07 22:09:49 +0000";
layers = (
{
components = (
{
name = o;
},
{
alignment = -1;
name = e;
transform = "{1, 0, 0, 1, 385, 0}";
}
);
layerId = UUID0;
width = 833;
},
{
associatedMasterId = UUID0;
layerId = "E817BA15-22F5-4E84-9606-F445476521B8";
name = "Sep 7 16, 22:14";
paths = (
{
closed = 1;
nodes = (
"729 -35 OFFCURVE",
"818 -19 OFFCURVE",
"861 38 CURVE",
"687 26 LINE",
"525 34 OFFCURVE",
"474 89 OFFCURVE",
"455 154 CURVE",
"455 157 OFFCURVE",
"455 159 OFFCURVE",
"454 161 CURVE",
"457 176 OFFCURVE",
"459 192 OFFCURVE",
"459 209 CURVE SMOOTH",
"459 223 OFFCURVE",
"457 237 OFFCURVE",
"452 253 CURVE SMOOTH",
"447 270 LINE",
"448 286 OFFCURVE",
"452 303 OFFCURVE",
"458 319 CURVE SMOOTH",
"479 380 OFFCURVE",
"528 428 OFFCURVE",
"599 434 CURVE SMOOTH",
"654 437 OFFCURVE",
"692 382 OFFCURVE",
"692 331 CURVE SMOOTH",
"692 280 OFFCURVE",
"567 227 OFFCURVE",
"533 227 CURVE",
"469 239 OFFCURVE",
"467 231 OFFCURVE",
"467 219 CURVE SMOOTH",
"467 178 OFFCURVE",
"501 180 OFFCURVE",
"533 180 CURVE SMOOTH",
"615 180 OFFCURVE",
"741 235 OFFCURVE",
"741 329 CURVE",
"744 408 OFFCURVE",
"703 471 OFFCURVE",
"617 481 CURVE",
"546 481 OFFCURVE",
"489 452 OFFCURVE",
"450 405 CURVE SMOOTH",
"434 386 OFFCURVE",
"421 363 OFFCURVE",
"411 338 CURVE",
"408 342 LINE",
"379 385 OFFCURVE",
"332 414 OFFCURVE",
"284 414 CURVE SMOOTH",
"156 414 OFFCURVE",
"19 342 OFFCURVE",
"19 199 CURVE SMOOTH",
"19 75 OFFCURVE",
"106 -1 OFFCURVE",
"226 -1 CURVE SMOOTH",
"284 -1 OFFCURVE",
"343 19 OFFCURVE",
"387 54 CURVE",
"401 66 OFFCURVE",
"414 80 OFFCURVE",
"425 96 CURVE",
"438 73 OFFCURVE",
"455 53 OFFCURVE",
"474 35 CURVE SMOOTH",
"524 -11 OFFCURVE",
"594 -35 OFFCURVE",
"669 -35 CURVE SMOOTH"
);
},
{
closed = 1;
nodes = (
"131 56 OFFCURVE",
"65 126 OFFCURVE",
"65 206 CURVE SMOOTH",
"65 307 OFFCURVE",
"177 356 OFFCURVE",
"262 356 CURVE",
"300 343 OFFCURVE",
"329 328 OFFCURVE",
"350 312 CURVE SMOOTH",
"370 296 OFFCURVE",
"385 280 OFFCURVE",
"394 264 CURVE",
"393 251 OFFCURVE",
"392 239 OFFCURVE",
"392 227 CURVE SMOOTH",
"392 210 OFFCURVE",
"393 194 OFFCURVE",
"395 180 CURVE",
"385 160 LINE",
"349 98 OFFCURVE",
"260 51 OFFCURVE",
"215 56 CURVE"
);
}
);
width = 876;
}
);
leftKerningGroup = o;
leftMetricsKey = o;
rightKerningGroup = e;
rightMetricsKey = e;
unicode = 0153;
},
{
color = 3;
glyphname = p;
lastChange = "2016-09-07 22:15:06 +0000";
layers = (
{
anchors = (
{
name = bottom;
position = "{265, 0}";
},
{
name = top;
position = "{265, 353}";
}
);
layerId = UUID0;
paths = (
{
closed = 1;
nodes = (
"166 -354 OFFCURVE",
"178 -348 OFFCURVE",
"188 -333 CURVE SMOOTH",
"190 -330 OFFCURVE",
"201 -328 OFFCURVE",
"198 -322 CURVE SMOOTH",
"126 -212 OFFCURVE",
"111 -46 OFFCURVE",
"101 120 CURVE SMOOTH",
"94 249 OFFCURVE",
"167 291 OFFCURVE",
"283 291 CURVE SMOOTH",
"361 291 OFFCURVE",
"447 245 OFFCURVE",
"447 169 CURVE SMOOTH",
"447 105 OFFCURVE",
"416 75 OFFCURVE",
"331 75 CURVE SMOOTH",
"205 75 OFFCURVE",
"176 172 OFFCURVE",
"144 136 CURVE",
"134 65 OFFCURVE",
"228 27 OFFCURVE",
"330 27 CURVE SMOOTH",
"415 27 OFFCURVE",
"504 53 OFFCURVE",
"504 156 CURVE SMOOTH",
"504 275 OFFCURVE",
"395 347 OFFCURVE",
"283 347 CURVE SMOOTH",
"155 347 OFFCURVE",
"40 298 OFFCURVE",
"40 153 CURVE SMOOTH",
"40 93 OFFCURVE",
"113 -356 OFFCURVE",
"158 -356 CURVE SMOOTH"
);
}
);
width = 544;
}
);
leftKerningGroup = n;
rightKerningGroup = o;
unicode = 0070;
},
{
color = 3;
glyphname = thorn;
lastChange = "2016-09-07 20:13:06 +0000";
layers = (
{
layerId = UUID0;
paths = (
{
closed = 1;
nodes = (
"93 -181 CURVE",
"90 -79 OFFCURVE",
"89 -27 OFFCURVE",
"94 94 CURVE",
"153 68 OFFCURVE",
"224 54 OFFCURVE",
"290 54 CURVE SMOOTH",
"403 54 OFFCURVE",
"501 95 OFFCURVE",
"500 183 CURVE SMOOTH",
"498 320 OFFCURVE",
"399 371 OFFCURVE",
"294 371 CURVE SMOOTH",
"224 371 OFFCURVE",
"150 348 OFFCURVE",
"102 312 CURVE",
"104 509 LINE",
"85 510 OFFCURVE",
"68 506 OFFCURVE",
"57 497 CURVE",
"43 405 OFFCURVE",
"36 232 OFFCURVE",
"36 183 CURVE SMOOTH",
"36 126 OFFCURVE",
"14 -42 OFFCURVE",
"40 -184 CURVE",
"48 -194 OFFCURVE",
"86 -199 OFFCURVE"
);
},
{
closed = 1;
nodes = (
"201 111 OFFCURVE",
"159 122 OFFCURVE",
"96 143 CURVE",
"99 233 LINE",
"99 281 OFFCURVE",
"181 317 OFFCURVE",
"279 317 CURVE SMOOTH",
"397 317 OFFCURVE",
"443 265 OFFCURVE",
"443 196 CURVE SMOOTH",
"443 135 OFFCURVE",
"392 111 OFFCURVE",
"297 111 CURVE SMOOTH"
);
}
);
width = 521;
}
);
leftKerningGroup = h;
rightKerningGroup = o;
unicode = 00FE;
},
{
color = 3;
glyphname = q;
lastChange = "2016-09-07 21:48:12 +0000";
layers = (
{
anchors = (
{
name = bottom;
position = "{227, 0}";
},
{
name = top;
position = "{263, 454}";
}
);
layerId = UUID0;
paths = (
{
closed = 1;
nodes = (
"356 -304 OFFCURVE",
"388 -304 OFFCURVE",
"388 -284 CURVE SMOOTH",
"388 -171 OFFCURVE",
"367 -58 OFFCURVE",
"367 57 CURVE",
"396 394 LINE",
"396 463 OFFCURVE",
"316 498 OFFCURVE",
"263 498 CURVE SMOOTH",
"124 498 OFFCURVE",
"40 366 OFFCURVE",
"40 235 CURVE SMOOTH",
"40 126 OFFCURVE",
"91 19 OFFCURVE",
"218 19 CURVE SMOOTH",
"248 19 OFFCURVE",
"281 25 OFFCURVE",
"314 47 CURVE",
"333 -304 LINE"
);
},
{
closed = 1;
nodes = (
"133 83 OFFCURVE",
"98 140 OFFCURVE",
"98 245 CURVE SMOOTH",
"98 356 OFFCURVE",
"148 449 OFFCURVE",
"246 449 CURVE SMOOTH",
"287 449 OFFCURVE",
"343 429 OFFCURVE",
"343 385 CURVE",
"337 295 OFFCURVE",
"328 184 OFFCURVE",
"314 104 CURVE",
"288 87 OFFCURVE",
"246 83 OFFCURVE",
"215 83 CURVE SMOOTH"
);
}
);
width = 416;
}
);
leftKerningGroup = o;
rightKerningGroup = q;
unicode = 0071;
},
{
color = 3;
glyphname = r;
lastChange = "2016-09-07 22:17:55 +0000";
layers = (
{
anchors = (
{
name = bottom;
position = "{136, 0}";
},
{
name = top;
position = "{166, 422}";
}
);
layerId = UUID0;
paths = (
{
closed = 1;
nodes = (
"147 0 OFFCURVE",
"168 8 OFFCURVE",
"168 32 CURVE SMOOTH",
"164 138 OFFCURVE",
"76 196 OFFCURVE",
"113 307 CURVE SMOOTH",
"137 397 OFFCURVE",
"224 408 OFFCURVE",
"310 366 CURVE",
"310 428 OFFCURVE",
"275 450 OFFCURVE",
"209 450 CURVE SMOOTH",
"147 450 OFFCURVE",
"103 404 OFFCURVE",
"89 333 CURVE",
"78 397 OFFCURVE",
"81 434 OFFCURVE",
"54 415 CURVE SMOOTH",
"37 403 OFFCURVE",
"40 377 OFFCURVE",
"41 350 CURVE SMOOTH",
"45 253 OFFCURVE",
"74 104 OFFCURVE",
"128 0 CURVE"
);
}
);
width = 310;
}
);
leftKerningGroup = n;
rightKerningGroup = r;
unicode = 0072;
},
{
color = 3;
glyphname = s;
lastChange = "2016-09-07 22:18:05 +0000";
layers = (
{
anchors = (
{
name = bottom;
position = "{246, 30}";
},
{
name = top;
position = "{236, 431}";
}
);
layerId = UUID0;
paths = (
{
closed = 1;
nodes = (
"178 -1 OFFCURVE",
"291 -1 CURVE SMOOTH",
"379 -1 OFFCURVE",
"464 39 OFFCURVE",
"464 117 CURVE SMOOTH",
"464 231 OFFCURVE",
"379 244 OFFCURVE",
"298 254 CURVE SMOOTH",
"206 263 OFFCURVE",
"119 270 OFFCURVE",
"117 333 CURVE SMOOTH",
"115 370 OFFCURVE",
"159 404 OFFCURVE",
"239 404 CURVE SMOOTH",
"286 404 OFFCURVE",
"330 389 OFFCURVE",
"337 356 CURVE",
"316 319 OFFCURVE",
"328 299 OFFCURVE",
"345 299 CURVE SMOOTH",
"361 299 OFFCURVE",
"380 318 OFFCURVE",
"377 357 CURVE",
"375 423 OFFCURVE",
"305 455 OFFCURVE",
"231 455 CURVE SMOOTH",
"155 455 OFFCURVE",
"63 426 OFFCURVE",
"63 348 CURVE SMOOTH",
"63 242 OFFCURVE",
"144 225 OFFCURVE",
"261 211 CURVE SMOOTH",
"336 200 OFFCURVE",
"418 188 OFFCURVE",
"418 123 CURVE SMOOTH",
"418 76 OFFCURVE",
"348 51 OFFCURVE",
"286 51 CURVE SMOOTH",
"228 51 OFFCURVE",
"169 64 OFFCURVE",
"138 89 CURVE SMOOTH",
"104 116 OFFCURVE",
"79 145 OFFCURVE",
"45 118 CURVE",
"62 38 OFFCURVE"
);
}
);
width = 509;
}
);
leftKerningGroup = s;
rightKerningGroup = s;
unicode = 0073;
},
{
color = 3;
glyphname = germandbls;
lastChange = "2016-09-07 22:10:41 +0000";
layers = (
{
layerId = UUID0;
paths = (
{
closed = 1;
nodes = (
"86 628 LINE",
"106 642 OFFCURVE",
"131 648 OFFCURVE",
"158 648 CURVE SMOOTH",
"226 648 OFFCURVE",
"302 607 OFFCURVE",
"302 549 CURVE SMOOTH",
"302 486 OFFCURVE",
"259 455 OFFCURVE",
"179 437 CURVE",
"179 379 OFFCURVE",
"427 321 OFFCURVE",
"427 184 CURVE SMOOTH",
"427 72 OFFCURVE",
"326 69 OFFCURVE",
"226 81 CURVE",
"210 54 OFFCURVE",
"220 26 OFFCURVE",
"241 24 CURVE SMOOTH",
"336 15 OFFCURVE",
"483 33 OFFCURVE",
"483 172 CURVE SMOOTH",
"483 292 OFFCURVE",
"378 356 OFFCURVE",
"248 421 CURVE",
"308 441 OFFCURVE",
"357 489 OFFCURVE",
"357 552 CURVE SMOOTH",
"357 637 OFFCURVE",
"251 690 OFFCURVE",
"161 690 CURVE SMOOTH",
"98 690 OFFCURVE",
"44 665 OFFCURVE",
"40 609 CURVE SMOOTH",
"34 508 OFFCURVE",
"90 98 OFFCURVE",
"74 -99 CURVE SMOOTH",
"72 -124 OFFCURVE",
"104 -129 OFFCURVE",
"141 -114 CURVE"
);
}
);
width = 523;
},
{
associatedMasterId = UUID0;
layerId = "5C0BA31A-CBC9-45D8-9F46-3D8072E8FF70";
name = "Sep 7 16, 22:21";
paths = (
{
closed = 1;
nodes = (
"94 600 LINE",
"122 622 OFFCURVE",
"165 629 OFFCURVE",
"201 629 CURVE SMOOTH",
"251 629 OFFCURVE",
"321 596 OFFCURVE",
"321 539 CURVE SMOOTH",
"321 436 OFFCURVE",
"168 461 OFFCURVE",
"168 417 CURVE SMOOTH",
"168 334 OFFCURVE",
"506 344 OFFCURVE",
"506 154 CURVE SMOOTH",
"506 64 OFFCURVE",
"305 81 OFFCURVE",
"225 81 CURVE",
"212 25 OFFCURVE",
"229 24 OFFCURVE",
"250 24 CURVE SMOOTH",
"338 24 OFFCURVE",
"572 33 OFFCURVE",
"572 142 CURVE SMOOTH",
"572 297 OFFCURVE",
"308 408 OFFCURVE",
"308 412 CURVE SMOOTH",
"308 440 OFFCURVE",
"376 484 OFFCURVE",
"376 552 CURVE SMOOTH",
"376 645 OFFCURVE",
"208 693 OFFCURVE",
"137 693 CURVE",
"-112 740 OFFCURVE",
"172 195 OFFCURVE",
"63 -99 CURVE",
"58 -124 OFFCURVE",
"146 -134 OFFCURVE",
"150 -134 CURVE"
);
}
);
width = 591;
}
);
leftKerningGroup = h;
rightKerningGroup = germandbls;
unicode = 00DF;
},
{
color = 3;
glyphname = t;
lastChange = "2016-09-07 22:18:01 +0000";
layers = (
{
anchors = (
{
name = bottom;
position = "{184, 24}";
},
{
name = center;
position = "{170, 227}";
},
{
name = top;
position = "{170, 454}";
},
{
name = topright;
position = "{241, 556}";
}
);
layerId = UUID0;
paths = (
{
closed = 1;
nodes = (
"201 12 OFFCURVE",
"191 230 OFFCURVE",
"191 347 CURVE",
"252 347 OFFCURVE",
"290 346 OFFCURVE",
"321 360 CURVE",
"320 389 OFFCURVE",
"298 400 OFFCURVE",
"274 397 CURVE",
"191 401 LINE",
"184 584 LINE",
"184 599 OFFCURVE",
"173 622 OFFCURVE",
"156 622 CURVE SMOOTH",
"146 622 OFFCURVE",
"128 618 OFFCURVE",
"128 602 CURVE",
"131 509 OFFCURVE",
"136 493 OFFCURVE",
"138 399 CURVE",
"29 392 LINE",
"15 392 OFFCURVE",
"15 382 OFFCURVE",
"15 373 CURVE SMOOTH",
"15 344 OFFCURVE",
"120 345 OFFCURVE",
"138 345 CURVE",
"135 187 OFFCURVE",
"115 -24 OFFCURVE",
"201 0 CURVE"
);
}
);
width = 336;
}
);
leftKerningGroup = t;
rightKerningGroup = t;
unicode = 0074;
},
{
color = 3;
glyphname = u;
lastChange = "2016-09-07 22:18:10 +0000";
layers = (
{
anchors = (
{
name = bottom;
position = "{259, 0}";
},
{
name = ogonek;
position = "{465, 7}";
},
{
name = top;
position = "{259, 454}";
},
{
name = topright;
position = "{481, 426}";
}
);
layerId = UUID0;
paths = (
{
closed = 1;
nodes = (
"517 5 OFFCURVE",
"529 12 OFFCURVE",
"529 35 CURVE SMOOTH",
"529 62 OFFCURVE",
"471 158 OFFCURVE",
"456 244 CURVE",
"459 338 OFFCURVE",
"460 424 OFFCURVE",
"428 424 CURVE SMOOTH",
"415 424 OFFCURVE",
"406 418 OFFCURVE",
"398 403 CURVE",
"398 244 LINE SMOOTH",
"398 178 OFFCURVE",
"340 94 OFFCURVE",
"258 94 CURVE SMOOTH",
"138 94 OFFCURVE",
"86 288 OFFCURVE",
"114 412 CURVE SMOOTH",
"121 444 OFFCURVE",
"126 469 OFFCURVE",
"109 469 CURVE SMOOTH",
"89 470 OFFCURVE",
"60 430 OFFCURVE",
"60 349 CURVE SMOOTH",
"60 189 OFFCURVE",
"119 36 OFFCURVE",
"249 36 CURVE SMOOTH",
"341 36 OFFCURVE",
"406 94 OFFCURVE",
"428 182 CURVE",
"456 47 OFFCURVE",
"464 5 OFFCURVE",
"500 5 CURVE SMOOTH"
);
}
);
width = 569;
},
{
anchors = (
{
name = bottom;
position = "{216, 0}";
},
{
name = ogonek;
position = "{452, 10}";
},
{
name = top;
position = "{216, 454}";
},
{
name = topright;
position = "{425, 423}";
}
);
associatedMasterId = UUID0;
layerId = "4551E440-99E9-4AB8-A428-A2EB5B9AF279";
name = "Sep 7 16, 22:25";
paths = (
{
closed = 1;
nodes = (
"474 5 OFFCURVE",
"486 6 OFFCURVE",
"486 25 CURVE SMOOTH",
"486 51 OFFCURVE",
"445 135 OFFCURVE",
"432 188 CURVE",
"421 214 OFFCURVE",
"436 424 OFFCURVE",
"385 424 CURVE SMOOTH",
"372 424 OFFCURVE",
"363 418 OFFCURVE",
"355 403 CURVE",
"355 244 LINE SMOOTH",
"355 198 OFFCURVE",
"271 94 OFFCURVE",
"225 94 CURVE SMOOTH",
"114 94 OFFCURVE",
"65 285 OFFCURVE",
"65 366 CURVE SMOOTH",
"65 374 OFFCURVE",
"71 413 OFFCURVE",
"74 423 CURVE",
"95 504 OFFCURVE",
"-5 490 OFFCURVE",
"17 349 CURVE",
"17 239 OFFCURVE",
"76 36 OFFCURVE",
"216 36 CURVE SMOOTH",
"298 36 OFFCURVE",
"315 107 OFFCURVE",
"375 142 CURVE",
"439 105 OFFCURVE",
"396 5 OFFCURVE",
"457 5 CURVE SMOOTH"
);
}
);
width = 502;
}
);
leftKerningGroup = u;
rightKerningGroup = u;
unicode = 0075;
},
{
color = 3;
glyphname = v;
lastChange = "2016-09-07 22:12:53 +0000";
layers = (
{
anchors = (
{
name = bottom;
position = "{205, 0}";
},
{
name = top;
position = "{185, 334}";
}
);
layerId = UUID0;
paths = (
{
closed = 1;
nodes = (
"267 -6 OFFCURVE",
"348 313 OFFCURVE",
"376 341 CURVE",
"410 380 OFFCURVE",
"345 399 OFFCURVE",
"333 373 CURVE SMOOTH",
"279 248 OFFCURVE",
"243 169 OFFCURVE",
"215 67 CURVE",
"137 192 OFFCURVE",
"96 297 OFFCURVE",
"48 395 CURVE",
"13 396 OFFCURVE",
"0 378 OFFCURVE",
"0 367 CURVE",
"37 292 OFFCURVE",
"158 -1 OFFCURVE",
"212 -1 CURVE"
);
}
);
width = 386;
},
{
anchors = (
{
name = bottom;
position = "{205, 0}";
},
{
name = top;
position = "{185, 366}";
}
);
associatedMasterId = UUID0;
layerId = "B32D8F9F-E4F9-4026-B4F7-115A3A4EB64D";
name = "Sep 7 16, 22:29";
paths = (
{
closed = 1;
nodes = (
"260 -5 OFFCURVE",
"328 263 OFFCURVE",
"356 291 CURVE",
"390 330 OFFCURVE",
"375 352 OFFCURVE",
"313 323 CURVE",
"261 230 OFFCURVE",
"238 166 OFFCURVE",
"215 87 CURVE",
"112 167 OFFCURVE",
"129 332 OFFCURVE",
"38 375 CURVE",
"36 375 LINE SMOOTH",
"33 375 OFFCURVE",
"33 376 OFFCURVE",
"33 376 CURVE",
"23 376 OFFCURVE",
"10 354 OFFCURVE",
"10 347 CURVE",
"45 276 OFFCURVE",
"161 -1 OFFCURVE",
"212 -1 CURVE"
);
}
);
width = 390;
}
);
leftKerningGroup = v;
rightKerningGroup = v;
unicode = 0076;
},
{
color = 3;
glyphname = w;
lastChange = "2016-09-07 22:15:38 +0000";
layers = (
{
anchors = (
{
name = bottom;
position = "{328, 0}";
},
{
name = top;
position = "{328, 318}";
}
);
layerId = UUID0;
paths = (
{
closed = 1;
nodes = (
"583 5 OFFCURVE",
"616 75 OFFCURVE",
"616 150 CURVE SMOOTH",
"616 235 OFFCURVE",
"585 328 OFFCURVE",
"548 336 CURVE",
"534 340 OFFCURVE",
"515 330 OFFCURVE",
"517 318 CURVE",
"545 281 OFFCURVE",
"570 214 OFFCURVE",
"570 157 CURVE SMOOTH",
"570 101 OFFCURVE",
"545 54 OFFCURVE",
"473 54 CURVE SMOOTH",
"328 54 OFFCURVE",
"392 298 OFFCURVE",
"338 298 CURVE SMOOTH",
"322 298 OFFCURVE",
"310 288 OFFCURVE",
"310 280 CURVE",
"317 178 LINE",
"317 105 OFFCURVE",
"273 43 OFFCURVE",
"191 43 CURVE SMOOTH",
"118 43 OFFCURVE",
"84 116 OFFCURVE",
"84 206 CURVE SMOOTH",
"84 293 OFFCURVE",
"106 322 OFFCURVE",
"106 365 CURVE SMOOTH",
"106 381 OFFCURVE",
"106 395 OFFCURVE",
"85 403 CURVE",
"43 356 OFFCURVE",
"30 303 OFFCURVE",
"30 228 CURVE SMOOTH",
"30 54 OFFCURVE",
"94 -9 OFFCURVE",
"192 -9 CURVE SMOOTH",
"250 -9 OFFCURVE",
"304 23 OFFCURVE",
"345 94 CURVE",
"364 33 OFFCURVE",
"409 5 OFFCURVE",
"484 5 CURVE SMOOTH"
);
}
);
width = 656;
},
{
anchors = (
{
name = bottom;
position = "{328, 0}";
},
{
name = top;
position = "{328, 378}";
}
);
associatedMasterId = UUID0;
layerId = "DA1BB7F5-1989-4E80-9C1B-E017B0A5CB7E";
name = "Sep 7 16, 22:30";
paths = (
{
closed = 1;
nodes = (
"694 99 OFFCURVE",
"607 340 OFFCURVE",
"538 356 CURVE",
"528 356 OFFCURVE",
"512 356 OFFCURVE",
"517 338 CURVE",
"572 264 OFFCURVE",
"619 74 OFFCURVE",
"473 74 CURVE SMOOTH",
"328 74 OFFCURVE",
"392 318 OFFCURVE",
"338 318 CURVE SMOOTH",
"332 318 OFFCURVE",
"310 308 OFFCURVE",
"310 300 CURVE",
"304 174 LINE",
"304 121 OFFCURVE",
"216 63 OFFCURVE",
"171 63 CURVE SMOOTH",
"98 63 OFFCURVE",
"64 206 OFFCURVE",
"64 256 CURVE SMOOTH",
"64 303 OFFCURVE",
"86 342 OFFCURVE",
"86 385 CURVE SMOOTH",
"86 401 OFFCURVE",
"86 415 OFFCURVE",
"65 423 CURVE",
"-96 241 OFFCURVE",
"126 -186 OFFCURVE",
"338 94 CURVE",
"407 24 OFFCURVE",
"386 7 OFFCURVE",
"554 19 CURVE"
);
}
);
width = 656;
}
);
leftKerningGroup = w;
rightKerningGroup = w;
unicode = 0077;
},
{
color = 3;
glyphname = x;
lastChange = "2016-09-07 21:49:32 +0000";
layers = (
{
anchors = (
{
name = bottom;
position = "{204, 0}";
},
{
name = top;
position = "{191, 362}";
}
);
layerId = UUID0;
paths = (
{
closed = 1;
nodes = (
"184 171 LINE",
"262 88 OFFCURVE",
"300 42 OFFCURVE",
"369 -17 CURVE",
"385 -20 OFFCURVE",
"404 -13 OFFCURVE",
"406 13 CURVE",
"357 81 OFFCURVE",
"278 155 OFFCURVE",
"225 199 CURVE"
);
},
{
closed = 1;
nodes = (
"205 219 LINE",
"149 266 OFFCURVE",
"104 322 OFFCURVE",
"32 392 CURVE",
"16 392 OFFCURVE",
"2 380 OFFCURVE",
"-1 361 CURVE",
"20 321 OFFCURVE",
"45 304 OFFCURVE",
"175 171 CURVE"
);
},
{
closed = 1;
nodes = (
"242 219 OFFCURVE",
"410 354 OFFCURVE",
"410 372 CURVE",
"407 388 OFFCURVE",
"398 395 OFFCURVE",
"386 395 CURVE SMOOTH",
"335 395 OFFCURVE",
"235 269 OFFCURVE",
"188 219 CURVE SMOOTH",
"105 131 OFFCURVE",
"61 83 OFFCURVE",
"46 43 CURVE SMOOTH",
"36 16 OFFCURVE",
"55 7 OFFCURVE",
"74 7 CURVE",
"101 16 OFFCURVE",
"154 124 OFFCURVE",
"204 168 CURVE SMOOTH"
);
}
);
width = 448;
}
);
leftKerningGroup = x;
rightKerningGroup = x;
unicode = 0078;
},
{
color = 3;
glyphname = y;
lastChange = "2016-09-07 22:18:14 +0000";
layers = (
{
anchors = (
{
name = bottom;
position = "{277, 0}";
},
{
name = top;
position = "{235, 416}";
}
);
layerId = UUID0;
paths = (
{
closed = 1;
nodes = (
"487 -473 OFFCURVE",
"525 -201 OFFCURVE",
"514 48 CURVE SMOOTH",
"504 255 OFFCURVE",
"460 446 OFFCURVE",
"431 446 CURVE SMOOTH",
"410 446 OFFCURVE",
"400 430 OFFCURVE",
"407 380 CURVE SMOOTH",
"412 363 OFFCURVE",
"447 265 OFFCURVE",
"447 179 CURVE",
"418 127 OFFCURVE",
"339 74 OFFCURVE",
"272 74 CURVE SMOOTH",
"93 74 OFFCURVE",
"98 432 OFFCURVE",
"81 432 CURVE SMOOTH",
"47 432 OFFCURVE",
"34 400 OFFCURVE",
"42 335 CURVE SMOOTH",
"58 211 OFFCURVE",
"116 19 OFFCURVE",
"269 19 CURVE SMOOTH",
"351 19 OFFCURVE",
"414 52 OFFCURVE",
"463 112 CURVE",
"475 -20 OFFCURVE",
"459 -430 OFFCURVE",
"315 -427 CURVE SMOOTH",
"198 -424 OFFCURVE",
"153 -355 OFFCURVE",
"118 -271 CURVE",
"90 -268 OFFCURVE",
"66 -285 OFFCURVE",
"71 -315 CURVE SMOOTH",
"78 -356 OFFCURVE",
"166 -473 OFFCURVE",
"314 -473 CURVE SMOOTH"
);
}
);
width = 556;
}
);
leftKerningGroup = y;
rightKerningGroup = y;
unicode = 0079;
},
{
color = 3;
glyphname = z;
lastChange = "2016-09-07 21:50:36 +0000";
layers = (
{
anchors = (
{
name = bottom;
position = "{217, 0}";
},
{
name = top;
position = "{180, 494}";
}
);
layerId = UUID0;
paths = (
{
closed = 1;
nodes = (
"206 255 LINE",
"151 201 OFFCURVE",
"70 106 OFFCURVE",
"70 56 CURVE SMOOTH",
"70 9 OFFCURVE",
"142 0 OFFCURVE",
"177 0 CURVE SMOOTH",
"228 0 OFFCURVE",
"419 21 OFFCURVE",
"419 80 CURVE SMOOTH",
"419 92 OFFCURVE",
"410 104 OFFCURVE",
"399 112 CURVE",
"347 73 OFFCURVE",
"294 49 OFFCURVE",
"202 49 CURVE",
"162 54 OFFCURVE",
"143 62 OFFCURVE",
"140 75 CURVE SMOOTH",
"132 102 OFFCURVE",
"180 172 OFFCURVE",
"252 250 CURVE"
);
},
{
closed = 1;
nodes = (
"75 277 LINE SMOOTH",
"55 277 OFFCURVE",
"46 279 OFFCURVE",
"45 256 CURVE SMOOTH",
"44 238 OFFCURVE",
"47 232 OFFCURVE",
"55 232 CURVE SMOOTH",
"374 233 LINE",
"382 233 OFFCURVE",
"393 241 OFFCURVE",
"394 255 CURVE SMOOTH",
"395 272 OFFCURVE",
"386 277 OFFCURVE",
"331 277 CURVE SMOOTH"
);
},
{
closed = 1;
nodes = (
"267 255 LINE",
"304 309 OFFCURVE",
"355 370 OFFCURVE",
"355 422 CURVE SMOOTH",
"355 468 OFFCURVE",
"327 510 OFFCURVE",
"293 517 CURVE SMOOTH",
"154 546 OFFCURVE",
"52 496 OFFCURVE",
"52 446 CURVE SMOOTH",
"52 423 OFFCURVE",
"57 411 OFFCURVE",
"90 411 CURVE",
"97 461 OFFCURVE",
"186 492 OFFCURVE",
"285 472 CURVE",
"337 413 OFFCURVE",
"282 343 OFFCURVE",
"215 259 CURVE"
);
}
);
width = 419;
}
);
leftKerningGroup = z;
rightKerningGroup = z;
unicode = 007A;
},
{
color = 4;
glyphname = f_f;
lastChange = "2016-09-07 21:53:42 +0000";
layers = (
{
layerId = UUID0;
paths = (
{
closed = 1;
nodes = (
"383 325 LINE",
"285 326 OFFCURVE",
"172 321 OFFCURVE",
"155 323 CURVE",
"143 438 OFFCURVE",
"150 548 OFFCURVE",
"267 548 CURVE SMOOTH",
"325 548 OFFCURVE",
"352 506 OFFCURVE",
"379 478 CURVE",
"394 551 LINE",
"361 582 OFFCURVE",
"314 604 OFFCURVE",
"266 604 CURVE SMOOTH",
"99 604 OFFCURVE",
"97 405 OFFCURVE",
"104 318 CURVE",
"72 315 OFFCURVE",
"0 315 OFFCURVE",
"0 272 CURVE SMOOTH",
"0 262 OFFCURVE",
"3 253 OFFCURVE",
"14 253 CURVE SMOOTH",
"44 252 OFFCURVE",
"80 270 OFFCURVE",
"123 275 CURVE",
"197 80 OFFCURVE",
"217 -1 OFFCURVE",
"245 -1 CURVE SMOOTH",
"261 -1 OFFCURVE",
"272 3 OFFCURVE",
"272 19 CURVE SMOOTH",
"272 65 OFFCURVE",
"225 138 OFFCURVE",
"163 283 CURVE",
"261 284 OFFCURVE",
"338 287 OFFCURVE",
"388 287 CURVE"
);
},
{
closed = 1;
nodes = (
"392 704 OFFCURVE",
"332 545 OFFCURVE",
"377 275 CURVE SMOOTH",
"410 171 OFFCURVE",
"451 -1 OFFCURVE",
"499 -1 CURVE SMOOTH",
"515 -1 OFFCURVE",
"526 3 OFFCURVE",
"526 19 CURVE SMOOTH",
"526 65 OFFCURVE",
"449 158 OFFCURVE",
"417 283 CURVE",
"537 255 OFFCURVE",
"611 258 OFFCURVE",
"611 291 CURVE SMOOTH",
"611 305 OFFCURVE",
"606 311 OFFCURVE",
"592 311 CURVE SMOOTH",
"503 312 OFFCURVE",
"463 319 OFFCURVE",
"409 325 CURVE",
"401 377 OFFCURVE",
"399 427 OFFCURVE",
"405 479 CURVE SMOOTH",
"414 562 OFFCURVE",
"463 648 OFFCURVE",
"541 648 CURVE SMOOTH",
"647 648 OFFCURVE",
"636 524 OFFCURVE",
"718 554 CURVE",
"718 625 OFFCURVE",
"632 704 OFFCURVE",
"540 704 CURVE SMOOTH"
);
}
);
width = 718;
}
);
leftKerningGroup = f;
leftMetricsKey = f;
rightKerningGroup = f;
rightMetricsKey = f;
},
{
color = 4;
glyphname = f_f_i;
lastChange = "2016-09-07 21:56:58 +0000";
layers = (
{
background = {
anchors = (
{
name = _top;
position = "{593, 444}";
},
{
name = bottom;
position = "{639, 0}";
},
{
name = ogonek;
position = "{596.959, 3.047}";
},
{
name = top;
position = "{593.361, 444}";
}
);
components = (
{
name = dotaccent;
transform = "{1, 0, 0, 1, 512, -6}";
}
);
paths = (
{
closed = 1;
nodes = (
"637 -1 OFFCURVE",
"646 23 OFFCURVE",
"644 40 CURVE SMOOTH",
"630 157 OFFCURVE",
"606 153 OFFCURVE",
"611 292 CURVE",
"611 305 OFFCURVE",
"600 311 OFFCURVE",
"585 311 CURVE SMOOTH",
"562 311 OFFCURVE",
"559 286 OFFCURVE",
"562 205 CURVE SMOOTH",
"564 159 OFFCURVE",
"570 -1 OFFCURVE",
"621 -1 CURVE SMOOTH"
);
}
);
};
components = (
{
name = f_f;
},
{
name = dotaccent;
transform = "{1, 0, 0, 1, 512, -6}";
}
);
layerId = UUID0;
paths = (
{
closed = 1;
nodes = (
"637 -1 OFFCURVE",
"646 23 OFFCURVE",
"644 40 CURVE SMOOTH",
"630 157 OFFCURVE",
"606 153 OFFCURVE",
"611 292 CURVE",
"611 305 OFFCURVE",
"600 311 OFFCURVE",
"585 311 CURVE SMOOTH",
"562 311 OFFCURVE",
"559 286 OFFCURVE",
"562 205 CURVE SMOOTH",
"564 159 OFFCURVE",
"570 -1 OFFCURVE",
"621 -1 CURVE SMOOTH"
);
}
);
width = 768;
}
);
leftKerningGroup = f;
leftMetricsKey = f;
rightKerningGroup = idotless;
rightMetricsKey = i;
},
{
color = 4;
glyphname = f_f_l;
lastChange = "2016-09-07 21:58:16 +0000";
layers = (
{
background = {
components = (
{
name = fl;
transform = "{1, 0, 0, 1, 280, 0}";
}
);
};
components = (
{
name = f_f;
}
);
layerId = UUID0;
paths = (
{
closed = 1;
nodes = (
"637 4 OFFCURVE",
"656 2 OFFCURVE",
"655 21 CURVE SMOOTH",
"647 180 OFFCURVE",
"637 293 OFFCURVE",
"637 493 CURVE",
"637 513 OFFCURVE",
"635 526 OFFCURVE",
"612 526 CURVE SMOOTH",
"601 526 OFFCURVE",
"592 523 OFFCURVE",
"592 513 CURVE",
"593 328 OFFCURVE",
"583 211 OFFCURVE",
"622 7 CURVE"
);
}
);
width = 758;
}
);
leftKerningGroup = f;
leftMetricsKey = f;
rightKerningGroup = l;
rightMetricsKey = l;
},
{
color = 4;
glyphname = fi;
lastChange = "2016-09-07 22:00:03 +0000";
layers = (
{
background = {
components = (
{
name = f;
},
{
name = idotless;
transform = "{1, 0, 0, 1, 290, 0}";
},
{
name = dotaccentcomb;
transform = "{1, 0, 0, 1, 237, -66}";
}
);
};
components = (
{
name = dotaccent;
transform = "{1, 0, 0, 1, 237, 32}";
}
);
layerId = UUID0;
paths = (
{
closed = 1;
nodes = (
"98 704 OFFCURVE",
"96 436 OFFCURVE",
"104 318 CURVE",
"72 315 OFFCURVE",
"0 315 OFFCURVE",
"0 272 CURVE SMOOTH",
"0 262 OFFCURVE",
"3 253 OFFCURVE",
"14 253 CURVE SMOOTH",
"44 252 OFFCURVE",
"80 270 OFFCURVE",
"123 275 CURVE",
"156 171 OFFCURVE",
"197 -1 OFFCURVE",
"245 -1 CURVE SMOOTH",
"261 -1 OFFCURVE",
"272 3 OFFCURVE",
"272 19 CURVE SMOOTH",
"272 65 OFFCURVE",
"195 158 OFFCURVE",
"163 283 CURVE",
"283 255 OFFCURVE",
"357 258 OFFCURVE",
"357 291 CURVE SMOOTH",
"357 305 OFFCURVE",
"352 311 OFFCURVE",
"338 311 CURVE",
"234 317 OFFCURVE",
"176 320 OFFCURVE",
"155 323 CURVE",
"147 375 OFFCURVE",
"145 427 OFFCURVE",
"151 479 CURVE SMOOTH",
"160 562 OFFCURVE",
"209 648 OFFCURVE",
"287 648 CURVE SMOOTH",
"373 648 OFFCURVE",
"391 554 OFFCURVE",
"442 554 CURVE SMOOTH",
"464 554 LINE",
"464 625 OFFCURVE",
"378 704 OFFCURVE",
"286 704 CURVE SMOOTH"
);
},
{
closed = 1;
nodes = (
"417 -1 OFFCURVE",
"426 23 OFFCURVE",
"424 40 CURVE SMOOTH",
"408 177 OFFCURVE",
"382 284 OFFCURVE",
"387 423 CURVE",
"380 436 OFFCURVE",
"373 442 OFFCURVE",
"358 442 CURVE SMOOTH",
"335 442 OFFCURVE",
"332 417 OFFCURVE",
"335 338 CURVE SMOOTH",
"337 292 OFFCURVE",
"350 -1 OFFCURVE",
"401 -1 CURVE SMOOTH"
);
}
);
width = 644;
}
);
leftKerningGroup = f;
rightKerningGroup = i;
unicode = FB01;
},
{
color = 4;
glyphname = fl;
lastChange = "2016-09-07 22:00:03 +0000";
layers = (
{
background = {
anchors = (
{
name = top;
position = "{374, 749}";
}
);
paths = (
{
closed = 1;
nodes = (
"389 4 OFFCURVE",
"408 2 OFFCURVE",
"407 21 CURVE SMOOTH",
"398 190 OFFCURVE",
"377 162 OFFCURVE",
"377 525 CURVE",
"377 545 OFFCURVE",
"375 558 OFFCURVE",
"352 558 CURVE SMOOTH",
"341 558 OFFCURVE",
"332 555 OFFCURVE",
"332 545 CURVE",
"323 349 OFFCURVE",
"335 223 OFFCURVE",
"374 7 CURVE"
);
},
{
closed = 1;
nodes = (
"98 704 OFFCURVE",
"96 436 OFFCURVE",
"104 318 CURVE",
"72 315 OFFCURVE",
"0 315 OFFCURVE",
"0 272 CURVE SMOOTH",
"0 262 OFFCURVE",
"3 253 OFFCURVE",
"14 253 CURVE SMOOTH",
"44 252 OFFCURVE",
"80 270 OFFCURVE",
"123 275 CURVE",
"156 171 OFFCURVE",
"197 -1 OFFCURVE",
"245 -1 CURVE SMOOTH",
"261 -1 OFFCURVE",
"272 3 OFFCURVE",
"272 19 CURVE SMOOTH",
"272 65 OFFCURVE",
"195 158 OFFCURVE",
"163 283 CURVE",
"283 255 OFFCURVE",
"357 258 OFFCURVE",
"357 291 CURVE SMOOTH",
"357 305 OFFCURVE",
"352 311 OFFCURVE",
"338 311 CURVE",
"234 317 OFFCURVE",
"176 320 OFFCURVE",
"155 323 CURVE",
"147 375 OFFCURVE",
"145 427 OFFCURVE",
"151 479 CURVE SMOOTH",
"160 562 OFFCURVE",
"209 648 OFFCURVE",
"287 648 CURVE SMOOTH",
"373 648 OFFCURVE",
"391 554 OFFCURVE",
"442 554 CURVE SMOOTH",
"464 554 LINE",
"464 625 OFFCURVE",
"378 704 OFFCURVE",
"286 704 CURVE SMOOTH"
);
}
);
};
layerId = UUID0;
paths = (
{
closed = 1;
nodes = (
"389 4 OFFCURVE",
"408 2 OFFCURVE",
"407 21 CURVE SMOOTH",
"398 190 OFFCURVE",
"377 132 OFFCURVE",
"377 495 CURVE",
"377 515 OFFCURVE",
"375 528 OFFCURVE",
"352 528 CURVE SMOOTH",
"341 528 OFFCURVE",
"332 525 OFFCURVE",
"332 515 CURVE",
"323 319 OFFCURVE",
"335 223 OFFCURVE",
"374 7 CURVE"
);
},
{
closed = 1;
nodes = (
"98 704 OFFCURVE",
"96 436 OFFCURVE",
"104 318 CURVE",
"72 315 OFFCURVE",
"0 315 OFFCURVE",
"0 272 CURVE SMOOTH",
"0 262 OFFCURVE",
"3 253 OFFCURVE",
"14 253 CURVE SMOOTH",
"44 252 OFFCURVE",
"80 270 OFFCURVE",
"123 275 CURVE",
"156 171 OFFCURVE",
"197 -1 OFFCURVE",
"245 -1 CURVE SMOOTH",
"261 -1 OFFCURVE",
"272 3 OFFCURVE",
"272 19 CURVE SMOOTH",
"272 65 OFFCURVE",
"195 158 OFFCURVE",
"163 283 CURVE",
"283 255 OFFCURVE",
"357 258 OFFCURVE",
"357 291 CURVE SMOOTH",
"357 305 OFFCURVE",
"352 311 OFFCURVE",
"338 311 CURVE",
"234 317 OFFCURVE",
"176 320 OFFCURVE",
"155 323 CURVE",
"147 375 OFFCURVE",
"145 427 OFFCURVE",
"151 479 CURVE SMOOTH",
"160 562 OFFCURVE",
"209 648 OFFCURVE",
"287 648 CURVE SMOOTH",
"373 648 OFFCURVE",
"391 554 OFFCURVE",
"442 554 CURVE SMOOTH",
"464 554 LINE",
"464 625 OFFCURVE",
"378 704 OFFCURVE",
"286 704 CURVE SMOOTH"
);
}
);
width = 504;
}
);
leftKerningGroup = f;
leftMetricsKey = f;
rightKerningGroup = l;
rightMetricsKey = l;
unicode = FB02;
},
{
color = 3;
glyphname = zero;
lastChange = "2016-09-07 20:13:06 +0000";
layers = (
{
layerId = UUID0;
paths = (
{
closed = 1;
nodes = (
"347 -1 OFFCURVE",
"404 90 OFFCURVE",
"404 207 CURVE SMOOTH",
"404 319 OFFCURVE",
"310 432 OFFCURVE",
"221 432 CURVE SMOOTH",
"124 432 OFFCURVE",
"19 337 OFFCURVE",
"19 218 CURVE SMOOTH",
"19 77 OFFCURVE",
"111 -1 OFFCURVE",
"232 -1 CURVE SMOOTH"
);
},
{
closed = 1;
nodes = (
"126 56 OFFCURVE",
"53 115 OFFCURVE",
"65 225 CURVE SMOOTH",
"76 321 OFFCURVE",
"135 376 OFFCURVE",
"215 376 CURVE SMOOTH",
"299 376 OFFCURVE",
"348 289 OFFCURVE",
"348 198 CURVE SMOOTH",
"348 110 OFFCURVE",
"310 56 OFFCURVE",
"217 56 CURVE SMOOTH"
);
}
);
width = 432;
},
{
associatedMasterId = UUID0;
layerId = "8AFD572A-DE84-41C0-8FC4-F0D1507D4C59";
name = "Sep 6 16, 13:55";
paths = (
{
closed = 1;
nodes = (
"347 -1 OFFCURVE",
"404 120 OFFCURVE",
"404 217 CURVE SMOOTH",
"404 299 OFFCURVE",
"310 432 OFFCURVE",
"221 432 CURVE SMOOTH",
"124 432 OFFCURVE",
"19 307 OFFCURVE",
"19 218 CURVE SMOOTH",
"19 97 OFFCURVE",
"111 -1 OFFCURVE",
"232 -1 CURVE SMOOTH"
);
},
{
closed = 1;
nodes = (
"126 56 OFFCURVE",
"55 135 OFFCURVE",
"65 225 CURVE SMOOTH",
"73 287 OFFCURVE",
"126 366 OFFCURVE",
"195 366 CURVE SMOOTH",
"292 366 OFFCURVE",
"348 284 OFFCURVE",
"348 198 CURVE SMOOTH",
"348 134 OFFCURVE",
"305 119 OFFCURVE",
"300 85 CURVE",
"265 63 OFFCURVE",
"250 56 OFFCURVE",
"217 56 CURVE SMOOTH"
);
}
);
width = 432;
}
);
leftKerningGroup = zero;
rightKerningGroup = zero;
unicode = 0030;
},
{
color = 3;
glyphname = one;
lastChange = "2016-09-07 20:13:06 +0000";
layers = (
{
layerId = UUID0;
paths = (
{
closed = 1;
nodes = (
"238 -41 OFFCURVE",
"296 524 OFFCURVE",
"296 548 CURVE SMOOTH",
"295 581 LINE",
"291 590 OFFCURVE",
"284 590 OFFCURVE",
"276 590 CURVE SMOOTH",
"229 590 OFFCURVE",
"244 474 OFFCURVE",
"212 439 CURVE SMOOTH",
"36 251 LINE SMOOTH",
"15 228 OFFCURVE",
"30 197 OFFCURVE",
"47 196 CURVE",
"73 196 OFFCURVE",
"148 306 OFFCURVE",
"220 371 CURVE",
"213 232 OFFCURVE",
"188 97 OFFCURVE",
"169 -21 CURVE",
"187 -37 OFFCURVE",
"194 -41 OFFCURVE",
"207 -41 CURVE SMOOTH"
);
}
);
width = 318;
},
{
associatedMasterId = UUID0;
layerId = "C03520EC-F6EA-4A44-8AD4-C0A163ABB069";
name = "Sep 6 16, 13:54";
paths = (
{
closed = 1;
nodes = (
"238 -1 OFFCURVE",
"296 526 OFFCURVE",
"296 548 CURVE SMOOTH",
"295 581 LINE",
"291 590 OFFCURVE",
"284 590 OFFCURVE",
"276 590 CURVE SMOOTH",
"229 590 OFFCURVE",
"245 473 OFFCURVE",
"212 439 CURVE SMOOTH",
"33 252 LINE SMOOTH",
"28 247 OFFCURVE",
"19 230 OFFCURVE",
"14 224 CURVE",
"14 219 LINE SMOOTH",
"14 202 OFFCURVE",
"21 194 OFFCURVE",
"37 194 CURVE SMOOTH",
"74 194 OFFCURVE",
"155 312 OFFCURVE",
"174 326 CURVE",
"196 321 OFFCURVE",
"193 303 OFFCURVE",
"193 288 CURVE SMOOTH",
"193 248 OFFCURVE",
"178 91 OFFCURVE",
"178 52 CURVE",
"179 19 LINE",
"187 3 OFFCURVE",
"194 -1 OFFCURVE",
"207 -1 CURVE SMOOTH"
);
}
);
width = 318;
}
);
leftKerningGroup = one;
rightKerningGroup = one;
unicode = 0031;
},
{
color = 3;
glyphname = two;
lastChange = "2016-09-07 20:13:06 +0000";
layers = (
{
layerId = UUID0;
paths = (
{
closed = 1;
nodes = (
"456 0 OFFCURVE",
"470 16 OFFCURVE",
"470 28 CURVE SMOOTH",
"470 83 OFFCURVE",
"394 43 OFFCURVE",
"309 77 CURVE",
"371 126 OFFCURVE",
"434 221 OFFCURVE",
"434 347 CURVE SMOOTH",
"434 458 OFFCURVE",
"387 543 OFFCURVE",
"276 543 CURVE SMOOTH",
"161 543 OFFCURVE",
"93 480 OFFCURVE",
"93 424 CURVE SMOOTH",
"93 397 OFFCURVE",
"102 383 OFFCURVE",
"126 374 CURVE",
"149 434 OFFCURVE",
"192 497 OFFCURVE",
"279 497 CURVE SMOOTH",
"360 497 OFFCURVE",
"376 429 OFFCURVE",
"376 342 CURVE SMOOTH",
"376 217 OFFCURVE",
"309 104 OFFCURVE",
"255 104 CURVE SMOOTH",
"183 104 OFFCURVE",
"137 150 OFFCURVE",
"75 150 CURVE SMOOTH",
"31 150 OFFCURVE",
"7 139 OFFCURVE",
"10 104 CURVE SMOOTH",
"15 51 OFFCURVE",
"56 19 OFFCURVE",
"137 19 CURVE SMOOTH",
"185 19 OFFCURVE",
"227 29 OFFCURVE",
"273 29 CURVE SMOOTH",
"330 29 OFFCURVE",
"384 0 OFFCURVE",
"440 0 CURVE SMOOTH"
);
}
);
width = 497;
},
{
associatedMasterId = UUID0;
layerId = "79AA6347-FFF2-4FAD-BDFE-21E6FB640111";
name = "Sep 6 16, 13:50";
paths = (
{
closed = 1;
nodes = (
"456 0 OFFCURVE",
"470 16 OFFCURVE",
"470 28 CURVE SMOOTH",
"470 83 OFFCURVE",
"338 52 OFFCURVE",
"338 94 CURVE SMOOTH",
"338 113 OFFCURVE",
"376 166 OFFCURVE",
"395 179 CURVE",
"426 252 OFFCURVE",
"434 279 OFFCURVE",
"434 347 CURVE SMOOTH",
"434 418 OFFCURVE",
"396 543 OFFCURVE",
"306 543 CURVE SMOOTH",
"249 543 OFFCURVE",
"206 501 OFFCURVE",
"206 449 CURVE SMOOTH",
"206 430 OFFCURVE",
"206 408 OFFCURVE",
"226 394 CURVE",
"256 406 OFFCURVE",
"246 497 OFFCURVE",
"301 497 CURVE SMOOTH",
"359 497 OFFCURVE",
"376 379 OFFCURVE",
"376 342 CURVE SMOOTH",
"376 287 OFFCURVE",
"334 104 OFFCURVE",
"250 104 CURVE SMOOTH",
"188 104 OFFCURVE",
"137 150 OFFCURVE",
"75 150 CURVE SMOOTH",
"51 150 OFFCURVE",
"2 144 OFFCURVE",
"10 104 CURVE",
"18 41 OFFCURVE",
"86 19 OFFCURVE",
"137 19 CURVE SMOOTH",
"185 19 OFFCURVE",
"227 29 OFFCURVE",
"273 29 CURVE SMOOTH",
"330 29 OFFCURVE",
"384 0 OFFCURVE",
"440 0 CURVE SMOOTH"
);
}
);
width = 497;
}
);
leftKerningGroup = two;
rightKerningGroup = two;
unicode = 0032;
},
{
color = 3;
glyphname = three;
lastChange = "2016-09-07 20:13:06 +0000";
layers = (
{
layerId = UUID0;
paths = (
{
closed = 1;
nodes = (
"302 -1 OFFCURVE",
"375 45 OFFCURVE",
"375 152 CURVE SMOOTH",
"375 239 OFFCURVE",
"316 286 OFFCURVE",
"201 301 CURVE",
"273 318 OFFCURVE",
"319 346 OFFCURVE",
"319 421 CURVE SMOOTH",
"319 514 OFFCURVE",
"242 557 OFFCURVE",
"128 551 CURVE SMOOTH",
"60 547 OFFCURVE",
"27 516 OFFCURVE",
"27 472 CURVE SMOOTH",
"27 449 OFFCURVE",
"42 438 OFFCURVE",
"66 438 CURVE",
"66 460 LINE SMOOTH",
"66 486 OFFCURVE",
"90 499 OFFCURVE",
"146 499 CURVE SMOOTH",
"222 499 OFFCURVE",
"272 472 OFFCURVE",
"272 432 CURVE SMOOTH",
"272 366 OFFCURVE",
"223 327 OFFCURVE",
"134 319 CURVE",
"124 315 OFFCURVE",
"117 288 OFFCURVE",
"129 269 CURVE",
"254 272 OFFCURVE",
"319 228 OFFCURVE",
"319 146 CURVE SMOOTH",
"319 83 OFFCURVE",
"273 56 OFFCURVE",
"231 56 CURVE SMOOTH",
"114 56 OFFCURVE",
"61 149 OFFCURVE",
"45 149 CURVE SMOOTH",
"21 149 OFFCURVE",
"10 133 OFFCURVE",
"10 110 CURVE SMOOTH",
"10 102 LINE",
"137 2 OFFCURVE",
"177 3 OFFCURVE",
"240 -1 CURVE"
);
}
);
width = 413;
},
{
associatedMasterId = UUID0;
layerId = "6D0E1FD8-8A9F-453B-A939-A1EED07F079E";
name = "Sep 6 16, 13:51";
paths = (
{
closed = 1;
nodes = (
"326 -1 OFFCURVE",
"404 33 OFFCURVE",
"404 112 CURVE SMOOTH",
"404 201 OFFCURVE",
"334 271 OFFCURVE",
"253 300 CURVE",
"252 305 LINE",
"252 345 OFFCURVE",
"338 355 OFFCURVE",
"338 411 CURVE SMOOTH",
"338 466 OFFCURVE",
"296 525 OFFCURVE",
"235 525 CURVE SMOOTH",
"94 525 LINE SMOOTH",
"71 525 OFFCURVE",
"36 509 OFFCURVE",
"36 482 CURVE SMOOTH",
"36 452 OFFCURVE",
"55 438 OFFCURVE",
"85 438 CURVE",
"85 460 LINE SMOOTH",
"85 476 OFFCURVE",
"169 479 OFFCURVE",
"195 479 CURVE SMOOTH",
"221 479 OFFCURVE",
"291 472 OFFCURVE",
"291 432 CURVE SMOOTH",
"291 358 OFFCURVE",
"126 337 OFFCURVE",
"85 329 CURVE",
"65 310 LINE",
"65 308 LINE",
"64 307 OFFCURVE",
"64 306 OFFCURVE",
"64 305 CURVE SMOOTH",
"64 252 OFFCURVE",
"348 281 OFFCURVE",
"348 116 CURVE SMOOTH",
"348 66 OFFCURVE",
"297 56 OFFCURVE",
"250 56 CURVE SMOOTH",
"127 56 OFFCURVE",
"70 169 OFFCURVE",
"54 169 CURVE SMOOTH",
"30 169 OFFCURVE",
"19 153 OFFCURVE",
"19 130 CURVE SMOOTH",
"19 122 LINE",
"152 2 OFFCURVE",
"193 4 OFFCURVE",
"259 -1 CURVE"
);
}
);
width = 432;
}
);
leftKerningGroup = three;
rightKerningGroup = three;
unicode = 0033;
},
{
color = 3;
glyphname = four;
lastChange = "2016-09-07 20:13:06 +0000";
layers = (
{
layerId = UUID0;
paths = (
{
closed = 1;
nodes = (
"378 -2 OFFCURVE",
"385 19 OFFCURVE",
"385 45 CURVE SMOOTH",
"385 104 OFFCURVE",
"364 168 OFFCURVE",
"364 230 CURVE SMOOTH",
"364 284 OFFCURVE",
"394 368 OFFCURVE",
"394 420 CURVE SMOOTH",
"394 439 OFFCURVE",
"387 449 OFFCURVE",
"355 449 CURVE SMOOTH",
"352 449 OFFCURVE",
"288 232 OFFCURVE",
"157 232 CURVE SMOOTH",
"92 232 OFFCURVE",
"70 264 OFFCURVE",
"70 340 CURVE SMOOTH",
"70 426 OFFCURVE",
"93 508 OFFCURVE",
"123 586 CURVE",
"126 608 OFFCURVE",
"70 608 OFFCURVE",
"65 581 CURVE",
"34 495 OFFCURVE",
"19 440 OFFCURVE",
"19 354 CURVE SMOOTH",
"19 260 OFFCURVE",
"53 175 OFFCURVE",
"154 179 CURVE SMOOTH",
"244 182 OFFCURVE",
"281 214 OFFCURVE",
"320 269 CURVE",
"295 147 OFFCURVE",
"326 -2 OFFCURVE",
"351 -2 CURVE SMOOTH"
);
}
);
width = 412;
},
{
associatedMasterId = UUID0;
layerId = "379579A3-94DA-4A1C-8EB4-5F8F5CD7C2AA";
name = "Sep 6 16, 13:54";
paths = (
{
closed = 1;
nodes = (
"368 -2 OFFCURVE",
"385 19 OFFCURVE",
"385 45 CURVE SMOOTH",
"385 104 OFFCURVE",
"364 168 OFFCURVE",
"364 230 CURVE SMOOTH",
"364 284 OFFCURVE",
"394 368 OFFCURVE",
"394 420 CURVE SMOOTH",
"394 439 OFFCURVE",
"387 449 OFFCURVE",
"355 449 CURVE SMOOTH",
"352 449 OFFCURVE",
"288 232 OFFCURVE",
"157 232 CURVE SMOOTH",
"92 232 OFFCURVE",
"64 314 OFFCURVE",
"64 370 CURVE SMOOTH",
"64 446 OFFCURVE",
"123 518 OFFCURVE",
"123 586 CURVE",
"126 608 OFFCURVE",
"70 608 OFFCURVE",
"65 581 CURVE",
"34 495 OFFCURVE",
"19 450 OFFCURVE",
"19 364 CURVE SMOOTH",
"19 289 OFFCURVE",
"53 159 OFFCURVE",
"154 159 CURVE",
"204 151 OFFCURVE",
"259 195 OFFCURVE",
"296 217 CURVE",
"331 217 OFFCURVE",
"292 -2 OFFCURVE",
"341 -2 CURVE SMOOTH"
);
}
);
width = 412;
}
);
leftKerningGroup = four;
rightKerningGroup = four;
unicode = 0034;
},
{
color = 3;
glyphname = five;
lastChange = "2016-09-07 20:13:06 +0000";
layers = (
{
layerId = UUID0;
paths = (
{
closed = 1;
nodes = (
"431 -12 OFFCURVE",
"502 64 OFFCURVE",
"499 182 CURVE SMOOTH",
"494 366 OFFCURVE",
"383 383 OFFCURVE",
"216 412 CURVE",
"225 469 OFFCURVE",
"242 525 OFFCURVE",
"267 580 CURVE",
"365 590 OFFCURVE",
"449 584 OFFCURVE",
"519 574 CURVE",
"527 582 OFFCURVE",
"538 595 OFFCURVE",
"543 616 CURVE",
"484 643 OFFCURVE",
"325 649 OFFCURVE",
"227 633 CURVE",
"190 534 OFFCURVE",
"156 457 OFFCURVE",
"141 383 CURVE SMOOTH",
"139 373 OFFCURVE",
"143 366 OFFCURVE",
"151 355 CURVE",
"356 346 OFFCURVE",
"434 288 OFFCURVE",
"434 183 CURVE SMOOTH",
"434 88 OFFCURVE",
"384 34 OFFCURVE",
"268 34 CURVE SMOOTH",
"182 34 OFFCURVE",
"101 55 OFFCURVE",
"101 102 CURVE",
"108 229 OFFCURVE",
"54 193 OFFCURVE",
"59 122 CURVE",
"59 -2 OFFCURVE",
"175 -27 OFFCURVE",
"296 -20 CURVE SMOOTH"
);
}
);
width = 572;
},
{
associatedMasterId = UUID0;
layerId = "E2A0C3C2-F9CE-477A-8169-3540D9D58251";
name = "Sep 6 16, 21:48";
paths = (
{
closed = 1;
nodes = (
"381 5 OFFCURVE",
"501 76 OFFCURVE",
"488 174 CURVE",
"488 338 OFFCURVE",
"350 408 OFFCURVE",
"206 432 CURVE",
"206 440 LINE SMOOTH",
"206 479 OFFCURVE",
"254 547 OFFCURVE",
"262 591 CURVE",
"291 600 LINE",
"294 600 OFFCURVE",
"344 602 OFFCURVE",
"360 602 CURVE SMOOTH",
"384 602 OFFCURVE",
"453 600 OFFCURVE",
"460 600 CURVE SMOOTH",
"466 600 OFFCURVE",
"509 591 OFFCURVE",
"517 591 CURVE SMOOTH",
"523 591 OFFCURVE",
"544 604 OFFCURVE",
"544 614 CURVE",
"543 619 LINE",
"505 668 OFFCURVE",
"428 657 OFFCURVE",
"375 657 CURVE SMOOTH",
"322 657 OFFCURVE",
"184 667 OFFCURVE",
"184 591 CURVE",
"206 591 LINE",
"206 581 LINE SMOOTH",
"206 575 OFFCURVE",
"197 556 OFFCURVE",
"197 554 CURVE",
"187 532 OFFCURVE",
"135 432 OFFCURVE",
"122 412 CURVE",
"122 411 OFFCURVE",
"121 406 OFFCURVE",
"121 403 CURVE SMOOTH",
"121 393 OFFCURVE",
"123 386 OFFCURVE",
"131 375 CURVE",
"243 355 OFFCURVE",
"434 358 OFFCURVE",
"434 193 CURVE SMOOTH",
"434 94 OFFCURVE",
"334 64 OFFCURVE",
"248 64 CURVE SMOOTH",
"231 64 OFFCURVE",
"61 82 OFFCURVE",
"61 122 CURVE",
"68 249 OFFCURVE",
"14 213 OFFCURVE",
"19 142 CURVE",
"19 8 OFFCURVE",
"204 0 OFFCURVE",
"296 0 CURVE"
);
}
);
width = 572;
}
);
leftKerningGroup = five;
rightKerningGroup = five;
unicode = 0035;
},
{
color = 3;
glyphname = six;
lastChange = "2016-09-07 20:13:06 +0000";
layers = (
{
layerId = UUID0;
paths = (
{
closed = 1;
nodes = (
"303 6 OFFCURVE",
"413 43 OFFCURVE",
"413 164 CURVE SMOOTH",
"413 276 OFFCURVE",
"326 346 OFFCURVE",
"223 346 CURVE SMOOTH",
"182 346 OFFCURVE",
"138 335 OFFCURVE",
"96 310 CURVE",
"96 394 OFFCURVE",
"183 529 OFFCURVE",
"282 541 CURVE SMOOTH",
"338 547 OFFCURVE",
"379 527 OFFCURVE",
"401 527 CURVE SMOOTH",
"414 527 OFFCURVE",
"420 532 OFFCURVE",
"420 548 CURVE SMOOTH",
"420 583 OFFCURVE",
"356 604 OFFCURVE",
"285 599 CURVE SMOOTH",
"116 587 OFFCURVE",
"19 361 OFFCURVE",
"19 207 CURVE SMOOTH",
"19 84 OFFCURVE",
"80 6 OFFCURVE",
"207 6 CURVE SMOOTH"
);
},
{
closed = 1;
nodes = (
"120 64 OFFCURVE",
"71 103 OFFCURVE",
"71 186 CURVE SMOOTH",
"71 260 OFFCURVE",
"134 293 OFFCURVE",
"201 293 CURVE SMOOTH",
"276 293 OFFCURVE",
"356 251 OFFCURVE",
"356 176 CURVE SMOOTH",
"356 87 OFFCURVE",
"273 53 OFFCURVE",
"201 58 CURVE SMOOTH"
);
}
);
width = 440;
},
{
associatedMasterId = UUID0;
layerId = "B74A8270-E806-4893-A617-3C83AC728057";
name = "Sep 6 16, 21:52";
paths = (
{
closed = 1;
nodes = (
"292 -1 OFFCURVE",
"413 43 OFFCURVE",
"413 164 CURVE SMOOTH",
"413 268 OFFCURVE",
"337 338 OFFCURVE",
"235 338 CURVE SMOOTH",
"184 338 OFFCURVE",
"157 339 OFFCURVE",
"104 318 CURVE",
"104 323 LINE SMOOTH",
"104 403 OFFCURVE",
"256 543 OFFCURVE",
"333 543 CURVE SMOOTH",
"338 543 LINE",
"347 541 OFFCURVE",
"384 514 OFFCURVE",
"389 514 CURVE SMOOTH",
"406 514 OFFCURVE",
"413 539 OFFCURVE",
"413 554 CURVE SMOOTH",
"413 587 OFFCURVE",
"362 603 OFFCURVE",
"338 600 CURVE SMOOTH",
"173 584 OFFCURVE",
"19 361 OFFCURVE",
"19 207 CURVE SMOOTH",
"19 104 OFFCURVE",
"65 -1 OFFCURVE",
"187 -1 CURVE SMOOTH"
);
},
{
closed = 1;
nodes = (
"130 69 OFFCURVE",
"82 106 OFFCURVE",
"65 188 CURVE",
"58 258 OFFCURVE",
"149 292 OFFCURVE",
"243 292 CURVE SMOOTH",
"289 292 OFFCURVE",
"356 224 OFFCURVE",
"356 176 CURVE SMOOTH",
"356 87 OFFCURVE",
"273 64 OFFCURVE",
"201 64 CURVE"
);
}
);
width = 440;
}
);
leftKerningGroup = six;
rightKerningGroup = six;
unicode = 0036;
},
{
color = 3;
glyphname = seven;
lastChange = "2016-09-07 20:13:06 +0000";
layers = (
{
layerId = UUID0;
paths = (
{
closed = 1;
nodes = (
"217 243 OFFCURVE",
"315 235 OFFCURVE",
"376 215 CURVE",
"392 215 OFFCURVE",
"409 236 OFFCURVE",
"395 254 CURVE SMOOTH",
"365 293 OFFCURVE",
"141 290 OFFCURVE",
"93 282 CURVE SMOOTH",
"77 279 OFFCURVE",
"75 253 OFFCURVE",
"82 237 CURVE"
);
},
{
closed = 1;
nodes = (
"300 525 CURVE",
"220 518 OFFCURVE",
"85 529 OFFCURVE",
"36 534 CURVE",
"-14 453 OFFCURVE",
"171 482 OFFCURVE",
"244 479 CURVE",
"249 356 OFFCURVE",
"224 202 OFFCURVE",
"179 28 CURVE",
"184 14 OFFCURVE",
"190 -1 OFFCURVE",
"206 -1 CURVE SMOOTH",
"218 -1 OFFCURVE",
"230 3 OFFCURVE",
"235 19 CURVE",
"286 219 OFFCURVE",
"301 336 OFFCURVE"
);
}
);
width = 412;
}
);
leftKerningGroup = seven;
rightKerningGroup = seven;
unicode = 0037;
},
{
color = 3;
glyphname = eight;
lastChange = "2016-09-07 20:13:06 +0000";
layers = (
{
layerId = UUID0;
paths = (
{
closed = 1;
nodes = (
"306 -1 OFFCURVE",
"348 42 OFFCURVE",
"348 112 CURVE SMOOTH",
"348 202 OFFCURVE",
"296 227 OFFCURVE",
"195 312 CURVE",
"245 368 OFFCURVE",
"291 391 OFFCURVE",
"291 479 CURVE SMOOTH",
"291 537 OFFCURVE",
"247 567 OFFCURVE",
"168 567 CURVE SMOOTH",
"83 567 OFFCURVE",
"4 510 OFFCURVE",
"19 423 CURVE SMOOTH",
"28 370 OFFCURVE",
"60 340 OFFCURVE",
"126 304 CURVE",
"75 250 OFFCURVE",
"54 197 OFFCURVE",
"54 150 CURVE SMOOTH",
"54 62 OFFCURVE",
"132 -1 OFFCURVE",
"235 -1 CURVE SMOOTH"
);
},
{
closed = 1;
nodes = (
"149 45 OFFCURVE",
"104 96 OFFCURVE",
"104 158 CURVE SMOOTH",
"104 198 OFFCURVE",
"124 244 OFFCURVE",
"166 284 CURVE",
"261 203 OFFCURVE",
"300 167 OFFCURVE",
"300 108 CURVE SMOOTH",
"300 61 OFFCURVE",
"267 45 OFFCURVE",
"229 45 CURVE SMOOTH"
);
},
{
closed = 1;
nodes = (
"104 361 OFFCURVE",
"65 386 OFFCURVE",
"65 432 CURVE SMOOTH",
"65 476 OFFCURVE",
"92 522 OFFCURVE",
"168 522 CURVE SMOOTH",
"272 522 OFFCURVE",
"262 414 OFFCURVE",
"154 332 CURVE"
);
}
);
width = 375;
},
{
associatedMasterId = UUID0;
layerId = "4861CC14-DCC3-4A65-BCD0-759D450A93AC";
name = "Sep 6 16, 21:56";
paths = (
{
closed = 1;
nodes = (
"306 -1 OFFCURVE",
"348 42 OFFCURVE",
"348 112 CURVE SMOOTH",
"348 222 OFFCURVE",
"206 269 OFFCURVE",
"206 314 CURVE SMOOTH",
"206 370 OFFCURVE",
"291 411 OFFCURVE",
"291 479 CURVE SMOOTH",
"291 537 OFFCURVE",
"217 572 OFFCURVE",
"168 572 CURVE",
"106 584 OFFCURVE",
"-4 468 OFFCURVE",
"19 423 CURVE",
"14 371 OFFCURVE",
"78 341 OFFCURVE",
"112 310 CURVE",
"113 305 LINE",
"113 304 OFFCURVE",
"112 303 OFFCURVE",
"112 303 CURVE",
"112 300 LINE",
"85 269 OFFCURVE",
"61 243 OFFCURVE",
"48 216 CURVE",
"15 100 OFFCURVE",
"132 -1 OFFCURVE",
"235 -1 CURVE SMOOTH"
);
},
{
closed = 1;
nodes = (
"160 45 OFFCURVE",
"102 104 OFFCURVE",
"102 173 CURVE SMOOTH",
"102 196 OFFCURVE",
"132 273 OFFCURVE",
"159 273 CURVE SMOOTH",
"162 273 OFFCURVE",
"168 272 OFFCURVE",
"168 272 CURVE",
"230 238 OFFCURVE",
"300 176 OFFCURVE",
"300 98 CURVE SMOOTH",
"300 65 OFFCURVE",
"257 45 OFFCURVE",
"229 45 CURVE SMOOTH"
);
},
{
closed = 1;
nodes = (
"131 357 OFFCURVE",
"58 394 OFFCURVE",
"65 432 CURVE",
"81 464 OFFCURVE",
"116 512 OFFCURVE",
"168 512 CURVE",
"244 509 OFFCURVE",
"243 450 OFFCURVE",
"217 427 CURVE",
"217 407 OFFCURVE",
"160 356 OFFCURVE",
"150 347 CURVE"
);
}
);
width = 375;
}
);
leftKerningGroup = eight;
rightKerningGroup = eight;
unicode = 0038;
},
{
color = 3;
glyphname = nine;
lastChange = "2016-09-07 20:13:06 +0000";
layers = (
{
layerId = UUID0;
paths = (
{
closed = 1;
nodes = (
"158 5 OFFCURVE",
"227 7 CURVE SMOOTH",
"250 7 OFFCURVE",
"265 10 OFFCURVE",
"265 25 CURVE",
"254 55 OFFCURVE",
"248 310 OFFCURVE",
"288 460 CURVE SMOOTH",
"311 543 OFFCURVE",
"225 601 OFFCURVE",
"152 601 CURVE SMOOTH",
"63 601 OFFCURVE",
"10 526 OFFCURVE",
"10 439 CURVE SMOOTH",
"10 333 OFFCURVE",
"71 274 OFFCURVE",
"223 298 CURVE",
"242 366 LINE",
"220 344 OFFCURVE",
"200 332 OFFCURVE",
"164 332 CURVE SMOOTH",
"100 332 OFFCURVE",
"65 379 OFFCURVE",
"65 448 CURVE SMOOTH",
"65 521 OFFCURVE",
"120 551 OFFCURVE",
"163 551 CURVE SMOOTH",
"205 551 OFFCURVE",
"245 516 OFFCURVE",
"240 454 CURVE",
"210 330 OFFCURVE"
);
}
);
width = 301;
},
{
associatedMasterId = UUID0;
layerId = "AE47EB37-A9D7-4FE3-9854-1DEDC6271478";
name = "Sep 6 16, 13:56";
paths = (
{
closed = 1;
nodes = (
"250 7 OFFCURVE",
"265 10 OFFCURVE",
"265 25 CURVE",
"254 55 OFFCURVE",
"256 308 OFFCURVE",
"291 469 CURVE",
"291 543 OFFCURVE",
"225 601 OFFCURVE",
"152 601 CURVE SMOOTH",
"63 601 OFFCURVE",
"10 527 OFFCURVE",
"10 440 CURVE SMOOTH",
"10 312 OFFCURVE",
"104 307 OFFCURVE",
"197 291 CURVE SMOOTH",
"227 286 OFFCURVE",
"185 6 OFFCURVE",
"227 7 CURVE SMOOTH"
);
},
{
closed = 1;
nodes = (
"95 346 OFFCURVE",
"65 400 OFFCURVE",
"65 448 CURVE SMOOTH",
"65 511 OFFCURVE",
"97 555 OFFCURVE",
"160 555 CURVE SMOOTH",
"182 555 OFFCURVE",
"227 531 OFFCURVE",
"227 506 CURVE SMOOTH",
"227 494 OFFCURVE",
"188 386 OFFCURVE",
"188 355 CURVE",
"177 345 OFFCURVE",
"162 346 OFFCURVE",
"149 346 CURVE SMOOTH"
);
}
);
width = 301;
}
);
leftKerningGroup = nine;
rightKerningGroup = nine;
unicode = 0039;
},
{
color = 3;
glyphname = onesuperior;
lastChange = "2016-09-07 20:13:06 +0000";
layers = (
{
layerId = UUID0;
paths = (
{
closed = 1;
nodes = (
"144 184 OFFCURVE",
"183 557 OFFCURVE",
"182.595 603.904 CURVE",
"180 611 OFFCURVE",
"175 615 OFFCURVE",
"163.646 614.583 CURVE SMOOTH",
"131 613 OFFCURVE",
"142 538 OFFCURVE",
"124 519 CURVE SMOOTH",
"-4.713 387.753 LINE SMOOTH",
"-20.41 371.06 OFFCURVE",
"-12.814 342.214 OFFCURVE",
"6.782 341.095 CURVE",
"27.097 341.085 OFFCURVE",
"82 407 OFFCURVE",
"128 461 CURVE",
"122 373 OFFCURVE",
"96.418 275.732 OFFCURVE",
"84.045 200.737 CURVE",
"99.217 187.422 OFFCURVE",
"105.15 183.788 OFFCURVE",
"116.484 183.788 CURVE SMOOTH"
);
}
);
width = 197;
},
{
associatedMasterId = UUID0;
layerId = "F387BB17-BF83-4EEF-9989-6BC732414F64";
name = "Sep 6 16, 22:05";
paths = (
{
closed = 1;
nodes = (
"137.673 189.788 OFFCURVE",
"177.316 564.779 OFFCURVE",
"177.316 580.708 CURVE SMOOTH",
"176.632 602.61 LINE",
"173.898 608.583 OFFCURVE",
"169.114 608.583 OFFCURVE",
"163.646 608.583 CURVE SMOOTH",
"131.521 608.583 OFFCURVE",
"141.774 531.594 OFFCURVE",
"119.902 508.364 CURVE SMOOTH",
"-0.394 383.589 LINE SMOOTH",
"-14.748 368.324 OFFCURVE",
"-4.495 347.749 OFFCURVE",
"7.124 347.085 CURVE",
"24.895 347.085 OFFCURVE",
"76.158 420.092 OFFCURVE",
"125.37 463.233 CURVE",
"120.585 370.978 OFFCURVE",
"103.498 281.379 OFFCURVE",
"90.511 203.062 CURVE",
"102.814 192.443 OFFCURVE",
"107.599 189.788 OFFCURVE",
"116.484 189.788 CURVE SMOOTH"
);
}
);
width = 197;
}
);
leftKerningGroup = onesuperior;
rightKerningGroup = onesuperior;
unicode = 00B9;
},
{
color = 3;
glyphname = twosuperior;
lastChange = "2016-09-07 20:13:06 +0000";
layers = (
{
layerId = UUID0;
paths = (
{
closed = 1;
nodes = (
"253 210 OFFCURVE",
"260 215 OFFCURVE",
"260 228 CURVE SMOOTH",
"260 250 OFFCURVE",
"241 258 OFFCURVE",
"175.131 260.731 CURVE",
"216.232 297.486 OFFCURVE",
"240.752 358.878 OFFCURVE",
"240.752 425.172 CURVE SMOOTH",
"240.752 503.598 OFFCURVE",
"197 549 OFFCURVE",
"120 549 CURVE SMOOTH",
"62 549 OFFCURVE",
"17 517 OFFCURVE",
"17 475 CURVE SMOOTH",
"17 463 OFFCURVE",
"17 445 OFFCURVE",
"32 435 CURVE",
"52 433 OFFCURVE",
"54 510 OFFCURVE",
"117 510 CURVE SMOOTH",
"171 510 OFFCURVE",
"197.514 481.841 OFFCURVE",
"198 432 CURVE SMOOTH",
"198 357 OFFCURVE",
"171 301 OFFCURVE",
"134 270 CURVE",
"103 270 OFFCURVE",
"76 312 OFFCURVE",
"41 312 CURVE SMOOTH",
"12 312 OFFCURVE",
"-1 299 OFFCURVE",
"0 268 CURVE SMOOTH",
"3 238 OFFCURVE",
"30.109 221.453 OFFCURVE",
"74.788 221.453 CURVE SMOOTH",
"100.767 221.453 OFFCURVE",
"124.048 227.481 OFFCURVE",
"148.038 227.481 CURVE SMOOTH",
"177.734 227.481 OFFCURVE",
"206.818 210 OFFCURVE",
"237.984 210 CURVE SMOOTH"
);
}
);
width = 297;
},
{
associatedMasterId = UUID0;
layerId = "F3BF6201-0AF5-4DA3-B17F-FD3F02D373D8";
name = "Sep 6 16, 22:05";
paths = (
{
closed = 1;
nodes = (
"246.602 216 OFFCURVE",
"254.142 225.645 OFFCURVE",
"254.142 232.878 CURVE SMOOTH",
"254.142 266.032 OFFCURVE",
"162.041 249.757 OFFCURVE",
"170.12 264.224 CURVE",
"203.514 293.761 OFFCURVE",
"234.752 349.219 OFFCURVE",
"234.752 425.172 CURVE SMOOTH",
"234.752 492.082 OFFCURVE",
"209.438 543.32 OFFCURVE",
"149.654 543.32 CURVE SMOOTH",
"94.178 543.32 OFFCURVE",
"52.706 512.578 OFFCURVE",
"52.706 474.601 CURVE SMOOTH",
"52.706 463.148 OFFCURVE",
"52.706 449.886 OFFCURVE",
"63.478 441.447 CURVE",
"76.404 448.681 OFFCURVE",
"85.56 515.592 OFFCURVE",
"146.961 515.592 CURVE SMOOTH",
"190.587 515.592 OFFCURVE",
"203.514 474.601 OFFCURVE",
"203.514 422.158 CURVE SMOOTH",
"203.514 346.808 OFFCURVE",
"180.892 278.691 OFFCURVE",
"135.65 278.691 CURVE SMOOTH",
"102.257 278.691 OFFCURVE",
"74.788 306.42 OFFCURVE",
"41.395 306.42 CURVE SMOOTH",
"17.697 306.42 OFFCURVE",
"4.77 299.789 OFFCURVE",
"6.386 278.691 CURVE SMOOTH",
"9.079 246.743 OFFCURVE",
"31.162 227.453 OFFCURVE",
"74.788 227.453 CURVE SMOOTH",
"100.641 227.453 OFFCURVE",
"123.262 233.481 OFFCURVE",
"148.038 233.481 CURVE SMOOTH",
"178.738 233.481 OFFCURVE",
"207.822 216 OFFCURVE",
"237.984 216 CURVE SMOOTH"
);
}
);
width = 297;
}
);
leftKerningGroup = twosuperior;
rightKerningGroup = twosuperior;
unicode = 00B2;
},
{
color = 3;
glyphname = threesuperior;
lastChange = "2016-09-07 20:13:06 +0000";
layers = (
{
layerId = UUID0;
paths = (
{
closed = 1;
nodes = (
"168 260 OFFCURVE",
"207 301 OFFCURVE",
"207 359 CURVE SMOOTH",
"207 417 OFFCURVE",
"184 450 OFFCURVE",
"123 460 CURVE",
"124 456 LINE",
"163 472 OFFCURVE",
"173 492 OFFCURVE",
"173 524 CURVE SMOOTH",
"173 581 OFFCURVE",
"133 614 OFFCURVE",
"73 611 CURVE SMOOTH",
"28 609 OFFCURVE",
"3 588 OFFCURVE",
"3 556 CURVE SMOOTH",
"3 534.627 OFFCURVE",
"14.64 524.131 OFFCURVE",
"36.895 527.593 CURVE",
"36.538 559.93 OFFCURVE",
"49.112 572 OFFCURVE",
"81 572 CURVE SMOOTH",
"114.42 572 OFFCURVE",
"130 555.124 OFFCURVE",
"130 521 CURVE SMOOTH",
"130 490.742 OFFCURVE",
"106.253 472.869 OFFCURVE",
"63.255 469.481 CURVE",
"48.974 465.009 OFFCURVE",
"46.824 442.46 OFFCURVE",
"58.125 428.893 CURVE",
"125.786 436.388 OFFCURVE",
"160 414.435 OFFCURVE",
"160 362 CURVE SMOOTH",
"160 327 OFFCURVE",
"143 304 OFFCURVE",
"116 304 CURVE SMOOTH",
"56 304 OFFCURVE",
"40 345 OFFCURVE",
"28 345 CURVE SMOOTH",
"13.441 345 OFFCURVE",
"2.451 326.864 OFFCURVE",
"5.097 309.176 CURVE",
"34 275 OFFCURVE",
"73 259 OFFCURVE",
"120 259 CURVE SMOOTH"
);
}
);
width = 204;
},
{
associatedMasterId = UUID0;
layerId = "175FDD05-44A8-44FD-A684-30083D527CAA";
name = "Sep 6 16, 22:05";
paths = (
{
closed = 1;
nodes = (
"153.52 264.384 OFFCURVE",
"192.071 292.733 OFFCURVE",
"192.071 358.678 CURVE SMOOTH",
"192.071 412.296 OFFCURVE",
"160.914 441.262 OFFCURVE",
"100.182 450.506 CURVE",
"138.205 460.983 OFFCURVE",
"162.498 478.24 OFFCURVE",
"162.498 524.462 CURVE SMOOTH",
"162.498 573.15 OFFCURVE",
"121.834 597.186 OFFCURVE",
"61.631 594.104 CURVE SMOOTH",
"25.72 592.255 OFFCURVE",
"8.293 576.231 OFFCURVE",
"8.293 555.894 CURVE SMOOTH",
"8.293 541.719 OFFCURVE",
"16.214 534.939 OFFCURVE",
"28.889 534.939 CURVE",
"28.889 548.498 LINE SMOOTH",
"28.889 564.522 OFFCURVE",
"41.563 572.534 OFFCURVE",
"71.137 572.534 CURVE SMOOTH",
"111.272 572.534 OFFCURVE",
"137.677 555.894 OFFCURVE",
"137.677 531.242 CURVE SMOOTH",
"137.677 490.566 OFFCURVE",
"111.8 466.53 OFFCURVE",
"64.799 461.6 CURVE",
"59.518 459.134 OFFCURVE",
"55.822 442.494 OFFCURVE",
"62.159 430.785 CURVE",
"128.171 432.634 OFFCURVE",
"162.498 405.516 OFFCURVE",
"162.498 354.98 CURVE SMOOTH",
"162.498 316.153 OFFCURVE",
"138.205 299.513 OFFCURVE",
"116.025 299.513 CURVE SMOOTH",
"54.237 299.513 OFFCURVE",
"26.248 356.829 OFFCURVE",
"17.798 356.829 CURVE SMOOTH",
"5.124 356.829 OFFCURVE",
"-0.685 346.968 OFFCURVE",
"-0.685 332.793 CURVE SMOOTH",
"-0.685 327.863 LINE",
"66.384 266.233 OFFCURVE",
"87.508 266.849 OFFCURVE",
"120.778 264.384 CURVE"
);
}
);
width = 204;
}
);
leftKerningGroup = threesuperior;
rightKerningGroup = threesuperior;
unicode = 00B3;
},
{
color = 4;
glyphname = foursuperior;
lastChange = "2016-09-07 22:09:49 +0000";
layers = (
{
layerId = UUID0;
paths = (
{
closed = 1;
nodes = (
"219 256 OFFCURVE",
"228 268 OFFCURVE",
"228 293 CURVE SMOOTH",
"228 330 OFFCURVE",
"217 369 OFFCURVE",
"217 407 CURVE SMOOTH",
"217 439 OFFCURVE",
"233 491 OFFCURVE",
"233 524 CURVE",
"233 542 OFFCURVE",
"224 550 OFFCURVE",
"204 550 CURVE SMOOTH",
"191 550 OFFCURVE",
"176 414 OFFCURVE",
"106 414 CURVE SMOOTH",
"44 414 OFFCURVE",
"71 538 OFFCURVE",
"98 617 CURVE",
"102 643 OFFCURVE",
"50 651 OFFCURVE",
"43 625 CURVE SMOOTH",
"30 571 OFFCURVE",
"19 537 OFFCURVE",
"19 483 CURVE SMOOTH",
"19 407 OFFCURVE",
"48 365 OFFCURVE",
"98 367 CURVE SMOOTH",
"137 369 OFFCURVE",
"162 384 OFFCURVE",
"184 417 CURVE",
"180 418 LINE",
"174 324 OFFCURVE",
"182 256 OFFCURVE",
"202 256 CURVE SMOOTH"
);
}
);
width = 251;
},
{
associatedMasterId = UUID0;
layerId = "DD9A3F32-07A2-4410-9781-31C2B8065EB2";
name = "Sep 6 16, 22:05";
paths = (
{
closed = 1;
nodes = (
"208.622 263.767 OFFCURVE",
"212.319 276.71 OFFCURVE",
"212.319 292.733 CURVE SMOOTH",
"212.319 329.095 OFFCURVE",
"201.228 368.538 OFFCURVE",
"201.228 406.749 CURVE SMOOTH",
"201.228 440.029 OFFCURVE",
"217.071 491.798 OFFCURVE",
"217.071 523.846 CURVE SMOOTH",
"217.071 535.556 OFFCURVE",
"213.375 541.719 OFFCURVE",
"196.476 541.719 CURVE SMOOTH",
"194.891 541.719 OFFCURVE",
"161.093 407.982 OFFCURVE",
"91.912 407.982 CURVE SMOOTH",
"57.585 407.982 OFFCURVE",
"45.967 427.703 OFFCURVE",
"45.967 474.542 CURVE SMOOTH",
"45.967 527.544 OFFCURVE",
"58.113 578.08 OFFCURVE",
"73.956 626.152 CURVE",
"75.541 639.71 OFFCURVE",
"45.967 639.71 OFFCURVE",
"43.327 623.07 CURVE",
"26.955 570.068 OFFCURVE",
"19.034 536.172 OFFCURVE",
"19.034 483.17 CURVE SMOOTH",
"19.034 425.238 OFFCURVE",
"36.989 372.852 OFFCURVE",
"90.327 375.318 CURVE SMOOTH",
"137.856 377.167 OFFCURVE",
"157.396 396.888 OFFCURVE",
"177.992 430.785 CURVE",
"164.79 355.596 OFFCURVE",
"181.161 263.767 OFFCURVE",
"194.363 263.767 CURVE SMOOTH"
);
}
);
width = 235;
}
);
leftKerningGroup = foursuperior;
leftMetricsKey = four;
rightKerningGroup = foursuperior;
rightMetricsKey = four;
unicode = 2074;
},
{
color = 3;
glyphname = fraction;
lastChange = "2016-09-07 20:13:06 +0000";
layers = (
{
layerId = UUID0;
paths = (
{
closed = 1;
nodes = (
"82 0 OFFCURVE",
"291 625 OFFCURVE",
"291 705 CURVE SMOOTH",
"291 721 OFFCURVE",
"296 745 OFFCURVE",
"272 750 CURVE",
"238 737 OFFCURVE",
"233 656 OFFCURVE",
"226 619 CURVE",
"65 179 LINE",
"50 150 OFFCURVE",
"10 67 OFFCURVE",
"10 33 CURVE SMOOTH",
"10 19 OFFCURVE",
"21 0 OFFCURVE",
"38 0 CURVE SMOOTH"
);
}
);
width = 310;
}
);
leftKerningGroup = fraction;
rightKerningGroup = fraction;
unicode = 2044;
},
{
color = 3;
glyphname = asterisk;
lastChange = "2016-09-07 20:13:06 +0000";
layers = (
{
layerId = UUID0;
paths = (
{
closed = 1;
nodes = (
"266 229 OFFCURVE",
"276 254 OFFCURVE",
"250 399 CURVE",
"259 376 OFFCURVE",
"309 286 OFFCURVE",
"318 272 CURVE",
"340 272 OFFCURVE",
"354 283 OFFCURVE",
"355 300 CURVE",
"340 343 OFFCURVE",
"285 386 OFFCURVE",
"285 431 CURVE SMOOTH",
"285 448 OFFCURVE",
"370 450 OFFCURVE",
"360 476 CURVE SMOOTH",
"353 494 OFFCURVE",
"322 490 OFFCURVE",
"262 477 CURVE",
"291 511 OFFCURVE",
"385 555 OFFCURVE",
"385 581 CURVE SMOOTH",
"385 593 OFFCURVE",
"383 599 OFFCURVE",
"375 610 CURVE",
"318 603 OFFCURVE",
"262 540 OFFCURVE",
"225 497 CURVE",
"197 563 LINE",
"169 564 OFFCURVE",
"159 544 OFFCURVE",
"168 517 CURVE",
"94 564 OFFCURVE",
"70 575 OFFCURVE",
"65 572 CURVE SMOOTH",
"59 568 OFFCURVE",
"51 560 OFFCURVE",
"48 554 CURVE",
"38 521 OFFCURVE",
"103 488 OFFCURVE",
"138 458 CURVE SMOOTH",
"142 454 OFFCURVE",
"64 339 OFFCURVE",
"64 305 CURVE SMOOTH",
"64 300 OFFCURVE",
"63 281 OFFCURVE",
"74 281 CURVE SMOOTH",
"80 281 OFFCURVE",
"99 286 OFFCURVE",
"104 291 CURVE",
"110 302 OFFCURVE",
"158 380 OFFCURVE",
"192 416 CURVE",
"214 346 OFFCURVE",
"202 238 OFFCURVE",
"244 225 CURVE"
);
}
);
width = 412;
},
{
associatedMasterId = UUID0;
layerId = "6FC2BD57-36AC-4E54-BA65-82989134E0BD";
name = "Sep 7 16, 21:13";
paths = (
{
closed = 1;
nodes = (
"271 239 OFFCURVE",
"282 271 OFFCURVE",
"281 300 CURVE",
"286 295 OFFCURVE",
"313 275 OFFCURVE",
"318 272 CURVE",
"323 272 LINE SMOOTH",
"339 272 OFFCURVE",
"354 284 OFFCURVE",
"355 300 CURVE",
"343 337 OFFCURVE",
"300 374 OFFCURVE",
"300 413 CURVE SMOOTH",
"300 447 OFFCURVE",
"355 433 OFFCURVE",
"355 469 CURVE SMOOTH",
"355 493 OFFCURVE",
"292 490 OFFCURVE",
"272 487 CURVE",
"291 511 OFFCURVE",
"385 555 OFFCURVE",
"385 581 CURVE SMOOTH",
"385 593 OFFCURVE",
"383 599 OFFCURVE",
"375 610 CURVE",
"318 603 OFFCURVE",
"262 540 OFFCURVE",
"225 517 CURVE",
"197 563 LINE",
"188 564 LINE",
"166 564 OFFCURVE",
"165 530 OFFCURVE",
"168 517 CURVE",
"74 572 LINE",
"71 572 LINE",
"70 572 LINE SMOOTH",
"69 572 OFFCURVE",
"68 572 OFFCURVE",
"68 572 CURVE",
"65 572 LINE",
"62 568 OFFCURVE",
"48 555 OFFCURVE",
"48 554 CURVE",
"38 521 OFFCURVE",
"131 488 OFFCURVE",
"131 440 CURVE SMOOTH",
"131 439 OFFCURVE",
"125 433 OFFCURVE",
"122 432 CURVE",
"121 431 OFFCURVE",
"121 431 OFFCURVE",
"120 431 CURVE SMOOTH",
"117 431 LINE SMOOTH",
"102 431 OFFCURVE",
"110 450 OFFCURVE",
"90 450 CURVE SMOOTH",
"68 450 OFFCURVE",
"26 436 OFFCURVE",
"19 412 CURVE",
"13 394 OFFCURVE",
"30 394 OFFCURVE",
"41 394 CURVE SMOOTH",
"63 394 OFFCURVE",
"64 399 OFFCURVE",
"89 399 CURVE",
"89 365 OFFCURVE",
"64 339 OFFCURVE",
"64 305 CURVE SMOOTH",
"64 300 OFFCURVE",
"63 281 OFFCURVE",
"74 281 CURVE SMOOTH",
"80 281 OFFCURVE",
"99 286 OFFCURVE",
"104 291 CURVE",
"111 305 OFFCURVE",
"151 362 OFFCURVE",
"159 375 CURVE",
"165 381 OFFCURVE",
"176 394 OFFCURVE",
"179 394 CURVE",
"219 405 OFFCURVE",
"224 249 OFFCURVE",
"244 225 CURVE"
);
}
);
width = 412;
}
);
leftKerningGroup = asterisk;
rightKerningGroup = asterisk;
unicode = 002A;
},
{
color = 3;
glyphname = backslash;
lastChange = "2016-09-07 20:13:06 +0000";
layers = (
{
layerId = UUID0;
paths = (
{
closed = 1;
nodes = (
"405 8 OFFCURVE",
"414 21 OFFCURVE",
"414 45 CURVE SMOOTH",
"414 136 OFFCURVE",
"108 502 OFFCURVE",
"43 552 CURVE",
"25 552 OFFCURVE",
"10 546 OFFCURVE",
"10 529 CURVE SMOOTH",
"10 491 OFFCURVE",
"177 285 OFFCURVE",
"307 76 CURVE SMOOTH",
"333 34 OFFCURVE",
"344 8 OFFCURVE",
"383 8 CURVE SMOOTH"
);
}
);
width = 432;
}
);
leftKerningGroup = backslash;
rightKerningGroup = backslash;
unicode = 005C;
},
{
color = 3;
glyphname = periodcentered;
lastChange = "2016-09-07 20:13:06 +0000";
layers = (
{
layerId = UUID0;
paths = (
{
closed = 1;
nodes = (
"136 176 OFFCURVE",
"171 208 OFFCURVE",
"171 227 CURVE SMOOTH",
"171 253 OFFCURVE",
"148 291 OFFCURVE",
"99 291 CURVE SMOOTH",
"54 291 OFFCURVE",
"48 245 OFFCURVE",
"48 232 CURVE SMOOTH",
"48 214 OFFCURVE",
"69 176 OFFCURVE",
"104 176 CURVE SMOOTH"
);
}
);
width = 213;
}
);
leftKerningGroup = hyphen;
rightKerningGroup = hyphen;
unicode = 00B7;
},
{
color = 3;
glyphname = bullet;
lastChange = "2016-09-07 20:13:06 +0000";
layers = (
{
layerId = UUID0;
paths = (
{
closed = 1;
nodes = (
"228 163 OFFCURVE",
"279 216 OFFCURVE",
"279 247 CURVE SMOOTH",
"279 291 OFFCURVE",
"246 354 OFFCURVE",
"177 354 CURVE SMOOTH",
"136 354 OFFCURVE",
"94 310 OFFCURVE",
"94 248 CURVE SMOOTH",
"94 189 OFFCURVE",
"134 163 OFFCURVE",
"185 163 CURVE SMOOTH"
);
}
);
width = 342;
}
);
leftKerningGroup = hyphen;
rightKerningGroup = hyphen;
unicode = 2022;
},
{
color = 3;
glyphname = colon;
lastChange = "2016-09-07 20:13:06 +0000";
layers = (
{
layerId = UUID0;
paths = (
{
closed = 1;
nodes = (
"62 261 OFFCURVE",
"67 268 OFFCURVE",
"72 281 CURVE SMOOTH",
"81 304 OFFCURVE",
"60 328 OFFCURVE",
"38 328 CURVE SMOOTH",
"21 328 OFFCURVE",
"10 311 OFFCURVE",
"10 296 CURVE SMOOTH",
"10 282 OFFCURVE",
"25 263 OFFCURVE",
"50 262 CURVE SMOOTH"
);
},
{
closed = 1;
nodes = (
"64 65 OFFCURVE",
"79 72 OFFCURVE",
"79 98 CURVE SMOOTH",
"79 118 OFFCURVE",
"67 131 OFFCURVE",
"44 131 CURVE SMOOTH",
"24 131 OFFCURVE",
"10 118 OFFCURVE",
"10 98 CURVE SMOOTH",
"10 77 OFFCURVE",
"24 65 OFFCURVE",
"44 65 CURVE SMOOTH"
);
}
);
width = 85;
}
);
leftKerningGroup = period;
rightKerningGroup = period;
unicode = 003A;
},
{
color = 3;
glyphname = comma;
lastChange = "2016-09-07 22:12:45 +0000";
layers = (
{
layerId = UUID0;
paths = (
{
closed = 1;
nodes = (
"111 -189 OFFCURVE",
"136 -4 OFFCURVE",
"136 28 CURVE SMOOTH",
"136 60 OFFCURVE",
"145 142 OFFCURVE",
"95 142 CURVE SMOOTH",
"66 142 OFFCURVE",
"60 119 OFFCURVE",
"60 93 CURVE SMOOTH",
"60 82 OFFCURVE",
"61 74 OFFCURVE",
"79 74 CURVE",
"80 37 LINE",
"80 -27 OFFCURVE",
"50 -93 OFFCURVE",
"50 -154 CURVE SMOOTH",
"50 -169 OFFCURVE",
"51 -189 OFFCURVE",
"69 -189 CURVE SMOOTH"
);
}
);
width = 172;
}
);
leftKerningGroup = period;
rightKerningGroup = period;
unicode = 002C;
},
{
color = 3;
glyphname = exclam;
lastChange = "2016-09-07 20:13:06 +0000";
layers = (
{
layerId = UUID0;
paths = (
{
closed = 1;
nodes = (
"102 216 OFFCURVE",
"95 256 OFFCURVE",
"95 276 CURVE SMOOTH",
"94 292 OFFCURVE",
"85 714 OFFCURVE",
"85 714 CURVE",
"67 721 OFFCURVE",
"38 715 OFFCURVE",
"37 705 CURVE",
"45 597 OFFCURVE",
"30 329 OFFCURVE",
"46 228 CURVE",
"50 213 OFFCURVE",
"63 216 OFFCURVE",
"71 216 CURVE SMOOTH"
);
},
{
closed = 1;
nodes = (
"85 -1 OFFCURVE",
"132 18 OFFCURVE",
"132 48 CURVE SMOOTH",
"132 69 OFFCURVE",
"117 104 OFFCURVE",
"89 104 CURVE SMOOTH",
"50 104 OFFCURVE",
"16 87 OFFCURVE",
"16 48 CURVE SMOOTH",
"16 17 OFFCURVE",
"28 -1 OFFCURVE",
"61 -1 CURVE SMOOTH"
);
}
);
width = 150;
}
);
leftKerningGroup = exclam;
rightKerningGroup = exclam;
unicode = 0021;
},
{
color = 3;
glyphname = numbersign;
lastChange = "2016-09-07 20:13:06 +0000";
layers = (
{
layerId = UUID0;
paths = (
{
closed = 1;
nodes = (
"519 -1 OFFCURVE",
"535 17 OFFCURVE",
"535 45 CURVE SMOOTH",
"535 77 OFFCURVE",
"526 110 OFFCURVE",
"517 181 CURVE",
"634 199 OFFCURVE",
"704 179 OFFCURVE",
"723 179 CURVE SMOOTH",
"735 179 OFFCURVE",
"742 184 OFFCURVE",
"742 195 CURVE SMOOTH",
"742 233 OFFCURVE",
"701 244 OFFCURVE",
"648 244 CURVE SMOOTH",
"585 244 OFFCURVE",
"576 243 OFFCURVE",
"514 232 CURVE",
"505 310 LINE",
"549 313 LINE SMOOTH",
"618 320 OFFCURVE",
"647 316 OFFCURVE",
"665 300 CURVE SMOOTH",
"673 295 OFFCURVE",
"704 313 OFFCURVE",
"704 323 CURVE",
"684 356 OFFCURVE",
"668 369 OFFCURVE",
"626 366 CURVE SMOOTH",
"497 356 LINE",
"470 493 LINE",
"428 493 OFFCURVE",
"426 472 OFFCURVE",
"448 354 CURVE",
"431 351 OFFCURVE",
"421 346 OFFCURVE",
"355 341 CURVE",
"349 391 OFFCURVE",
"344 451 OFFCURVE",
"344 492 CURVE",
"313 492 OFFCURVE",
"301 484 OFFCURVE",
"301 469 CURVE SMOOTH",
"301 330 LINE",
"94 296 OFFCURVE",
"6 279 OFFCURVE",
"9 235 CURVE",
"9 219 OFFCURVE",
"19 211 OFFCURVE",
"33 215 CURVE SMOOTH",
"306 284 LINE",
"310 197 LINE SMOOTH",
"310 195 OFFCURVE",
"283 190 OFFCURVE",
"272 188 CURVE SMOOTH",
"209 177 OFFCURVE",
"148 165 OFFCURVE",
"85 150 CURVE",
"84 125 OFFCURVE",
"93 112 OFFCURVE",
"106 112 CURVE SMOOTH",
"324 147 LINE",
"329 93 OFFCURVE",
"338 48 OFFCURVE",
"356 48 CURVE SMOOTH",
"372 48 OFFCURVE",
"386 53 OFFCURVE",
"385 65 CURVE SMOOTH",
"376 154 LINE",
"464 171 LINE",
"479 53 OFFCURVE",
"467 -1 OFFCURVE",
"503 -1 CURVE SMOOTH"
);
},
{
closed = 1;
nodes = (
"369 229 OFFCURVE",
"363 284 OFFCURVE",
"363 291 CURVE",
"452 307 LINE",
"459 272 OFFCURVE",
"460 255 OFFCURVE",
"460 225 CURVE",
"371 206 LINE"
);
}
);
width = 769;
},
{
associatedMasterId = UUID0;
layerId = "A8681A8E-4016-46E4-94E1-A62AACDED383";
name = "Sep 7 16, 21:17";
paths = (
{
closed = 1;
nodes = (
"495 -1 LINE SMOOTH",
"496 -1 OFFCURVE",
"496 -1 OFFCURVE",
"497 0 CURVE",
"505 5 OFFCURVE",
"531 34 OFFCURVE",
"534 37 CURVE",
"534 40 LINE SMOOTH",
"534 43 OFFCURVE",
"535 44 OFFCURVE",
"535 45 CURVE SMOOTH",
"535 76 OFFCURVE",
"524 104 OFFCURVE",
"524 136 CURVE SMOOTH",
"525 168 LINE",
"532 168 OFFCURVE",
"604 188 OFFCURVE",
"624 188 CURVE SMOOTH",
"628 188 LINE SMOOTH",
"637 188 OFFCURVE",
"704 179 OFFCURVE",
"713 179 CURVE SMOOTH",
"723 179 LINE SMOOTH",
"735 179 OFFCURVE",
"742 185 OFFCURVE",
"742 195 CURVE SMOOTH",
"742 253 OFFCURVE",
"691 244 OFFCURVE",
"648 244 CURVE SMOOTH",
"601 244 OFFCURVE",
"579 243 OFFCURVE",
"525 235 CURVE",
"517 244 LINE",
"517 310 LINE",
"549 313 LINE SMOOTH",
"565 315 OFFCURVE",
"586 317 OFFCURVE",
"601 318 CURVE",
"610 318 LINE",
"617 316 OFFCURVE",
"654 310 OFFCURVE",
"657 310 CURVE",
"657 308 OFFCURVE",
"674 300 OFFCURVE",
"676 300 CURVE SMOOTH",
"685 300 OFFCURVE",
"704 313 OFFCURVE",
"704 323 CURVE SMOOTH",
"704 326 LINE",
"704 329 LINE",
"693 340 OFFCURVE",
"667 366 OFFCURVE",
"666 366 CURVE SMOOTH",
"507 366 LINE SMOOTH",
"496 366 OFFCURVE",
"470 468 OFFCURVE",
"470 487 CURVE",
"460 488 LINE",
"440 488 OFFCURVE",
"432 468 OFFCURVE",
"432 449 CURVE SMOOTH",
"432 426 OFFCURVE",
"451 399 OFFCURVE",
"451 374 CURVE SMOOTH",
"451 358 OFFCURVE",
"422 346 OFFCURVE",
"409 346 CURVE SMOOTH",
"389 346 OFFCURVE",
"379 348 OFFCURVE",
"356 355 CURVE",
"346 395 OFFCURVE",
"336 451 OFFCURVE",
"336 492 CURVE",
"324 492 OFFCURVE",
"301 479 OFFCURVE",
"301 469 CURVE SMOOTH",
"301 338 LINE SMOOTH",
"301 316 OFFCURVE",
"9 310 OFFCURVE",
"9 235 CURVE SMOOTH",
"9 219 OFFCURVE",
"18 215 OFFCURVE",
"33 215 CURVE SMOOTH",
"99 215 OFFCURVE",
"188 273 OFFCURVE",
"273 273 CURVE",
"301 272 LINE",
"310 262 LINE",
"310 197 LINE SMOOTH",
"310 195 OFFCURVE",
"283 190 OFFCURVE",
"272 188 CURVE SMOOTH",
"209 177 OFFCURVE",
"148 165 OFFCURVE",
"85 150 CURVE",
"84 142 LINE",
"84 127 OFFCURVE",
"94 112 OFFCURVE",
"106 112 CURVE SMOOTH",
"113 112 LINE",
"132 116 OFFCURVE",
"283 137 OFFCURVE",
"301 142 CURVE",
"311 142 LINE SMOOTH",
"348 142 OFFCURVE",
"311 48 OFFCURVE",
"356 48 CURVE SMOOTH",
"359 48 OFFCURVE",
"372 53 OFFCURVE",
"376 57 CURVE SMOOTH",
"377 58 OFFCURVE",
"385 64 OFFCURVE",
"385 65 CURVE SMOOTH",
"385 150 LINE",
"450 168 LINE",
"460 159 LINE",
"471 148 OFFCURVE",
"472 -1 OFFCURVE",
"493 -1 CURVE SMOOTH"
);
},
{
closed = 1;
nodes = (
"371 214 OFFCURVE",
"366 255 OFFCURVE",
"366 262 CURVE SMOOTH",
"366 265 OFFCURVE",
"372 277 OFFCURVE",
"376 281 CURVE",
"377 284 OFFCURVE",
"384 291 OFFCURVE",
"385 291 CURVE SMOOTH",
"450 291 LINE SMOOTH",
"453 291 OFFCURVE",
"459 277 OFFCURVE",
"460 272 CURVE",
"460 271 OFFCURVE",
"462 251 OFFCURVE",
"462 244 CURVE SMOOTH",
"462 240 OFFCURVE",
"461 236 OFFCURVE",
"461 232 CURVE",
"460 229 OFFCURVE",
"460 228 OFFCURVE",
"460 225 CURVE",
"376 206 LINE"
);
}
);
width = 769;
}
);
leftKerningGroup = numbersign;
rightKerningGroup = numbersign;
unicode = 0023;
},
{
color = 3;
glyphname = period;
lastChange = "2016-09-07 20:13:06 +0000";
layers = (
{
layerId = UUID0;
paths = (
{
closed = 1;
nodes = (
"138 0 OFFCURVE",
"177 53 OFFCURVE",
"177 83 CURVE SMOOTH",
"177 127 OFFCURVE",
"151 188 OFFCURVE",
"100 188 CURVE SMOOTH",
"82 188 OFFCURVE",
"44 164 OFFCURVE",
"44 94 CURVE SMOOTH",
"44 64 OFFCURVE",
"66 0 OFFCURVE",
"104 0 CURVE SMOOTH"
);
}
);
width = 204;
}
);
leftKerningGroup = period;
rightKerningGroup = period;
unicode = 002E;
},
{
color = 3;
glyphname = question;
lastChange = "2016-09-07 20:13:06 +0000";
layers = (
{
layerId = UUID0;
paths = (
{
closed = 1;
nodes = (
"192 179 OFFCURVE",
"223 186 OFFCURVE",
"223 202 CURVE SMOOTH",
"223 224 OFFCURVE",
"217 232 OFFCURVE",
"204 231 CURVE SMOOTH",
"175 228 OFFCURVE",
"150 233 OFFCURVE",
"150 254 CURVE SMOOTH",
"150 352 OFFCURVE",
"292 433 OFFCURVE",
"292 549 CURVE SMOOTH",
"292 658 OFFCURVE",
"239 712 OFFCURVE",
"142 712 CURVE SMOOTH",
"70 712 OFFCURVE",
"25 674 OFFCURVE",
"25 649 CURVE SMOOTH",
"25 640 OFFCURVE",
"29 633 OFFCURVE",
"38 629 CURVE",
"52 652 OFFCURVE",
"85 667 OFFCURVE",
"141 667 CURVE SMOOTH",
"196 667 OFFCURVE",
"235 633 OFFCURVE",
"235 566 CURVE SMOOTH",
"235 441 OFFCURVE",
"93 352 OFFCURVE",
"93 235 CURVE SMOOTH",
"93 187 OFFCURVE",
"141 179 OFFCURVE",
"166 179 CURVE SMOOTH"
);
},
{
closed = 1;
nodes = (
"173 0 OFFCURVE",
"183 18 OFFCURVE",
"183 33 CURVE SMOOTH",
"183 52 OFFCURVE",
"176 75 OFFCURVE",
"154 75 CURVE SMOOTH",
"131 75 OFFCURVE",
"116 61 OFFCURVE",
"116 37 CURVE SMOOTH",
"116 15 OFFCURVE",
"129 0 OFFCURVE",
"154 0 CURVE SMOOTH"
);
}
);
width = 317;
}
);
leftKerningGroup = quesion;
rightKerningGroup = question;
unicode = 003F;
},
{
color = 3;
glyphname = quotedbl;
lastChange = "2016-09-07 20:13:06 +0000";
layers = (
{
layerId = UUID0;
paths = (
{
closed = 1;
nodes = (
"98 505 OFFCURVE",
"105 510 OFFCURVE",
"113 525 CURVE",
"86 580 OFFCURVE",
"66 770 OFFCURVE",
"29 770 CURVE SMOOTH",
"21 770 OFFCURVE",
"14 771 OFFCURVE",
"10 760 CURVE",
"10 715 OFFCURVE",
"31 505 OFFCURVE",
"85 505 CURVE SMOOTH"
);
},
{
closed = 1;
nodes = (
"188 487 LINE",
"192 490 OFFCURVE",
"206 502 OFFCURVE",
"207 506 CURVE",
"207 539 LINE SMOOTH",
"207 555 OFFCURVE",
"206 798 OFFCURVE",
"155 798 CURVE SMOOTH",
"153 798 LINE",
"150 798 LINE",
"149 795 OFFCURVE",
"142 790 OFFCURVE",
"142 787 CURVE SMOOTH",
"142 750 LINE SMOOTH",
"142 675 OFFCURVE",
"146 625 OFFCURVE",
"150 534 CURVE",
"150 531 OFFCURVE",
"167 487 OFFCURVE",
"183 487 CURVE SMOOTH"
);
}
);
width = 235;
}
);
leftKerningGroup = quotesingle;
rightKerningGroup = quotesingle;
unicode = 0022;
},
{
color = 3;
glyphname = quotesingle;
lastChange = "2016-09-07 20:13:06 +0000";
layers = (
{
layerId = UUID0;
paths = (
{
closed = 1;
nodes = (
"86 487 OFFCURVE",
"86 500 OFFCURVE",
"86 519 CURVE SMOOTH",
"86 566 OFFCURVE",
"81 706 OFFCURVE",
"37 730 CURVE",
"20 716 OFFCURVE",
"19 712 OFFCURVE",
"19 695 CURVE SMOOTH",
"19 685 OFFCURVE",
"17 487 OFFCURVE",
"65 487 CURVE SMOOTH"
);
}
);
width = 104;
}
);
leftKerningGroup = quotesingle;
rightKerningGroup = quotesingle;
unicode = 0027;
},
{
color = 3;
glyphname = semicolon;
lastChange = "2016-09-07 20:13:06 +0000";
layers = (
{
background = {
components = (
{
name = periodcentered;
transform = "{1, 0, 0, 1, -40, 120}";
}
);
};
layerId = UUID0;
paths = (
{
closed = 1;
nodes = (
"66 -184 OFFCURVE",
"104 0 OFFCURVE",
"104 66 CURVE SMOOTH",
"104 94 OFFCURVE",
"102 125 OFFCURVE",
"74 142 CURVE",
"44 119 OFFCURVE",
"50 52 OFFCURVE",
"48 28 CURVE",
"32 -53 OFFCURVE",
"-15 -69 OFFCURVE",
"-15 -154 CURVE SMOOTH",
"-15 -166 OFFCURVE",
"-20 -184 OFFCURVE",
"0 -184 CURVE SMOOTH"
);
},
{
closed = 1;
nodes = (
"75 308 OFFCURVE",
"98 323 OFFCURVE",
"74 375 CURVE",
"85 380 OFFCURVE",
"19 407 OFFCURVE",
"19 375 CURVE",
"14 340 OFFCURVE",
"25 300 OFFCURVE",
"61 300 CURVE"
);
}
);
width = 130;
}
);
leftKerningGroup = period;
rightKerningGroup = period;
unicode = 003B;
},
{
color = 3;
glyphname = slash;
lastChange = "2016-09-07 20:13:06 +0000";
layers = (
{
layerId = UUID0;
paths = (
{
closed = 1;
nodes = (
"82 0 OFFCURVE",
"291 625 OFFCURVE",
"291 705 CURVE SMOOTH",
"291 721 OFFCURVE",
"296 745 OFFCURVE",
"272 750 CURVE",
"238 737 OFFCURVE",
"233 656 OFFCURVE",
"226 619 CURVE",
"65 179 LINE",
"50 150 OFFCURVE",
"10 67 OFFCURVE",
"10 33 CURVE SMOOTH",
"10 19 OFFCURVE",
"21 0 OFFCURVE",
"38 0 CURVE SMOOTH"
);
}
);
width = 310;
}
);
leftKerningGroup = slash;
rightKerningGroup = slash;
unicode = 002F;
},
{
color = 3;
glyphname = underscore;
lastChange = "2016-09-07 20:13:06 +0000";
layers = (
{
layerId = UUID0;
paths = (
{
closed = 1;
nodes = (
"629 0 OFFCURVE",
"639 16 OFFCURVE",
"639 28 CURVE SMOOTH",
"639 60 OFFCURVE",
"610 74 OFFCURVE",
"582 74 CURVE SMOOTH",
"403 74 LINE SMOOTH",
"389 74 OFFCURVE",
"238 85 OFFCURVE",
"207 85 CURVE",
"160 90 OFFCURVE",
"112 104 OFFCURVE",
"65 104 CURVE SMOOTH",
"46 104 OFFCURVE",
"27 105 OFFCURVE",
"27 85 CURVE SMOOTH",
"27 37 OFFCURVE",
"482 0 OFFCURVE",
"616 0 CURVE SMOOTH"
);
}
);
width = 656;
}
);
leftKerningGroup = period;
rightKerningGroup = period;
unicode = 005F;
},
{
color = 3;
glyphname = braceleft;
lastChange = "2016-09-07 20:13:06 +0000";
layers = (
{
layerId = UUID0;
paths = (
{
closed = 1;
nodes = (
"460 -229 OFFCURVE",
"507 -216 OFFCURVE",
"507 -160 CURVE",
"457 -150 OFFCURVE",
"432 -178 OFFCURVE",
"379 -178 CURVE SMOOTH",
"310 -178 OFFCURVE",
"273 -158 OFFCURVE",
"273 -75 CURVE SMOOTH",
"273 58 OFFCURVE",
"287 107 OFFCURVE",
"287 197 CURVE SMOOTH",
"287 286 OFFCURVE",
"240 306 OFFCURVE",
"172 336 CURVE",
"218 399 OFFCURVE",
"220 452 OFFCURVE",
"187 548 CURVE SMOOTH",
"143 677 OFFCURVE",
"177 760 OFFCURVE",
"327 760 CURVE SMOOTH",
"402 760 OFFCURVE",
"395 729 OFFCURVE",
"426 719 CURVE SMOOTH",
"442 714 OFFCURVE",
"447 732 OFFCURVE",
"447 740 CURVE SMOOTH",
"447 805 OFFCURVE",
"382 826 OFFCURVE",
"334 816 CURVE SMOOTH",
"190 786 OFFCURVE",
"84 711 OFFCURVE",
"133 532 CURVE SMOOTH",
"168 404 OFFCURVE",
"183 378 OFFCURVE",
"13 322 CURVE",
"9 306 OFFCURVE",
"9 289 OFFCURVE",
"24 277 CURVE",
"168 294 OFFCURVE",
"228 276 OFFCURVE",
"231 189 CURVE SMOOTH",
"234 100 OFFCURVE",
"220 29 OFFCURVE",
"220 -77 CURVE SMOOTH",
"220 -188 OFFCURVE",
"291 -229 OFFCURVE",
"383 -229 CURVE SMOOTH"
);
}
);
width = 517;
},
{
associatedMasterId = UUID0;
layerId = "5FD3C051-F954-4544-99E9-7297629467AE";
name = "Sep 7 16, 21:29";
paths = (
{
closed = 1;
nodes = (
"247 -95 OFFCURVE",
"396 -94 OFFCURVE",
"396 -28 CURVE",
"347 -28 OFFCURVE",
"301 -38 OFFCURVE",
"253 -46 CURVE",
"248 -46 LINE SMOOTH",
"182 -46 OFFCURVE",
"144 -8 OFFCURVE",
"112 48 CURVE",
"112 57 LINE SMOOTH",
"112 190 OFFCURVE",
"338 210 OFFCURVE",
"338 348 CURVE SMOOTH",
"338 394 OFFCURVE",
"284 421 OFFCURVE",
"300 469 CURVE",
"219 515 OFFCURVE",
"64 536 OFFCURVE",
"64 656 CURVE",
"91 761 OFFCURVE",
"166 834 OFFCURVE",
"277 845 CURVE",
"313 845 OFFCURVE",
"336 795 OFFCURVE",
"352 795 CURVE SMOOTH",
"364 795 OFFCURVE",
"367 813 OFFCURVE",
"367 824 CURVE SMOOTH",
"367 873 OFFCURVE",
"315 892 OFFCURVE",
"276 892 CURVE SMOOTH",
"169 892 OFFCURVE",
"19 796 OFFCURVE",
"19 678 CURVE SMOOTH",
"19 585 OFFCURVE",
"74 479 OFFCURVE",
"179 460 CURVE",
"166 410 OFFCURVE",
"74 374 OFFCURVE",
"37 355 CURVE",
"36 342 LINE",
"36 326 OFFCURVE",
"40 317 OFFCURVE",
"57 317 CURVE",
"65 318 LINE",
"98 337 OFFCURVE",
"198 394 OFFCURVE",
"248 394 CURVE SMOOTH",
"253 394 LINE SMOOTH",
"256 394 OFFCURVE",
"270 386 OFFCURVE",
"272 385 CURVE",
"273 355 LINE",
"273 229 OFFCURVE",
"64 213 OFFCURVE",
"64 70 CURVE SMOOTH",
"64 -6 OFFCURVE",
"117 -113 OFFCURVE",
"211 -95 CURVE"
);
}
);
width = 394;
}
);
leftKerningGroup = parenleft;
rightKerningGroup = parenleft;
unicode = 007B;
},
{
color = 3;
glyphname = braceright;
lastChange = "2016-09-07 20:13:06 +0000";
layers = (
{
layerId = UUID0;
paths = (
{
closed = 1;
nodes = (
"323 -224 OFFCURVE",
"424 -143 OFFCURVE",
"424 1 CURVE SMOOTH",
"424 81 OFFCURVE",
"418 120 OFFCURVE",
"406 190 CURVE SMOOTH",
"388 268 OFFCURVE",
"417 305 OFFCURVE",
"458 308 CURVE SMOOTH",
"589 316 LINE",
"601 319 OFFCURVE",
"601 360 OFFCURVE",
"586 373 CURVE",
"389 353 OFFCURVE",
"366 400 OFFCURVE",
"384 602 CURVE SMOOTH",
"393 726 OFFCURVE",
"303 784 OFFCURVE",
"176 784 CURVE SMOOTH",
"83 784 OFFCURVE",
"28 766 OFFCURVE",
"28 706 CURVE SMOOTH",
"28 664 OFFCURVE",
"67 637 OFFCURVE",
"97 637 CURVE SMOOTH",
"113 637 OFFCURVE",
"120 641 OFFCURVE",
"120 653 CURVE SMOOTH",
"120 680 OFFCURVE",
"76 665 OFFCURVE",
"76 700 CURVE SMOOTH",
"76 728 OFFCURVE",
"115 741 OFFCURVE",
"187 741 CURVE SMOOTH",
"274 741 OFFCURVE",
"355 708 OFFCURVE",
"337 567 CURVE SMOOTH",
"321 450 OFFCURVE",
"321 389 OFFCURVE",
"397 334 CURVE",
"271 228 OFFCURVE",
"366 192 OFFCURVE",
"366 1 CURVE SMOOTH",
"366 -132 OFFCURVE",
"307 -177 OFFCURVE",
"202 -177 CURVE SMOOTH",
"83 -177 OFFCURVE",
"89 -116 OFFCURVE",
"56 -116 CURVE SMOOTH",
"35 -116 OFFCURVE",
"18 -140 OFFCURVE",
"23 -160 CURVE SMOOTH",
"43 -220 OFFCURVE",
"141 -230 OFFCURVE",
"195 -228 CURVE SMOOTH"
);
}
);
width = 578;
},
{
associatedMasterId = UUID0;
layerId = "5CA1F3B8-31C3-4FF4-A26E-6D1A20D5E86E";
name = "Sep 7 16, 21:29";
paths = (
{
closed = 1;
nodes = (
"324 -226 OFFCURVE",
"414 -159 OFFCURVE",
"414 -29 CURVE SMOOTH",
"414 68 OFFCURVE",
"358 145 OFFCURVE",
"310 225 CURVE",
"285 261 OFFCURVE",
"168 381 OFFCURVE",
"168 394 CURVE",
"173 418 OFFCURVE",
"193 428 OFFCURVE",
"216 432 CURVE",
"236 432 OFFCURVE",
"327 440 OFFCURVE",
"347 440 CURVE",
"358 443 OFFCURVE",
"356 457 OFFCURVE",
"356 465 CURVE SMOOTH",
"356 479 OFFCURVE",
"356 489 OFFCURVE",
"338 497 CURVE",
"321 495 OFFCURVE",
"242 494 OFFCURVE",
"225 497 CURVE",
"194 500 OFFCURVE",
"168 497 OFFCURVE",
"168 529 CURVE SMOOTH",
"168 621 OFFCURVE",
"366 666 OFFCURVE",
"366 792 CURVE SMOOTH",
"366 863 OFFCURVE",
"317 914 OFFCURVE",
"253 938 CURVE",
"168 938 LINE SMOOTH",
"142 938 OFFCURVE",
"8 957 OFFCURVE",
"8 896 CURVE SMOOTH",
"8 851 OFFCURVE",
"37 824 OFFCURVE",
"85 824 CURVE SMOOTH",
"101 824 OFFCURVE",
"113 824 OFFCURVE",
"113 844 CURVE SMOOTH",
"113 878 OFFCURVE",
"69 848 OFFCURVE",
"57 881 CURVE",
"89 878 OFFCURVE",
"116 892 OFFCURVE",
"149 892 CURVE SMOOTH",
"214 892 OFFCURVE",
"301 886 OFFCURVE",
"301 807 CURVE SMOOTH",
"301 793 OFFCURVE",
"302 761 OFFCURVE",
"291 750 CURVE SMOOTH",
"131 591 LINE SMOOTH",
"112 571 OFFCURVE",
"112 554 OFFCURVE",
"112 529 CURVE SMOOTH",
"112 502 OFFCURVE",
"131 479 OFFCURVE",
"131 455 CURVE SMOOTH",
"131 436 OFFCURVE",
"121 423 OFFCURVE",
"121 398 CURVE SMOOTH",
"121 313 OFFCURVE",
"195 292 OFFCURVE",
"244 235 CURVE",
"280 183 OFFCURVE",
"366 52 OFFCURVE",
"366 -19 CURVE SMOOTH",
"366 -121 OFFCURVE",
"262 -201 OFFCURVE",
"159 -178 CURVE",
"158 -178 OFFCURVE",
"88 -146 OFFCURVE",
"65 -131 CURVE",
"48 -122 OFFCURVE",
"49 -84 OFFCURVE",
"23 -84 CURVE SMOOTH",
"12 -84 OFFCURVE",
"0 -104 OFFCURVE",
"0 -113 CURVE",
"19 -211 OFFCURVE",
"132 -233 OFFCURVE",
"206 -226 CURVE"
);
}
);
width = 440;
}
);
leftKerningGroup = parenright;
rightKerningGroup = parenright;
unicode = 007D;
},
{
color = 3;
glyphname = bracketleft;
lastChange = "2016-09-07 20:13:06 +0000";
layers = (
{
layerId = UUID0;
paths = (
{
closed = 1;
nodes = (
"525 -65 LINE",
"529 -46 OFFCURVE",
"528 -21 OFFCURVE",
"517 -9 CURVE",
"292 -8 OFFCURVE",
"337 -24 OFFCURVE",
"200 -24 CURVE SMOOTH",
"187 -24 OFFCURVE",
"107 422 OFFCURVE",
"85 563 CURVE",
"171 596 OFFCURVE",
"320 635 OFFCURVE",
"449 662 CURVE",
"453 669 OFFCURVE",
"454 703 OFFCURVE",
"446 704 CURVE SMOOTH",
"339 711 OFFCURVE",
"19 632 OFFCURVE",
"19 566 CURVE SMOOTH",
"57 326 OFFCURVE",
"130 -94 OFFCURVE",
"150 -94 CURVE"
);
}
);
width = 547;
},
{
associatedMasterId = UUID0;
layerId = "F4EBC3B1-1E09-43A2-B226-CCADB10D8D01";
name = "Sep 7 16, 21:24";
paths = (
{
closed = 1;
nodes = (
"152 -95 OFFCURVE",
"175 -86 OFFCURVE",
"179 -84 CURVE",
"185 -84 OFFCURVE",
"210 -75 OFFCURVE",
"216 -75 CURVE",
"291 -60 OFFCURVE",
"448 -63 OFFCURVE",
"525 -65 CURVE",
"529 -64 OFFCURVE",
"542 -58 OFFCURVE",
"543 -57 CURVE",
"543 -55 LINE",
"543 -55 OFFCURVE",
"544 -54 OFFCURVE",
"544 -53 CURVE SMOOTH",
"544 -36 OFFCURVE",
"528 -20 OFFCURVE",
"517 -9 CURVE",
"427 -8 LINE SMOOTH",
"352 -8 OFFCURVE",
"277 -20 OFFCURVE",
"200 -20 CURVE SMOOTH",
"169 -20 OFFCURVE",
"174 89 OFFCURVE",
"122 432 CURVE",
"104 455 OFFCURVE",
"86 538 OFFCURVE",
"86 563 CURVE",
"94 563 LINE",
"201 607 OFFCURVE",
"340 643 OFFCURVE",
"449 666 CURVE",
"452 666 OFFCURVE",
"457 674 OFFCURVE",
"460 675 CURVE",
"460 685 LINE",
"457 689 OFFCURVE",
"452 701 OFFCURVE",
"449 704 CURVE",
"446 704 LINE SMOOTH",
"320 704 OFFCURVE",
"151 644 OFFCURVE",
"37 600 CURVE",
"26 593 OFFCURVE",
"19 581 OFFCURVE",
"19 566 CURVE SMOOTH",
"19 563 LINE",
"74 366 LINE",
"74 355 LINE SMOOTH",
"74 354 OFFCURVE",
"83 329 OFFCURVE",
"85 329 CURVE",
"93 279 OFFCURVE",
"118 123 OFFCURVE",
"122 104 CURVE",
"124 86 OFFCURVE",
"130 -40 OFFCURVE",
"131 -57 CURVE",
"131 -61 OFFCURVE",
"138 -80 OFFCURVE",
"142 -84 CURVE",
"143 -88 OFFCURVE",
"149 -94 OFFCURVE",
"150 -94 CURVE"
);
}
);
width = 479;
}
);
leftKerningGroup = parenleft;
rightKerningGroup = parenleft;
unicode = 005B;
},
{
color = 3;
glyphname = bracketright;
lastChange = "2016-09-07 20:13:06 +0000";
layers = (
{
layerId = UUID0;
paths = (
{
closed = 1;
nodes = (
"366 -94 LINE SMOOTH",
"393 -94 OFFCURVE",
"415 -84 OFFCURVE",
"413 -54 CURVE SMOOTH",
"381 487 OFFCURVE",
"384 661 OFFCURVE",
"262 683 CURVE SMOOTH",
"127 707 OFFCURVE",
"22 736 OFFCURVE",
"9 701 CURVE",
"9 655 OFFCURVE",
"139 641 OFFCURVE",
"282 610 CURVE",
"312 495 OFFCURVE",
"370 -20 OFFCURVE",
"346 -20 CURVE SMOOTH",
"65 -20 LINE",
"64 -78 OFFCURVE",
"64 -94 OFFCURVE",
"94 -94 CURVE SMOOTH"
);
}
);
width = 432;
}
);
leftKerningGroup = parenright;
rightKerningGroup = parenright;
unicode = 005D;
},
{
color = 3;
glyphname = parenleft;
lastChange = "2016-09-07 20:13:06 +0000";
layers = (
{
layerId = UUID0;
paths = (
{
closed = 1;
nodes = (
"250 -38 OFFCURVE",
"282 -26 OFFCURVE",
"282 -9 CURVE SMOOTH",
"282 -1 OFFCURVE",
"281 6 OFFCURVE",
"272 10 CURVE",
"155 -8 OFFCURVE",
"84 47 OFFCURVE",
"84 223 CURVE SMOOTH",
"84 509 OFFCURVE",
"183 575 OFFCURVE",
"284 575 CURVE SMOOTH",
"322 575 OFFCURVE",
"325 555 OFFCURVE",
"350 555 CURVE SMOOTH",
"362 555 OFFCURVE",
"370 566 OFFCURVE",
"370 582 CURVE SMOOTH",
"370 605 OFFCURVE",
"335 628 OFFCURVE",
"287 628 CURVE SMOOTH",
"183 628 OFFCURVE",
"19 546 OFFCURVE",
"19 241 CURVE SMOOTH",
"19 88 OFFCURVE",
"79 -38 OFFCURVE",
"202 -38 CURVE SMOOTH"
);
}
);
width = 423;
}
);
leftKerningGroup = parenleft;
rightKerningGroup = parenleft;
unicode = 0028;
},
{
color = 3;
glyphname = parenright;
lastChange = "2016-09-07 20:13:06 +0000";
layers = (
{
layerId = UUID0;
paths = (
{
closed = 1;
nodes = (
"133 -58 OFFCURVE",
"273 97 OFFCURVE",
"273 310 CURVE SMOOTH",
"273 464 OFFCURVE",
"183 592 OFFCURVE",
"86 592 CURVE SMOOTH",
"63 592 OFFCURVE",
"53 583 OFFCURVE",
"53 564 CURVE SMOOTH",
"53 522 OFFCURVE",
"217 559 OFFCURVE",
"217 310 CURVE SMOOTH",
"217 56 OFFCURVE",
"29 11 OFFCURVE",
"9 -20 CURVE SMOOTH",
"-1 -36 OFFCURVE",
"18 -58 OFFCURVE",
"33 -58 CURVE SMOOTH"
);
}
);
width = 291;
}
);
leftKerningGroup = parenright;
rightKerningGroup = parenright;
unicode = 0029;
},
{
color = 3;
glyphname = emdash;
lastChange = "2016-09-07 20:13:06 +0000";
layers = (
{
layerId = UUID0;
paths = (
{
closed = 1;
nodes = (
"90 241 OFFCURVE",
"306 261 OFFCURVE",
"381 261 CURVE SMOOTH",
"411 261 OFFCURVE",
"434 250 OFFCURVE",
"461 250 CURVE SMOOTH",
"474 250 OFFCURVE",
"479 257 OFFCURVE",
"479 271 CURVE SMOOTH",
"479 301 OFFCURVE",
"449 309 OFFCURVE",
"367 307 CURVE SMOOTH",
"296 301 OFFCURVE",
"-4 299 OFFCURVE",
"15 241 CURVE"
);
}
);
width = 513;
}
);
leftKerningGroup = hyphen;
rightKerningGroup = hyphen;
unicode = 2014;
},
{
color = 3;
glyphname = endash;
lastChange = "2016-09-07 20:13:06 +0000";
layers = (
{
layerId = UUID0;
paths = (
{
closed = 1;
nodes = (
"91 241 OFFCURVE",
"99 262 OFFCURVE",
"175 262 CURVE SMOOTH",
"205 262 OFFCURVE",
"227 250 OFFCURVE",
"255 250 CURVE SMOOTH",
"268 250 OFFCURVE",
"273 257 OFFCURVE",
"273 271 CURVE SMOOTH",
"273 318 OFFCURVE",
"221 317 OFFCURVE",
"183 317 CURVE SMOOTH",
"160 317 LINE",
"90 307 OFFCURVE",
"15 333 OFFCURVE",
"15 241 CURVE"
);
}
);
width = 288;
}
);
leftKerningGroup = hyphen;
rightKerningGroup = hyphen;
unicode = 2013;
},
{
color = 3;
glyphname = hyphen;
lastChange = "2016-09-07 20:13:06 +0000";
layers = (
{
layerId = UUID0;
paths = (
{
closed = 1;
nodes = (
"90 231 OFFCURVE",
"164 263 OFFCURVE",
"239 263 CURVE SMOOTH",
"280 263 OFFCURVE",
"291 252 OFFCURVE",
"319 252 CURVE SMOOTH",
"332 252 OFFCURVE",
"338 259 OFFCURVE",
"338 272 CURVE SMOOTH",
"338 287 OFFCURVE",
"305 304 OFFCURVE",
"225 298 CURVE SMOOTH",
"104 289 OFFCURVE",
"15 273 OFFCURVE",
"15 231 CURVE"
);
}
);
width = 375;
}
);
leftKerningGroup = hyphen;
rightKerningGroup = hyphen;
unicode = 002D;
},
{
color = 3;
glyphname = guillemetleft;
lastChange = "2016-09-07 20:13:06 +0000";
layers = (
{
layerId = UUID0;
paths = (
{
closed = 1;
nodes = (
"416 0 OFFCURVE",
"425 8 OFFCURVE",
"425 23 CURVE SMOOTH",
"425 75 OFFCURVE",
"306 89 OFFCURVE",
"272 94 CURVE",
"258 94 OFFCURVE",
"111 116 OFFCURVE",
"104 131 CURVE",
"150 186 OFFCURVE",
"226 223 OFFCURVE",
"282 262 CURVE",
"297 276 OFFCURVE",
"460 378 OFFCURVE",
"460 385 CURVE",
"456 389 OFFCURVE",
"438 410 OFFCURVE",
"432 412 CURVE",
"401 399 OFFCURVE",
"355 376 OFFCURVE",
"329 355 CURVE",
"255 309 OFFCURVE",
"81 182 OFFCURVE",
"75 179 CURVE",
"10 112 LINE",
"-36 70 OFFCURVE",
"142 49 OFFCURVE",
"246 37 CURVE SMOOTH",
"292 32 LINE SMOOTH",
"305 31 OFFCURVE",
"314 29 OFFCURVE",
"319 28 CURVE SMOOTH",
"346 23 OFFCURVE",
"372 0 OFFCURVE",
"399 0 CURVE SMOOTH"
);
},
{
closed = 1;
nodes = (
"654 63 OFFCURVE",
"663 71 OFFCURVE",
"663 87 CURVE SMOOTH",
"663 139 OFFCURVE",
"543 152 OFFCURVE",
"511 157 CURVE",
"497 157 OFFCURVE",
"349 180 OFFCURVE",
"342 194 CURVE",
"389 249 OFFCURVE",
"465 288 OFFCURVE",
"521 326 CURVE",
"535 338 OFFCURVE",
"698 444 OFFCURVE",
"698 448 CURVE",
"693 453 OFFCURVE",
"677 473 OFFCURVE",
"670 476 CURVE",
"639 463 OFFCURVE",
"595 439 OFFCURVE",
"566 420 CURVE",
"498 370 OFFCURVE",
"314 246 OFFCURVE",
"314 242 CURVE",
"248 177 LINE",
"207 133 OFFCURVE",
"377 112 OFFCURVE",
"484 101 CURVE SMOOTH",
"531 96 LINE SMOOTH",
"544 95 OFFCURVE",
"553 93 OFFCURVE",
"558 92 CURVE SMOOTH",
"564 91 OFFCURVE",
"570 88 OFFCURVE",
"577 85 CURVE",
"597 75 LINE",
"611 70 OFFCURVE",
"625 63 OFFCURVE",
"637 63 CURVE SMOOTH"
);
}
);
width = 756;
}
);
leftKerningGroup = guilsinglleft;
rightKerningGroup = guilsinglleft;
unicode = 00AB;
},
{
color = 3;
glyphname = guillemetright;
lastChange = "2016-09-07 20:13:06 +0000";
layers = (
{
layerId = UUID0;
paths = (
{
closed = 1;
nodes = (
"63 -1 OFFCURVE",
"307 179 OFFCURVE",
"329 197 CURVE",
"357 229 OFFCURVE",
"406 255 OFFCURVE",
"396 303 CURVE",
"396 318 OFFCURVE",
"396 330 OFFCURVE",
"376 338 CURVE",
"301 349 OFFCURVE",
"220 379 OFFCURVE",
"150 403 CURVE SMOOTH",
"110 417 OFFCURVE",
"100 461 OFFCURVE",
"57 461 CURVE SMOOTH",
"42 461 OFFCURVE",
"27 457 OFFCURVE",
"27 440 CURVE",
"28 432 LINE",
"47 375 OFFCURVE",
"229 304 OFFCURVE",
"301 300 CURVE",
"396 265 OFFCURVE",
"40 80 OFFCURVE",
"27 33 CURVE",
"27 17 OFFCURVE",
"28 -1 OFFCURVE",
"51 -1 CURVE SMOOTH"
);
},
{
closed = 1;
nodes = (
"287 23 OFFCURVE",
"527 204 OFFCURVE",
"552 221 CURVE",
"581 252 OFFCURVE",
"629 280 OFFCURVE",
"618 326 CURVE",
"618 342 OFFCURVE",
"618 354 OFFCURVE",
"599 361 CURVE",
"523 373 OFFCURVE",
"442 401 OFFCURVE",
"373 428 CURVE",
"333 441 OFFCURVE",
"322 484 OFFCURVE",
"279 484 CURVE SMOOTH",
"265 484 OFFCURVE",
"250 480 OFFCURVE",
"250 465 CURVE",
"251 455 LINE",
"271 399 OFFCURVE",
"451 327 OFFCURVE",
"523 323 CURVE",
"618 288 OFFCURVE",
"262 104 OFFCURVE",
"250 58 CURVE",
"250 39 OFFCURVE",
"251 23 OFFCURVE",
"273 23 CURVE SMOOTH"
);
}
);
width = 660;
}
);
leftKerningGroup = guilsinglright;
rightKerningGroup = guilsinglright;
unicode = 00BB;
},
{
color = 3;
glyphname = guilsinglleft;
lastChange = "2016-09-07 20:13:06 +0000";
layers = (
{
layerId = UUID0;
paths = (
{
closed = 1;
nodes = (
"416 0 OFFCURVE",
"425 8 OFFCURVE",
"425 23 CURVE SMOOTH",
"425 75 OFFCURVE",
"306 89 OFFCURVE",
"272 94 CURVE",
"258 94 OFFCURVE",
"111 116 OFFCURVE",
"104 131 CURVE",
"150 186 OFFCURVE",
"226 223 OFFCURVE",
"282 262 CURVE",
"297 276 OFFCURVE",
"460 378 OFFCURVE",
"460 385 CURVE",
"456 389 OFFCURVE",
"438 410 OFFCURVE",
"432 412 CURVE",
"401 399 OFFCURVE",
"355 376 OFFCURVE",
"329 355 CURVE",
"255 309 OFFCURVE",
"81 182 OFFCURVE",
"75 179 CURVE",
"10 112 LINE",
"-36 70 OFFCURVE",
"142 49 OFFCURVE",
"246 37 CURVE SMOOTH",
"292 32 LINE SMOOTH",
"305 31 OFFCURVE",
"314 29 OFFCURVE",
"319 28 CURVE SMOOTH",
"346 23 OFFCURVE",
"372 0 OFFCURVE",
"399 0 CURVE SMOOTH"
);
}
);
width = 487;
}
);
leftKerningGroup = guilsinglleft;
rightKerningGroup = guilsinglleft;
unicode = 2039;
},
{
color = 3;
glyphname = guilsinglright;
lastChange = "2016-09-07 20:13:06 +0000";
layers = (
{
layerId = UUID0;
paths = (
{
closed = 1;
nodes = (
"63 -1 OFFCURVE",
"307 179 OFFCURVE",
"329 197 CURVE",
"357 229 OFFCURVE",
"406 255 OFFCURVE",
"396 303 CURVE",
"396 318 OFFCURVE",
"396 330 OFFCURVE",
"376 338 CURVE",
"301 349 OFFCURVE",
"220 379 OFFCURVE",
"150 403 CURVE SMOOTH",
"110 417 OFFCURVE",
"100 461 OFFCURVE",
"57 461 CURVE SMOOTH",
"42 461 OFFCURVE",
"27 457 OFFCURVE",
"27 440 CURVE",
"28 432 LINE",
"47 375 OFFCURVE",
"229 304 OFFCURVE",
"301 300 CURVE",
"396 265 OFFCURVE",
"40 80 OFFCURVE",
"27 33 CURVE",
"27 17 OFFCURVE",
"28 -1 OFFCURVE",
"51 -1 CURVE SMOOTH"
);
}
);
width = 403;
}
);
leftKerningGroup = guilsinglright;
rightKerningGroup = guilsinglright;
unicode = 203A;
},
{
color = 3;
glyphname = quotedblright;
lastChange = "2016-09-08 07:09:55 +0000";
layers = (
{
components = (
{
name = quotesinglbase;
transform = "{1, 0, 0, 1, 0, 610}";
}
);
layerId = UUID0;
paths = (
{
closed = 1;
nodes = (
"140 433 OFFCURVE",
"148 433 CURVE SMOOTH",
"177 433 OFFCURVE",
"226 540 OFFCURVE",
"226 606 CURVE SMOOTH",
"226 648 OFFCURVE",
"185 661 OFFCURVE",
"166 661 CURVE SMOOTH",
"128 661 OFFCURVE",
"156 637 OFFCURVE",
"161 614 CURVE SMOOTH",
"180 521 OFFCURVE",
"138 464 OFFCURVE",
"136 446 CURVE SMOOTH",
"135 436 OFFCURVE"
);
}
);
width = 235;
},
{
associatedMasterId = UUID0;
layerId = "C1C8DC55-0691-470B-B6B8-D2A4CADEEAE6";
name = "Sep 8 16, 10:08";
paths = (
{
closed = 1;
nodes = (
"98 505 OFFCURVE",
"105 510 OFFCURVE",
"113 525 CURVE",
"86 580 OFFCURVE",
"66 770 OFFCURVE",
"29 770 CURVE SMOOTH",
"21 770 OFFCURVE",
"14 771 OFFCURVE",
"10 760 CURVE",
"10 715 OFFCURVE",
"31 505 OFFCURVE",
"85 505 CURVE SMOOTH"
);
},
{
closed = 1;
nodes = (
"188 487 LINE",
"192 490 OFFCURVE",
"206 502 OFFCURVE",
"207 506 CURVE",
"207 539 LINE SMOOTH",
"207 555 OFFCURVE",
"206 798 OFFCURVE",
"155 798 CURVE SMOOTH",
"150 798 LINE",
"146 792 LINE",
"143 790 OFFCURVE",
"142 788 OFFCURVE",
"142 787 CURVE SMOOTH",
"142 750 LINE SMOOTH",
"142 675 OFFCURVE",
"146 625 OFFCURVE",
"150 534 CURVE",
"150 531 OFFCURVE",
"167 487 OFFCURVE",
"183 487 CURVE SMOOTH"
);
}
);
width = 235;
}
);
leftKerningGroup = quoteright;
rightKerningGroup = quoteright;
unicode = 201D;
},
{
color = 3;
glyphname = quotesinglbase;
lastChange = "2016-09-08 07:07:48 +0000";
layers = (
{
layerId = UUID0;
paths = (
{
closed = 1;
nodes = (
"20 -159 OFFCURVE",
"28 -159 CURVE SMOOTH",
"57 -159 OFFCURVE",
"96 -72 OFFCURVE",
"96 -6 CURVE SMOOTH",
"96 36 OFFCURVE",
"91 63 OFFCURVE",
"72 63 CURVE SMOOTH",
"34 63 OFFCURVE",
"26 25 OFFCURVE",
"31 2 CURVE SMOOTH",
"50 -91 OFFCURVE",
"18 -128 OFFCURVE",
"16 -146 CURVE SMOOTH",
"15 -156 OFFCURVE"
);
}
);
width = 104;
},
{
associatedMasterId = UUID0;
layerId = "582DA4F6-C241-45BD-8BBA-2AFD5922E488";
name = "Sep 8 16, 10:06";
paths = (
{
closed = 1;
nodes = (
"91 -31 OFFCURVE",
"90 -19 OFFCURVE",
"90 0 CURVE SMOOTH",
"90 47 OFFCURVE",
"86 188 OFFCURVE",
"42 213 CURVE",
"23 194 OFFCURVE",
"23 194 OFFCURVE",
"23 178 CURVE SMOOTH",
"23 158 LINE SMOOTH",
"23 104 OFFCURVE",
"28 -31 OFFCURVE",
"70 -31 CURVE SMOOTH"
);
}
);
width = 104;
}
);
leftKerningGroup = period;
rightKerningGroup = period;
unicode = 201A;
},
{
color = 4;
glyphname = cedi;
lastChange = "2016-09-07 22:00:13 +0000";
layers = (
{
components = (
{
name = C;
}
);
layerId = UUID0;
paths = (
{
closed = 1;
nodes = (
"310 -62 CURVE SMOOTH",
"346 -62 OFFCURVE",
"354 -42 OFFCURVE",
"351 -25 CURVE SMOOTH",
"336 61 OFFCURVE",
"334 464 OFFCURVE",
"248 679 CURVE SMOOTH",
"246 684 OFFCURVE",
"235 686 OFFCURVE",
"228 685 CURVE SMOOTH",
"221 684 OFFCURVE",
"216 680 OFFCURVE",
"217 673 CURVE SMOOTH",
"225 619 OFFCURVE",
"235 577 OFFCURVE",
"241 547 CURVE SMOOTH",
"270 401 OFFCURVE",
"282 267 OFFCURVE",
"286 128 CURVE SMOOTH",
"288 58 OFFCURVE",
"294 -13 OFFCURVE",
"294 -52 CURVE SMOOTH",
"294 -59 OFFCURVE",
"300 -62 OFFCURVE"
);
}
);
width = 517;
}
);
leftKerningGroup = O;
rightKerningGroup = C;
unicode = 20B5;
},
{
color = 4;
glyphname = cent;
lastChange = "2016-09-07 22:00:13 +0000";
layers = (
{
layerId = UUID0;
paths = (
{
closed = 1;
nodes = (
"235 -60 LINE SMOOTH",
"252 -60 OFFCURVE",
"267 -28 OFFCURVE",
"274 0 CURVE",
"335 -3 OFFCURVE",
"425 10 OFFCURVE",
"423 42 CURVE SMOOTH",
"422 54 OFFCURVE",
"418 63 OFFCURVE",
"403 57 CURVE SMOOTH",
"369 43 OFFCURVE",
"328 47 OFFCURVE",
"272 55 CURVE",
"275 192 OFFCURVE",
"277 288 OFFCURVE",
"259 391 CURVE",
"306 379 OFFCURVE",
"329 339 OFFCURVE",
"329 287 CURVE",
"347 287 OFFCURVE",
"366 302 OFFCURVE",
"366 346 CURVE SMOOTH",
"366 411 OFFCURVE",
"299 436 OFFCURVE",
"247 440 CURVE",
"245 510 OFFCURVE",
"234 536 OFFCURVE",
"207 537 CURVE SMOOTH",
"190 537 OFFCURVE",
"185 519 OFFCURVE",
"202 439 CURVE",
"100 424 OFFCURVE",
"19 323 OFFCURVE",
"19 218 CURVE SMOOTH",
"19 72 OFFCURVE",
"86 3 OFFCURVE",
"220 -5 CURVE",
"221 -27 OFFCURVE",
"221 -43 OFFCURVE",
"221 -50 CURVE",
"222 -53 OFFCURVE",
"229 -59 OFFCURVE",
"230 -60 CURVE"
);
},
{
closed = 1;
nodes = (
"138 75 OFFCURVE",
"74 112 OFFCURVE",
"74 216 CURVE SMOOTH",
"74 298 OFFCURVE",
"123 381 OFFCURVE",
"209 394 CURVE",
"216 315 OFFCURVE",
"214 214 OFFCURVE",
"218 60 CURVE"
);
}
);
width = 449;
}
);
leftKerningGroup = o;
rightKerningGroup = c;
unicode = 00A2;
},
{
color = 4;
glyphname = colonsign;
lastChange = "2016-09-07 22:09:49 +0000";
layers = (
{
layerId = UUID0;
paths = (
{
closed = 1;
nodes = (
"328 1 OFFCURVE",
"393 24 OFFCURVE",
"463 51 CURVE",
"479 57 OFFCURVE",
"499 94 OFFCURVE",
"495 106 CURVE SMOOTH",
"490 121 OFFCURVE",
"479 118 OFFCURVE",
"469 113 CURVE SMOOTH",
"410 84 OFFCURVE",
"361 64 OFFCURVE",
"269 64 CURVE SMOOTH",
"139 64 OFFCURVE",
"101 147 OFFCURVE",
"101 249 CURVE SMOOTH",
"101 409 OFFCURVE",
"295 605 OFFCURVE",
"477 569 CURVE SMOOTH",
"520 561 OFFCURVE",
"493 496 OFFCURVE",
"493 450 CURVE",
"532 450 OFFCURVE",
"551 499 OFFCURVE",
"551 531 CURVE SMOOTH",
"551 569 OFFCURVE",
"534 603 OFFCURVE",
"486 613 CURVE SMOOTH",
"281 657 OFFCURVE",
"50 478 OFFCURVE",
"50 241 CURVE SMOOTH",
"50 63 OFFCURVE",
"152 -4 OFFCURVE",
"264 -1 CURVE SMOOTH"
);
},
{
closed = 1;
nodes = (
"298 -129 OFFCURVE",
"483 565 OFFCURVE",
"478 645 CURVE SMOOTH",
"477 661 OFFCURVE",
"482 685 OFFCURVE",
"458 689 CURVE",
"424 675 OFFCURVE",
"422 594 OFFCURVE",
"417 557 CURVE",
"282 38 LINE",
"268 9 OFFCURVE",
"231 -76 OFFCURVE",
"233 -110 CURVE SMOOTH",
"234 -124 OFFCURVE",
"237 -129 OFFCURVE",
"254 -129 CURVE SMOOTH"
);
},
{
closed = 1;
nodes = (
"180 -97 OFFCURVE",
"389 565 OFFCURVE",
"389 648 CURVE SMOOTH",
"389 664 OFFCURVE",
"394 688 OFFCURVE",
"370 693 CURVE",
"336 680 OFFCURVE",
"331 599 OFFCURVE",
"324 562 CURVE",
"163 82 LINE SMOOTH",
"128 9 OFFCURVE",
"108 -20 OFFCURVE",
"108 -64 CURVE SMOOTH",
"108 -78 OFFCURVE",
"119 -97 OFFCURVE",
"136 -97 CURVE SMOOTH"
);
}
);
width = 591;
}
);
leftKerningGroup = O;
leftMetricsKey = C;
rightKerningGroup = C;
rightMetricsKey = C;
unicode = 20A1;
},
{
color = 4;
glyphname = currency;
lastChange = "2016-09-07 22:00:13 +0000";
layers = (
{
layerId = UUID0;
paths = (
{
closed = 1;
nodes = (
"112 21 OFFCURVE",
"146 69 OFFCURVE",
"181 119 CURVE",
"242 77 OFFCURVE",
"335 71 OFFCURVE",
"410 104 CURVE",
"435 73 OFFCURVE",
"461 46 OFFCURVE",
"485 25 CURVE",
"510 24 OFFCURVE",
"525 27 OFFCURVE",
"532 54 CURVE",
"500 78 OFFCURVE",
"474 104 OFFCURVE",
"456 129 CURVE",
"548 195 OFFCURVE",
"567 312 OFFCURVE",
"499 414 CURVE",
"521 433 OFFCURVE",
"545 451 OFFCURVE",
"573 469 CURVE",
"559 496 OFFCURVE",
"519 504 OFFCURVE",
"464 455 CURVE",
"390 526 OFFCURVE",
"261 504 OFFCURVE",
"178 439 CURVE",
"132 480 OFFCURVE",
"86 519 OFFCURVE",
"55 531 CURVE",
"45 531 OFFCURVE",
"28 529 OFFCURVE",
"31 510 CURVE",
"45 479 OFFCURVE",
"88 436 OFFCURVE",
"132 392 CURVE",
"87 322 OFFCURVE",
"90 223 OFFCURVE",
"138 159 CURVE",
"100 117 OFFCURVE",
"67 73 OFFCURVE",
"67 42 CURVE SMOOTH",
"67 30 OFFCURVE",
"78 24 OFFCURVE",
"97 24 CURVE"
);
},
{
closed = 1;
nodes = (
"217 140 OFFCURVE",
"156 205 OFFCURVE",
"156 280 CURVE SMOOTH",
"156 388 OFFCURVE",
"261 442 OFFCURVE",
"343 442 CURVE SMOOTH",
"450 442 OFFCURVE",
"490 371 OFFCURVE",
"490 286 CURVE SMOOTH",
"490 189 OFFCURVE",
"405 140 OFFCURVE",
"294 140 CURVE SMOOTH"
);
}
);
width = 618;
}
);
leftKerningGroup = currency;
rightKerningGroup = currency;
unicode = 00A4;
},
{
color = 4;
glyphname = dollar;
lastChange = "2016-09-07 22:00:13 +0000";
layers = (
{
background = {
paths = (
{
closed = 1;
nodes = (
"202 156 OFFCURVE",
"82 222 OFFCURVE",
"82 350 CURVE",
"53 350 OFFCURVE",
"30 326 OFFCURVE",
"30 284 CURVE SMOOTH",
"30 159 OFFCURVE",
"193 96 OFFCURVE",
"347 96 CURVE SMOOTH",
"462 96 OFFCURVE",
"570 144 OFFCURVE",
"575 242 CURVE SMOOTH",
"582 356 OFFCURVE",
"493 418 OFFCURVE",
"381 492 CURVE SMOOTH",
"289 542 OFFCURVE",
"201 585 OFFCURVE",
"201 648 CURVE SMOOTH",
"201 709 OFFCURVE",
"248 727 OFFCURVE",
"332 725 CURVE SMOOTH",
"428 723 OFFCURVE",
"484 647 OFFCURVE",
"535 672 CURVE",
"535 730 OFFCURVE",
"442 771 OFFCURVE",
"330 771 CURVE SMOOTH",
"257 771 OFFCURVE",
"141 743 OFFCURVE",
"141 646 CURVE SMOOTH",
"141 556 OFFCURVE",
"178 527 OFFCURVE",
"342 441 CURVE SMOOTH",
"496 356 OFFCURVE",
"515 313 OFFCURVE",
"518 255 CURVE SMOOTH",
"521 187 OFFCURVE",
"464 148 OFFCURVE",
"346 152 CURVE SMOOTH"
);
},
{
closed = 1;
nodes = (
"196 26 CURVE SMOOTH",
"230 15 OFFCURVE",
"243 34 OFFCURVE",
"246 51 CURVE SMOOTH",
"280 244 OFFCURVE",
"342 624 OFFCURVE",
"348 725 CURVE SMOOTH",
"352 795 OFFCURVE",
"347 842 OFFCURVE",
"329 844 CURVE SMOOTH",
"318 845 OFFCURVE",
"312 843 OFFCURVE",
"311 837 CURVE SMOOTH",
"303 786 OFFCURVE",
"301 738 OFFCURVE",
"295 667 CURVE SMOOTH",
"285 547 OFFCURVE",
"244 303 OFFCURVE",
"217 197 CURVE SMOOTH",
"202 137 OFFCURVE",
"194 78 OFFCURVE",
"183 40 CURVE SMOOTH",
"181 33 OFFCURVE",
"187 29 OFFCURVE"
);
},
{
closed = 1;
nodes = (
"305 26 CURVE SMOOTH",
"339 15 OFFCURVE",
"352 34 OFFCURVE",
"355 51 CURVE SMOOTH",
"389 244 OFFCURVE",
"451 624 OFFCURVE",
"457 725 CURVE SMOOTH",
"461 795 OFFCURVE",
"456 842 OFFCURVE",
"438 844 CURVE SMOOTH",
"427 845 OFFCURVE",
"421 843 OFFCURVE",
"420 837 CURVE SMOOTH",
"412 786 OFFCURVE",
"410 738 OFFCURVE",
"404 667 CURVE SMOOTH",
"394 547 OFFCURVE",
"353 303 OFFCURVE",
"326 197 CURVE SMOOTH",
"311 137 OFFCURVE",
"303 78 OFFCURVE",
"292 40 CURVE SMOOTH",
"290 33 OFFCURVE",
"296 29 OFFCURVE"
);
}
);
};
layerId = UUID0;
paths = (
{
closed = 1;
nodes = (
"220 37 OFFCURVE",
"109 98 OFFCURVE",
"109 216 CURVE",
"82 216 OFFCURVE",
"61 194 OFFCURVE",
"61 155 CURVE SMOOTH",
"61 40 OFFCURVE",
"211 -18 OFFCURVE",
"354 -18 CURVE SMOOTH",
"460 -18 OFFCURVE",
"559 26 OFFCURVE",
"564 117 CURVE SMOOTH",
"570 222 OFFCURVE",
"488 279 OFFCURVE",
"385 348 CURVE SMOOTH",
"305 402 OFFCURVE",
"219 433 OFFCURVE",
"219 492 CURVE SMOOTH",
"219 548 OFFCURVE",
"262 564 OFFCURVE",
"340 563 CURVE SMOOTH",
"428 562 OFFCURVE",
"480 491 OFFCURVE",
"527 514 CURVE",
"527 567 OFFCURVE",
"441 605 OFFCURVE",
"338 605 CURVE SMOOTH",
"270 605 OFFCURVE",
"163 579 OFFCURVE",
"163 490 CURVE SMOOTH",
"163 407 OFFCURVE",
"198 380 OFFCURVE",
"349 300 CURVE SMOOTH",
"492 224 OFFCURVE",
"508 182 OFFCURVE",
"512 129 CURVE SMOOTH",
"517 66 OFFCURVE",
"462 30 OFFCURVE",
"353 33 CURVE SMOOTH"
);
},
{
closed = 1;
nodes = (
"196 -114 CURVE SMOOTH",
"230 -125 OFFCURVE",
"243 -106 OFFCURVE",
"246 -89 CURVE SMOOTH",
"280 104 OFFCURVE",
"342 484 OFFCURVE",
"348 585 CURVE SMOOTH",
"352 655 OFFCURVE",
"347 702 OFFCURVE",
"329 704 CURVE SMOOTH",
"318 705 OFFCURVE",
"312 703 OFFCURVE",
"311 697 CURVE SMOOTH",
"303 646 OFFCURVE",
"301 598 OFFCURVE",
"295 527 CURVE SMOOTH",
"285 407 OFFCURVE",
"244 163 OFFCURVE",
"217 57 CURVE SMOOTH",
"202 -3 OFFCURVE",
"194 -62 OFFCURVE",
"183 -100 CURVE SMOOTH",
"181 -107 OFFCURVE",
"187 -111 OFFCURVE"
);
},
{
closed = 1;
nodes = (
"331 -132 CURVE SMOOTH",
"366 -144 OFFCURVE",
"378 -122 OFFCURVE",
"380 -105 CURVE SMOOTH",
"403 89 OFFCURVE",
"452 472 OFFCURVE",
"453 573 CURVE SMOOTH",
"454 643 OFFCURVE",
"447 689 OFFCURVE",
"429 691 CURVE SMOOTH",
"418 692 OFFCURVE",
"412 689 OFFCURVE",
"412 683 CURVE SMOOTH",
"412 632 OFFCURVE",
"406 584 OFFCURVE",
"403 513 CURVE SMOOTH",
"398 392 OFFCURVE",
"368 147 OFFCURVE",
"345 40 CURVE SMOOTH",
"332 -21 OFFCURVE",
"329 -81 OFFCURVE",
"318 -119 CURVE SMOOTH",
"316 -126 OFFCURVE",
"322 -129 OFFCURVE"
);
}
);
width = 605;
},
{
associatedMasterId = UUID0;
layerId = "DF846486-4298-4B4B-BD3F-D4AA61C40053";
name = "Sep 6 16, 13:44";
paths = (
{
closed = 1;
nodes = (
"358 -1 OFFCURVE",
"361 40 OFFCURVE",
"356 65 CURVE",
"488 74 OFFCURVE",
"563 148 OFFCURVE",
"563 285 CURVE SMOOTH",
"563 387 OFFCURVE",
"468 433 OFFCURVE",
"413 497 CURVE",
"411 539 LINE",
"411 590 OFFCURVE",
"427 633 OFFCURVE",
"432 685 CURVE",
"451 682 OFFCURVE",
"487 702 OFFCURVE",
"487 713 CURVE SMOOTH",
"487 729 OFFCURVE",
"448 732 OFFCURVE",
"440 750 CURVE",
"440 897 LINE",
"384 897 OFFCURVE",
"395 814 OFFCURVE",
"395 778 CURVE",
"380 777 LINE",
"363 777 OFFCURVE",
"354 778 OFFCURVE",
"338 787 CURVE",
"337 820 LINE SMOOTH",
"337 828 OFFCURVE",
"338 852 OFFCURVE",
"338 854 CURVE",
"338 854 OFFCURVE",
"347 869 OFFCURVE",
"347 872 CURVE",
"344 893 OFFCURVE",
"338 908 OFFCURVE",
"338 929 CURVE",
"280 905 OFFCURVE",
"285 811 OFFCURVE",
"282 760 CURVE",
"229 743 OFFCURVE",
"182 712 OFFCURVE",
"150 666 CURVE",
"149 643 LINE",
"149 573 OFFCURVE",
"216 554 OFFCURVE",
"253 506 CURVE",
"254 473 LINE",
"254 425 OFFCURVE",
"249 197 OFFCURVE",
"197 197 CURVE SMOOTH",
"137 197 OFFCURVE",
"92 311 OFFCURVE",
"38 311 CURVE SMOOTH",
"25 311 OFFCURVE",
"14 307 OFFCURVE",
"10 291 CURVE",
"-6 237 OFFCURVE",
"193 163 OFFCURVE",
"216 122 CURVE SMOOTH",
"227 103 OFFCURVE",
"199 8 OFFCURVE",
"254 8 CURVE SMOOTH",
"272 8 OFFCURVE",
"282 96 OFFCURVE",
"285 106 CURVE",
"293 103 OFFCURVE",
"299 75 OFFCURVE",
"304 51 CURVE",
"310 0 LINE",
"323 -1 LINE"
);
},
{
closed = 1;
nodes = (
"229 155 OFFCURVE",
"304 378 OFFCURVE",
"319 469 CURVE",
"316 474 OFFCURVE",
"348 475 OFFCURVE",
"342 466 CURVE",
"342 457 LINE SMOOTH",
"342 450 OFFCURVE",
"301 177 OFFCURVE",
"301 171 CURVE"
);
},
{
closed = 1;
nodes = (
"381 123 OFFCURVE",
"369 130 OFFCURVE",
"366 131 CURVE",
"365 183 LINE SMOOTH",
"365 237 OFFCURVE",
"362 404 OFFCURVE",
"413 432 CURVE",
"472 390 OFFCURVE",
"508 347 OFFCURVE",
"508 273 CURVE SMOOTH",
"508 206 OFFCURVE",
"472 122 OFFCURVE",
"389 122 CURVE SMOOTH",
"385 122 LINE"
);
},
{
closed = 1;
nodes = (
"251 566 OFFCURVE",
"235 582 OFFCURVE",
"235 581 CURVE",
"207 594 OFFCURVE",
"206 604 OFFCURVE",
"206 626 CURVE SMOOTH",
"206 652 OFFCURVE",
"218 685 OFFCURVE",
"249 685 CURVE SMOOTH",
"261 685 OFFCURVE",
"272 663 OFFCURVE",
"272 651 CURVE SMOOTH",
"272 630 OFFCURVE",
"273 585 OFFCURVE",
"255 571 CURVE"
);
},
{
closed = 1;
nodes = (
"314 510 OFFCURVE",
"317 550 OFFCURVE",
"317 569 CURVE SMOOTH",
"317 619 OFFCURVE",
"318 647 OFFCURVE",
"329 704 CURVE",
"329 705 OFFCURVE",
"335 713 OFFCURVE",
"338 713 CURVE SMOOTH",
"346 713 OFFCURVE",
"380 716 OFFCURVE",
"385 716 CURVE",
"385 667 OFFCURVE",
"396 535 OFFCURVE",
"338 497 CURVE"
);
}
);
width = 581;
}
);
leftKerningGroup = S;
rightKerningGroup = S;
unicode = 0024;
},
{
color = 4;
glyphname = euro;
lastChange = "2016-09-07 22:09:49 +0000";
layers = (
{
background = {
components = (
{
name = underscore;
transform = "{0.8203, 0, 0, -0.8203, -2, 345}";
},
{
name = strokelongcomb;
transform = "{1, 0, 0, 1, 77, 170}";
}
);
paths = (
{
closed = 1;
nodes = (
"505 -5 OFFCURVE",
"636 64 OFFCURVE",
"625 114 CURVE SMOOTH",
"621 128 OFFCURVE",
"609 130 OFFCURVE",
"599 123 CURVE SMOOTH",
"544 80 OFFCURVE",
"500 54 OFFCURVE",
"411 54 CURVE SMOOTH",
"317 54 OFFCURVE",
"268 175 OFFCURVE",
"268 295 CURVE SMOOTH",
"268 443 OFFCURVE",
"404 584 OFFCURVE",
"511 600 CURVE SMOOTH",
"567 610 OFFCURVE",
"597 596 OFFCURVE",
"607 568 CURVE SMOOTH",
"618 546 OFFCURVE",
"597 519 OFFCURVE",
"608 495 CURVE",
"695 525 OFFCURVE",
"659 653 OFFCURVE",
"545 653 CURVE SMOOTH",
"388 653 OFFCURVE",
"217 480 OFFCURVE",
"217 287 CURVE SMOOTH",
"217 121 OFFCURVE",
"283 -5 OFFCURVE",
"405 -5 CURVE SMOOTH"
);
}
);
};
components = (
{
name = underscore;
transform = "{0.8203, 0, 0, -0.8203, -2, 345}";
},
{
name = strokelongcomb;
transform = "{1, 0, 0, 1, 77, 170}";
}
);
layerId = UUID0;
paths = (
{
closed = 1;
nodes = (
"505 -5 OFFCURVE",
"636 64 OFFCURVE",
"625 114 CURVE SMOOTH",
"621 128 OFFCURVE",
"609 130 OFFCURVE",
"599 123 CURVE SMOOTH",
"544 80 OFFCURVE",
"500 54 OFFCURVE",
"411 54 CURVE SMOOTH",
"318 54 OFFCURVE",
"268 175 OFFCURVE",
"268 295 CURVE SMOOTH",
"268 443 OFFCURVE",
"404 584 OFFCURVE",
"511 600 CURVE SMOOTH",
"567 610 OFFCURVE",
"597 596 OFFCURVE",
"607 568 CURVE SMOOTH",
"618 546 OFFCURVE",
"597 519 OFFCURVE",
"608 495 CURVE",
"695 525 OFFCURVE",
"660 653 OFFCURVE",
"545 653 CURVE SMOOTH",
"388 653 OFFCURVE",
"217 480 OFFCURVE",
"217 287 CURVE SMOOTH",
"217 121 OFFCURVE",
"283 -5 OFFCURVE",
"405 -5 CURVE SMOOTH"
);
}
);
width = 697;
},
{
associatedMasterId = UUID0;
layerId = "3441672D-3537-47F6-ABE9-DD0036BE9373";
name = "Sep 7 16, 08:17";
paths = (
{
closed = 1;
nodes = (
"440 -1 OFFCURVE",
"715 36 OFFCURVE",
"715 81 CURVE SMOOTH",
"715 98 OFFCURVE",
"711 104 OFFCURVE",
"685 104 CURVE SMOOTH",
"582 104 OFFCURVE",
"471 56 OFFCURVE",
"366 56 CURVE SMOOTH",
"260 56 OFFCURVE",
"226 133 OFFCURVE",
"226 230 CURVE SMOOTH",
"226 250 OFFCURVE",
"230 270 OFFCURVE",
"253 272 CURVE",
"450 300 LINE SMOOTH",
"486 305 OFFCURVE",
"522 289 OFFCURVE",
"544 329 CURVE",
"525 354 OFFCURVE",
"494 348 OFFCURVE",
"470 348 CURVE SMOOTH",
"403 348 OFFCURVE",
"339 326 OFFCURVE",
"276 326 CURVE SMOOTH",
"261 326 OFFCURVE",
"253 331 OFFCURVE",
"253 346 CURVE SMOOTH",
"253 418 OFFCURVE",
"308 470 OFFCURVE",
"376 470 CURVE SMOOTH",
"408 470 OFFCURVE",
"419 460 OFFCURVE",
"445 460 CURVE SMOOTH",
"450 460 LINE SMOOTH",
"453 460 OFFCURVE",
"475 469 OFFCURVE",
"479 469 CURVE SMOOTH",
"488 469 LINE SMOOTH",
"493 469 OFFCURVE",
"522 460 OFFCURVE",
"525 460 CURVE SMOOTH",
"530 460 LINE SMOOTH",
"543 460 OFFCURVE",
"555 464 OFFCURVE",
"555 479 CURVE SMOOTH",
"555 518 OFFCURVE",
"437 540 OFFCURVE",
"403 543 CURVE",
"403 554 LINE SMOOTH",
"403 587 OFFCURVE",
"582 648 OFFCURVE",
"587 648 CURVE SMOOTH",
"613 648 OFFCURVE",
"620 614 OFFCURVE",
"638 600 CURVE",
"649 611 OFFCURVE",
"648 625 OFFCURVE",
"648 640 CURVE SMOOTH",
"648 678 OFFCURVE",
"618 695 OFFCURVE",
"584 695 CURVE SMOOTH",
"464 695 OFFCURVE",
"389 585 OFFCURVE",
"301 525 CURVE SMOOTH",
"229 476 OFFCURVE",
"-1 549 OFFCURVE",
"-1 430 CURVE",
"62 430 OFFCURVE",
"121 450 OFFCURVE",
"183 450 CURVE",
"191 451 OFFCURVE",
"216 448 OFFCURVE",
"216 449 CURVE",
"223 449 OFFCURVE",
"235 443 OFFCURVE",
"235 440 CURVE",
"188 310 LINE",
"186 309 OFFCURVE",
"167 301 OFFCURVE",
"159 300 CURVE",
"156 300 OFFCURVE",
"92 291 OFFCURVE",
"65 291 CURVE SMOOTH",
"57 291 LINE",
"42 289 OFFCURVE",
"11 282 OFFCURVE",
"10 281 CURVE",
"10 241 LINE",
"62 241 OFFCURVE",
"110 253 OFFCURVE",
"160 253 CURVE SMOOTH",
"204 253 OFFCURVE",
"144 -1 OFFCURVE",
"376 -1 CURVE SMOOTH"
);
}
);
width = 741;
}
);
leftKerningGroup = O;
rightKerningGroup = C;
rightMetricsKey = C;
unicode = 20AC;
},
{
color = 4;
glyphname = florin;
lastChange = "2016-09-07 22:00:13 +0000";
layers = (
{
background = {
components = (
{
name = f;
}
);
};
layerId = UUID0;
paths = (
{
closed = 1;
nodes = (
"155 -165 OFFCURVE",
"162 63 OFFCURVE",
"161 273 CURVE",
"259 252 OFFCURVE",
"348 260 OFFCURVE",
"348 291 CURVE SMOOTH",
"349 304 OFFCURVE",
"343 311 OFFCURVE",
"329 311 CURVE",
"262 310 OFFCURVE",
"206 315 OFFCURVE",
"161 322 CURVE",
"159 434 LINE SMOOTH",
"157 547 OFFCURVE",
"201 648 OFFCURVE",
"288 648 CURVE SMOOTH",
"354 648 OFFCURVE",
"382 554 OFFCURVE",
"433 554 CURVE SMOOTH",
"455 554 LINE",
"455 635 OFFCURVE",
"349 704 OFFCURVE",
"277 704 CURVE SMOOTH",
"89 704 OFFCURVE",
"87 436 OFFCURVE",
"97 321 CURVE",
"63 315 OFFCURVE",
"-9 315 OFFCURVE",
"-9 272 CURVE SMOOTH",
"-9 262 OFFCURVE",
"-6 253 OFFCURVE",
"5 253 CURVE SMOOTH",
"29 256 OFFCURVE",
"89 268 OFFCURVE",
"101 272 CURVE",
"102 237 OFFCURVE",
"100 -118 OFFCURVE",
"102 -156 CURVE SMOOTH",
"104 -190 OFFCURVE",
"96 -204 OFFCURVE",
"84 -204 CURVE SMOOTH",
"51 -204 OFFCURVE",
"-16 -119 OFFCURVE",
"-58 -75 CURVE",
"-82 -75 OFFCURVE",
"-92 -84 OFFCURVE",
"-92 -99 CURVE SMOOTH",
"-92 -153 OFFCURVE",
"39 -277 OFFCURVE",
"111 -277 CURVE SMOOTH",
"138 -277 OFFCURVE",
"157 -258 OFFCURVE",
"156 -210 CURVE SMOOTH"
);
}
);
width = 377;
},
{
associatedMasterId = UUID0;
layerId = "96F5A238-CB7A-44FF-9853-E1C9AF3FCAF4";
name = "Sep 7 16, 08:19";
paths = (
{
closed = 1;
nodes = (
"153 -165 OFFCURVE",
"177 63 OFFCURVE",
"174 273 CURVE",
"275 250 OFFCURVE",
"370 261 OFFCURVE",
"348 291 CURVE",
"349 304 OFFCURVE",
"343 311 OFFCURVE",
"329 311 CURVE",
"202 318 OFFCURVE",
"164 325 OFFCURVE",
"160 329 CURVE",
"156 464 LINE",
"156 474 LINE SMOOTH",
"156 557 OFFCURVE",
"201 648 OFFCURVE",
"288 648 CURVE SMOOTH",
"354 648 OFFCURVE",
"382 554 OFFCURVE",
"433 554 CURVE SMOOTH",
"455 554 LINE",
"455 625 OFFCURVE",
"349 704 OFFCURVE",
"277 704 CURVE SMOOTH",
"89 704 OFFCURVE",
"87 436 OFFCURVE",
"95 318 CURVE",
"63 315 OFFCURVE",
"-9 315 OFFCURVE",
"-9 272 CURVE SMOOTH",
"-9 262 OFFCURVE",
"-6 253 OFFCURVE",
"5 253 CURVE SMOOTH",
"10 253 LINE",
"24 255 OFFCURVE",
"91 268 OFFCURVE",
"104 272 CURVE",
"114 262 LINE",
"127 232 OFFCURVE",
"98 -108 OFFCURVE",
"102 -156 CURVE",
"98 -277 OFFCURVE",
"-59 -76 OFFCURVE",
"-58 -75 CURVE",
"-203 -75 OFFCURVE",
"161 -378 OFFCURVE",
"156 -210 CURVE"
);
}
);
width = 377;
}
);
leftKerningGroup = florin;
rightKerningGroup = florin;
unicode = 0192;
},
{
color = 4;
glyphname = guarani;
lastChange = "2016-09-07 22:00:13 +0000";
layers = (
{
components = (
{
name = bar;
transform = "{1, 0, 0, 1, 200, -80}";
}
);
layerId = UUID0;
paths = (
{
closed = 1;
nodes = (
"536 -69 OFFCURVE",
"565 -47 OFFCURVE",
"558 -31 CURVE",
"555 -15 OFFCURVE",
"533 -15 OFFCURVE",
"519 10 CURVE",
"525 241 LINE SMOOTH",
"526 266 OFFCURVE",
"517 288 OFFCURVE",
"490 288 CURVE SMOOTH",
"444 288 OFFCURVE",
"423 270 OFFCURVE",
"356 280 CURVE SMOOTH",
"342 282 OFFCURVE",
"337 275 OFFCURVE",
"337 263 CURVE SMOOTH",
"337 245 OFFCURVE",
"351 232 OFFCURVE",
"376 231 CURVE SMOOTH",
"410 230 OFFCURVE",
"446 244 OFFCURVE",
"480 244 CURVE",
"476 192 LINE SMOOTH",
"466 63 OFFCURVE",
"336 63 OFFCURVE",
"221 63 CURVE SMOOTH",
"158 63 OFFCURVE",
"80 102 OFFCURVE",
"80 176 CURVE SMOOTH",
"80 332 OFFCURVE",
"276 467 OFFCURVE",
"417 467 CURVE SMOOTH",
"457 467 OFFCURVE",
"487 445 OFFCURVE",
"523 445 CURVE",
"523 496 OFFCURVE",
"479 527 OFFCURVE",
"427 522 CURVE SMOOTH",
"273 511 OFFCURVE",
"32 369 OFFCURVE",
"32 194 CURVE SMOOTH",
"32 86 OFFCURVE",
"103 6 OFFCURVE",
"212 6 CURVE SMOOTH",
"311 6 OFFCURVE",
"404 33 OFFCURVE",
"467 73 CURVE",
"453 -9 OFFCURVE",
"475 -69 OFFCURVE",
"521 -69 CURVE SMOOTH"
);
}
);
width = 572;
}
);
leftKerningGroup = O;
rightKerningGroup = C;
unicode = 20B2;
},
{
color = 4;
glyphname = liraTurkish;
lastChange = "2016-09-07 22:00:13 +0000";
layers = (
{
background = {
paths = (
{
closed = 1;
nodes = (
"433 -2 OFFCURVE",
"475 102 OFFCURVE",
"484 159 CURVE SMOOTH",
"497 244 OFFCURVE",
"476 283 OFFCURVE",
"444 283 CURVE SMOOTH",
"425 283 OFFCURVE",
"419 265 OFFCURVE",
"427 233 CURVE SMOOTH",
"435 205 OFFCURVE",
"436 184 OFFCURVE",
"436 146 CURVE SMOOTH",
"436 107 OFFCURVE",
"396 62 OFFCURVE",
"312 65 CURVE",
"312 -2 LINE"
);
}
);
};
layerId = UUID0;
paths = (
{
closed = 1;
nodes = (
"346 436 CURVE SMOOTH",
"354 439 OFFCURVE",
"362 456 OFFCURVE",
"359 462 CURVE SMOOTH",
"349 482 OFFCURVE",
"309 483 OFFCURVE",
"248 476 CURVE SMOOTH",
"152 465 OFFCURVE",
"6 408 OFFCURVE",
"0 371 CURVE SMOOTH",
"7 351 OFFCURVE",
"27 348 OFFCURVE",
"42 358 CURVE SMOOTH",
"142 410 OFFCURVE",
"215 435 OFFCURVE",
"266 439 CURVE SMOOTH",
"314 443 OFFCURVE",
"321 427 OFFCURVE"
);
},
{
closed = 1;
nodes = (
"354 360 LINE SMOOTH",
"368 366 OFFCURVE",
"383 371 OFFCURVE",
"382 393 CURVE",
"358 412 OFFCURVE",
"313 387 OFFCURVE",
"259 371 CURVE SMOOTH",
"166 339 OFFCURVE",
"119 327 OFFCURVE",
"18 281 CURVE",
"15 280 OFFCURVE",
"12 272 OFFCURVE",
"13 268 CURVE SMOOTH",
"22 234 OFFCURVE",
"48 241 OFFCURVE",
"77 252 CURVE SMOOTH"
);
},
{
closed = 1;
nodes = (
"401 284 OFFCURVE",
"396 254 OFFCURVE",
"396 146 CURVE SMOOTH",
"396 68 OFFCURVE",
"289 52 OFFCURVE",
"225 70 CURVE SMOOTH",
"177 81 OFFCURVE",
"159 106 OFFCURVE",
"157 152 CURVE SMOOTH",
"151 319 OFFCURVE",
"225 640 OFFCURVE",
"168 645 CURVE",
"127 666 OFFCURVE",
"111 339 OFFCURVE",
"104 158 CURVE SMOOTH",
"104 29 OFFCURVE",
"185 -2 OFFCURVE",
"262 -2 CURVE SMOOTH",
"405 -2 OFFCURVE",
"441 103 OFFCURVE",
"453 180 CURVE SMOOTH",
"463 245 OFFCURVE",
"461 286 OFFCURVE",
"430 285 CURVE SMOOTH"
);
}
);
width = 498;
}
);
leftKerningGroup = Hbar;
rightKerningGroup = L;
unicode = 20BA;
},
{
color = 4;
glyphname = manat;
lastChange = "2016-09-07 22:09:49 +0000";
layers = (
{
background = {
paths = (
{
closed = 1;
nodes = (
"94 230 CURVE SMOOTH",
"94 291 OFFCURVE",
"115 473 OFFCURVE",
"220 473 CURVE SMOOTH",
"338 473 OFFCURVE",
"371 390 OFFCURVE",
"385 287 CURVE SMOOTH",
"401 172 OFFCURVE",
"380 65 OFFCURVE",
"380 -8 CURVE SMOOTH",
"380 -22 OFFCURVE",
"384 -31 OFFCURVE",
"401 -31 CURVE SMOOTH",
"420 -31 OFFCURVE",
"436 -16 OFFCURVE",
"447 -2 CURVE",
"455 51 OFFCURVE",
"457 78 OFFCURVE",
"457 126 CURVE SMOOTH",
"457 211 OFFCURVE",
"433 520 OFFCURVE",
"242 520 CURVE SMOOTH",
"95 520 OFFCURVE",
"52 370 OFFCURVE",
"50 265 CURVE SMOOTH",
"47 85 OFFCURVE",
"84 -66 OFFCURVE",
"125 -20 CURVE SMOOTH",
"133 -11 LINE SMOOTH",
"144 1 OFFCURVE",
"94 100 OFFCURVE"
);
}
);
};
layerId = UUID0;
paths = (
{
closed = 1;
nodes = (
"94 230 CURVE SMOOTH",
"94 291 OFFCURVE",
"115 473 OFFCURVE",
"220 473 CURVE SMOOTH",
"338 473 OFFCURVE",
"371 390 OFFCURVE",
"385 287 CURVE SMOOTH",
"401 172 OFFCURVE",
"380 65 OFFCURVE",
"380 -8 CURVE SMOOTH",
"380 -22 OFFCURVE",
"384 -31 OFFCURVE",
"401 -31 CURVE SMOOTH",
"420 -31 OFFCURVE",
"436 -16 OFFCURVE",
"447 -2 CURVE",
"455 51 OFFCURVE",
"457 78 OFFCURVE",
"457 126 CURVE SMOOTH",
"457 211 OFFCURVE",
"433 520 OFFCURVE",
"242 520 CURVE SMOOTH",
"95 520 OFFCURVE",
"52 370 OFFCURVE",
"50 265 CURVE SMOOTH",
"47 85 OFFCURVE",
"84 -66 OFFCURVE",
"125 -20 CURVE SMOOTH",
"133 -11 LINE SMOOTH",
"144 1 OFFCURVE",
"94 100 OFFCURVE"
);
},
{
closed = 1;
nodes = (
"244 14 CURVE SMOOTH",
"280 14 OFFCURVE",
"288 34 OFFCURVE",
"285 51 CURVE SMOOTH",
"272 129 OFFCURVE",
"269 441 OFFCURVE",
"212 615 CURVE SMOOTH",
"208 619 OFFCURVE",
"199 622 OFFCURVE",
"192 621 CURVE SMOOTH",
"185 620 OFFCURVE",
"183 618 OFFCURVE",
"183 611 CURVE SMOOTH",
"183 571 OFFCURVE",
"195 519 OFFCURVE",
"202 483 CURVE SMOOTH",
"225 364 OFFCURVE",
"218 294 OFFCURVE",
"220 184 CURVE SMOOTH",
"221 122 OFFCURVE",
"228 63 OFFCURVE",
"228 24 CURVE SMOOTH",
"228 17 OFFCURVE",
"234 14 OFFCURVE"
);
}
);
width = 507;
}
);
leftKerningGroup = U;
leftMetricsKey = A;
rightKerningGroup = U;
rightMetricsKey = A;
unicode = 20BC;
},
{
color = 4;
glyphname = naira;
lastChange = "2016-09-07 22:00:13 +0000";
layers = (
{
components = (
{
name = N;
transform = "{1, 0, 0, 1, 79, 0}";
}
);
layerId = UUID0;
paths = (
{
closed = 1;
nodes = (
"153 303 OFFCURVE",
"505 323 OFFCURVE",
"619 323 CURVE SMOOTH",
"649 323 OFFCURVE",
"672 312 OFFCURVE",
"699 312 CURVE SMOOTH",
"712 312 OFFCURVE",
"717 319 OFFCURVE",
"717 333 CURVE SMOOTH",
"717 363 OFFCURVE",
"687 371 OFFCURVE",
"605 369 CURVE SMOOTH",
"516 367 OFFCURVE",
"173 358 OFFCURVE",
"61 342 CURVE SMOOTH",
"33 338 OFFCURVE",
"26 322 OFFCURVE",
"33 303 CURVE"
);
},
{
closed = 1;
nodes = (
"162 196 OFFCURVE",
"514 216 OFFCURVE",
"628 216 CURVE SMOOTH",
"658 216 OFFCURVE",
"681 205 OFFCURVE",
"708 205 CURVE SMOOTH",
"721 205 OFFCURVE",
"726 212 OFFCURVE",
"726 226 CURVE SMOOTH",
"726 256 OFFCURVE",
"696 264 OFFCURVE",
"614 262 CURVE SMOOTH",
"525 260 OFFCURVE",
"182 251 OFFCURVE",
"70 235 CURVE SMOOTH",
"42 231 OFFCURVE",
"35 215 OFFCURVE",
"42 196 CURVE"
);
}
);
width = 756;
}
);
leftKerningGroup = Hbar;
rightKerningGroup = Hbar;
unicode = 20A6;
},
{
color = 4;
glyphname = peseta;
lastChange = "2016-09-07 22:09:49 +0000";
layers = (
{
components = (
{
name = P;
transform = "{1, 0, 0, 1, -39, 0}";
}
);
layerId = UUID0;
paths = (
{
closed = 1;
nodes = (
"732 9 OFFCURVE",
"722 220 OFFCURVE",
"722 254 CURVE",
"787 257 OFFCURVE",
"834 257 OFFCURVE",
"850 274 CURVE",
"849 301 OFFCURVE",
"835 308 OFFCURVE",
"805 307 CURVE SMOOTH",
"722 304 LINE",
"715 409 LINE",
"715 432 OFFCURVE",
"700 447 OFFCURVE",
"683 447 CURVE SMOOTH",
"673 447 OFFCURVE",
"665 448 OFFCURVE",
"665 432 CURVE SMOOTH",
"665 379 OFFCURVE",
"671 338 OFFCURVE",
"673 304 CURVE",
"569 302 LINE SMOOTH",
"558 302 OFFCURVE",
"552 296 OFFCURVE",
"552 283 CURVE SMOOTH",
"552 244 OFFCURVE",
"595 247 OFFCURVE",
"673 252 CURVE",
"670 46 OFFCURVE",
"659 -4 OFFCURVE",
"732 0 CURVE"
);
},
{
closed = 1;
nodes = (
"1107 -8 OFFCURVE",
"1187 20 OFFCURVE",
"1187 85 CURVE SMOOTH",
"1187 176 OFFCURVE",
"1110 185 OFFCURVE",
"1042 193 CURVE SMOOTH",
"974 201 OFFCURVE",
"915 205 OFFCURVE",
"913 253 CURVE SMOOTH",
"912 276 OFFCURVE",
"947 292 OFFCURVE",
"998 292 CURVE SMOOTH",
"1034 292 OFFCURVE",
"1061 281 OFFCURVE",
"1066 264 CURVE",
"1053 238 OFFCURVE",
"1058 214 OFFCURVE",
"1077 214 CURVE SMOOTH",
"1094 214 OFFCURVE",
"1107 236 OFFCURVE",
"1105 263 CURVE SMOOTH",
"1101 311 OFFCURVE",
"1058 342 OFFCURVE",
"992 342 CURVE SMOOTH",
"936 342 OFFCURVE",
"862 316 OFFCURVE",
"863 254 CURVE SMOOTH",
"864 174 OFFCURVE",
"943 157 OFFCURVE",
"1015 149 CURVE SMOOTH",
"1075 142 OFFCURVE",
"1135 143 OFFCURVE",
"1135 93 CURVE SMOOTH",
"1135 51 OFFCURVE",
"1096 46 OFFCURVE",
"1038 46 CURVE SMOOTH",
"939 46 OFFCURVE",
"946 87 OFFCURVE",
"906 92 CURVE SMOOTH",
"890 94 OFFCURVE",
"884 87 OFFCURVE",
"880 65 CURVE",
"898 14 OFFCURVE",
"952 -8 OFFCURVE",
"1053 -8 CURVE SMOOTH"
);
}
);
width = 1232;
}
);
leftKerningGroup = P;
rightKerningGroup = s;
rightMetricsKey = s;
unicode = 20A7;
},
{
color = 4;
glyphname = peso;
lastChange = "2016-09-07 22:00:13 +0000";
layers = (
{
anchors = (
{
name = bottom;
position = "{245, 0}";
}
);
components = (
{
name = emdash;
transform = "{0.9962, 0.0872, -0.0872, 0.9962, 92, 120}";
},
{
name = emdash;
transform = "{0.9962, 0.0872, -0.0872, 0.9962, 102, 30}";
}
);
layerId = UUID0;
paths = (
{
closed = 1;
nodes = (
"258 -6 OFFCURVE",
"260 23 OFFCURVE",
"260 44 CURVE SMOOTH",
"260 86 OFFCURVE",
"249 131 OFFCURVE",
"243 188 CURVE",
"325 188 OFFCURVE",
"491 239 OFFCURVE",
"491 370 CURVE SMOOTH",
"491 531 OFFCURVE",
"292 560 OFFCURVE",
"204 560 CURVE SMOOTH",
"144 560 OFFCURVE",
"50 548 OFFCURVE",
"50 504 CURVE SMOOTH",
"50 437 OFFCURVE",
"53 428 OFFCURVE",
"64 428 CURVE SMOOTH",
"88 428 OFFCURVE",
"73 499 OFFCURVE",
"95 509 CURVE SMOOTH",
"184 552 OFFCURVE",
"436 513 OFFCURVE",
"436 366 CURVE SMOOTH",
"436 295 OFFCURVE",
"334 242 OFFCURVE",
"238 234 CURVE",
"225 332 OFFCURVE",
"219 389 OFFCURVE",
"212 479 CURVE",
"203 479 LINE SMOOTH",
"189 479 OFFCURVE",
"175 465 OFFCURVE",
"175 449 CURVE SMOOTH",
"175 281 LINE",
"185 226 OFFCURVE",
"195 64 OFFCURVE",
"231 0 CURVE"
);
}
);
width = 559;
}
);
leftKerningGroup = Hbar;
rightKerningGroup = P;
unicode = 20B1;
},
{
color = 4;
glyphname = ruble;
lastChange = "2016-09-07 22:00:13 +0000";
layers = (
{
layerId = UUID0;
paths = (
{
closed = 1;
nodes = (
"118 76 OFFCURVE",
"220 101 OFFCURVE",
"262 105 CURVE SMOOTH",
"294 108 OFFCURVE",
"316 97 OFFCURVE",
"343 99 CURVE SMOOTH",
"356 100 OFFCURVE",
"360 106 OFFCURVE",
"360 120 CURVE SMOOTH",
"360 150 OFFCURVE",
"328 155 OFFCURVE",
"246 151 CURVE SMOOTH",
"207 149 OFFCURVE",
"36 129 OFFCURVE",
"58 72 CURVE"
);
},
{
closed = 1;
nodes = (
"88 171 OFFCURVE",
"138 181 OFFCURVE",
"189 188 CURVE",
"181 242 LINE",
"114 241 OFFCURVE",
"37 227 OFFCURVE",
"37 171 CURVE"
);
},
{
closed = 1;
nodes = (
"208 -6 OFFCURVE",
"209 21 OFFCURVE",
"209 42 CURVE SMOOTH",
"209 84 OFFCURVE",
"199 131 OFFCURVE",
"189 188 CURVE",
"233 188 OFFCURVE",
"491 219 OFFCURVE",
"491 370 CURVE SMOOTH",
"491 522 OFFCURVE",
"284 540 OFFCURVE",
"184 540 CURVE SMOOTH",
"114 540 OFFCURVE",
"20 528 OFFCURVE",
"20 484 CURVE SMOOTH",
"19 475 OFFCURVE",
"20 462 OFFCURVE",
"31 466 CURVE SMOOTH",
"152 505 OFFCURVE",
"436 529 OFFCURVE",
"436 376 CURVE SMOOTH",
"436 300 OFFCURVE",
"333 263 OFFCURVE",
"266 253 CURVE SMOOTH",
"235 248 OFFCURVE",
"206 245 OFFCURVE",
"181 242 CURVE",
"165 321 OFFCURVE",
"163 406 OFFCURVE",
"162 479 CURVE",
"152 479 LINE SMOOTH",
"133 479 OFFCURVE",
"116 465 OFFCURVE",
"118 429 CURVE SMOOTH",
"130 146 OFFCURVE",
"137 77 OFFCURVE",
"181 0 CURVE"
);
}
);
width = 509;
}
);
leftKerningGroup = Hbar;
rightKerningGroup = P;
unicode = 20BD;
},
{
color = 4;
glyphname = rupeeIndian;
lastChange = "2016-09-07 22:00:13 +0000";
layers = (
{
layerId = UUID0;
paths = (
{
closed = 1;
nodes = (
"523 82 OFFCURVE",
"372 76 OFFCURVE",
"227 285 CURVE",
"317 284 OFFCURVE",
"426 330 OFFCURVE",
"426 445 CURVE SMOOTH",
"426 575 OFFCURVE",
"331 624 OFFCURVE",
"221 624 CURVE SMOOTH",
"133 624 OFFCURVE",
"10 615 OFFCURVE",
"10 524 CURVE SMOOTH",
"10 506 OFFCURVE",
"27 470 OFFCURVE",
"49 470 CURVE",
"49 577 OFFCURVE",
"154 574 OFFCURVE",
"222 574 CURVE SMOOTH",
"330 574 OFFCURVE",
"371 540 OFFCURVE",
"371 454 CURVE SMOOTH",
"371 373 OFFCURVE",
"293 339 OFFCURVE",
"150 342 CURVE",
"141 329 OFFCURVE",
"134 314 OFFCURVE",
"146 295 CURVE SMOOTH",
"247 135 OFFCURVE",
"421 -16 OFFCURVE",
"475 36 CURVE SMOOTH"
);
},
{
closed = 1;
nodes = (
"220 624 LINE",
"340 567 LINE",
"458 567 OFFCURVE",
"459 568 OFFCURVE",
"530 576 CURVE",
"533 576 OFFCURVE",
"539 583 OFFCURVE",
"539 587 CURVE SMOOTH",
"539 622 OFFCURVE",
"515 624 OFFCURVE",
"484 624 CURVE SMOOTH"
);
},
{
closed = 1;
nodes = (
"524 451 OFFCURVE",
"543 456 OFFCURVE",
"543 491 CURVE SMOOTH",
"543 495 OFFCURVE",
"536 501 OFFCURVE",
"533 501 CURVE",
"422 495 OFFCURVE",
"442 483 OFFCURVE",
"114 456 CURVE",
"100 435 OFFCURVE",
"113 393 OFFCURVE",
"153 402 CURVE SMOOTH",
"270 429 OFFCURVE",
"380 432 OFFCURVE",
"493 447 CURVE SMOOTH"
);
}
);
width = 600;
}
);
leftKerningGroup = H;
rightKerningGroup = rupeeIndian;
unicode = 20B9;
},
{
color = 4;
glyphname = sterling;
lastChange = "2016-09-08 09:53:23 +0000";
layers = (
{
background = {
paths = (
{
closed = 1;
nodes = (
"477 395 LINE",
"503 395 LINE SMOOTH",
"514 395 OFFCURVE",
"523 394 OFFCURVE",
"534 394 CURVE SMOOTH",
"544 394 LINE",
"556 383 OFFCURVE",
"565 383 OFFCURVE",
"578 383 CURVE SMOOTH",
"599 383 OFFCURVE",
"602 401 OFFCURVE",
"602 418 CURVE SMOOTH",
"602 431 OFFCURVE",
"601 449 OFFCURVE",
"582 449 CURVE SMOOTH",
"397 449 LINE",
"298 423 LINE",
"272 423 LINE",
"150 394 LINE SMOOTH",
"146 393 OFFCURVE",
"133 379 OFFCURVE",
"132 375 CURVE",
"132 366 LINE",
"133 362 OFFCURVE",
"139 350 OFFCURVE",
"142 347 CURVE",
"145 347 LINE SMOOTH",
"192 347 OFFCURVE",
"236 367 OFFCURVE",
"283 367 CURVE SMOOTH",
"313 367 LINE"
);
}
);
};
layerId = UUID0;
paths = (
{
closed = 1;
nodes = (
"198 -4 OFFCURVE",
"239 55 OFFCURVE",
"310 55 CURVE SMOOTH",
"367 55 OFFCURVE",
"391 45 OFFCURVE",
"438 45 CURVE SMOOTH",
"470 45 OFFCURVE",
"506 46 OFFCURVE",
"534 65 CURVE",
"544 126 OFFCURVE",
"452 133 OFFCURVE",
"310 108 CURVE",
"317 213 OFFCURVE",
"317 285 OFFCURVE",
"333 405 CURVE SMOOTH",
"358 595 OFFCURVE",
"415 666 OFFCURVE",
"503 666 CURVE SMOOTH",
"607 666 OFFCURVE",
"605 552 OFFCURVE",
"633 552 CURVE SMOOTH",
"649 552 OFFCURVE",
"651 570 OFFCURVE",
"651 586 CURVE SMOOTH",
"651 670 OFFCURVE",
"576 723 OFFCURVE",
"501 723 CURVE SMOOTH",
"297 723 OFFCURVE",
"250 438 OFFCURVE",
"255 108 CURVE",
"211 117 OFFCURVE",
"172 121 OFFCURVE",
"139 121 CURVE SMOOTH",
"56 121 OFFCURVE",
"10 94 OFFCURVE",
"10 45 CURVE SMOOTH",
"10 8 OFFCURVE",
"43 -11 OFFCURVE",
"89 -9 CURVE SMOOTH"
);
},
{
closed = 1;
nodes = (
"49 13 OFFCURVE",
"50 54 CURVE SMOOTH",
"51 74 OFFCURVE",
"75 86 OFFCURVE",
"119 86 CURVE SMOOTH",
"143 86 OFFCURVE",
"172 82 OFFCURVE",
"205 75 CURVE",
"128 30 OFFCURVE"
);
},
{
closed = 1;
nodes = (
"458 454 OFFCURVE",
"127 427 OFFCURVE",
"127 379 CURVE SMOOTH",
"127 359 OFFCURVE",
"146 360 OFFCURVE",
"165 360 CURVE SMOOTH",
"202 360 OFFCURVE",
"240 370 OFFCURVE",
"277 374 CURVE SMOOTH",
"315 378 OFFCURVE",
"373 390 OFFCURVE",
"522 390 CURVE SMOOTH",
"550 390 OFFCURVE",
"579 394 OFFCURVE",
"579 426 CURVE SMOOTH",
"579 438 OFFCURVE",
"569 454 OFFCURVE",
"556 454 CURVE SMOOTH"
);
}
);
width = 631;
}
);
leftKerningGroup = sterling;
rightKerningGroup = sterling;
unicode = 00A3;
},
